<svg width="16" height="16" viewBox="0 0 16 16" fill="none" xmlns="http://www.w3.org/2000/svg">
<path d="M10.0002 15.1667H6.00016C2.38016 15.1667 0.833496 13.62 0.833496 10V6C0.833496 2.38 2.38016 0.833336 6.00016 0.833336H10.0002C13.6202 0.833336 15.1668 2.38 15.1668 6V10C15.1668 13.62 13.6202 15.1667 10.0002 15.1667ZM6.00016 1.83334C2.92683 1.83334 1.8335 2.92667 1.8335 6V10C1.8335 13.0733 2.92683 14.1667 6.00016 14.1667H10.0002C13.0735 14.1667 14.1668 13.0733 14.1668 10V6C14.1668 2.92667 13.0735 1.83334 10.0002 1.83334H6.00016Z" fill="#545455"/>
<path d="M8.0001 9.94C7.87344 9.94 7.74677 9.89333 7.64677 9.79333L5.29344 7.44C5.1001 7.24667 5.1001 6.92667 5.29344 6.73333C5.48677 6.54 5.80677 6.54 6.0001 6.73333L8.0001 8.73333L10.0001 6.73333C10.1934 6.54 10.5134 6.54 10.7068 6.73333C10.9001 6.92667 10.9001 7.24667 10.7068 7.44L8.35344 9.79333C8.25344 9.89333 8.12677 9.94 8.0001 9.94Z" fill="#545455"/>
</svg>
