<svg width="231" height="39" viewBox="0 0 231 39" fill="none" xmlns="http://www.w3.org/2000/svg">
<path fill-rule="evenodd" clip-rule="evenodd" d="M90.7423 26.9079L90.7424 26.9081C91.2625 28.2334 91.3781 29.501 91.2047 30.7686C90.8002 33.4191 89.0664 35.7238 86.5236 36.761C85.599 37.1643 84.6165 37.3372 83.5763 37.3372C83.2873 37.3372 82.9406 37.3372 82.6516 37.2795C81.438 37.1643 80.2244 36.761 79.0108 36.0695C77.566 35.2629 76.1212 34.0529 74.5031 32.3243C72.8849 34.0529 71.498 35.2629 69.9954 36.0695C68.7818 36.761 67.5682 37.1067 66.3545 37.2795C66.2101 37.2795 66.0511 37.2939 65.8922 37.3084C65.7333 37.3228 65.5744 37.3372 65.4299 37.3372C64.3897 37.3372 63.4072 37.1643 62.4825 36.761C59.9975 35.7238 58.1482 33.4767 57.7437 30.7686C57.5703 29.4434 57.7437 28.1757 58.206 26.9081C58.3794 26.3895 58.5528 25.9862 58.7261 25.5829L58.7262 25.5828C59.0151 24.949 59.304 24.3152 59.5352 23.7391L59.593 23.6814C62.1358 18.2653 64.7942 12.7914 67.5682 7.37526L67.6837 7.14478C67.9727 6.62623 68.2616 6.05007 68.5506 5.4739L68.5506 5.47383C68.6284 5.35189 68.7063 5.22782 68.7849 5.10244C69.1151 4.57611 69.4597 4.02665 69.8798 3.51478C71.0934 2.13192 72.7116 1.32526 74.5031 1.32526C76.2368 1.32526 77.9128 2.13192 79.0686 3.5724C79.6465 4.20621 80.051 4.89764 80.3978 5.53145C80.6867 6.10764 80.9757 6.68383 81.2646 7.2024L81.3802 7.43288C84.212 12.8491 86.8704 18.3229 89.3554 23.7391H89.4132C89.6443 24.3152 89.9333 24.949 90.2222 25.5828L90.2223 25.5829C90.3956 25.9861 90.5689 26.447 90.7423 26.9079ZM118.656 10.3715C118.656 11.6967 117.616 12.7339 116.286 12.7339C114.957 12.7339 113.917 11.6967 113.917 10.3715C113.917 9.04624 114.957 8.00909 116.286 8.00909C117.673 8.06671 118.656 9.10386 118.656 10.3715ZM109.004 15.0962V15.6724C109.004 15.6724 107.906 14.2319 105.479 14.2319C101.549 14.2319 98.4864 17.2281 98.4864 21.3767C98.4864 25.4676 101.549 28.5214 105.479 28.5214C107.906 28.5214 109.004 27.0234 109.004 27.0234V27.6572C109.004 27.9453 109.236 28.1757 109.524 28.1757H112.472V14.5776H109.524C109.178 14.5776 109.004 14.8081 109.004 15.0962ZM106.057 25.2372C107.386 25.2372 108.484 24.5458 109.005 23.7391V18.8991C108.484 18.15 107.329 17.401 106.057 17.401C103.746 17.401 101.954 18.8415 101.954 21.3191C101.954 23.7967 103.746 25.2372 106.057 25.2372ZM114.553 14.5776H118.02V28.1181H114.553V14.5776ZM162.866 15.6724C162.866 15.6724 164.022 14.2319 166.391 14.2319C170.321 14.2319 173.384 17.2281 173.384 21.3191C173.384 25.41 170.321 28.4639 166.391 28.4639C163.964 28.4639 162.866 26.9658 162.866 26.9658V27.5996C162.866 27.8877 162.635 28.1181 162.346 28.1181H159.398V8.06671H162.866V15.6724ZM165.813 25.1795C164.483 25.1795 163.443 24.4881 162.865 23.6814V18.8414C163.385 18.0924 164.541 17.3433 165.813 17.3433C168.124 17.3433 169.916 18.7838 169.916 21.2614C169.916 23.739 168.124 25.1795 165.813 25.1795ZM157.607 28.1757V20.1091C157.607 17.8043 157.144 16.5367 155.989 15.5572C154.948 14.6929 153.677 14.2319 152.174 14.2319C150.845 14.2319 149.516 14.6353 148.476 15.6724V15.0962C148.476 14.8081 148.245 14.5776 147.956 14.5776H145.182V28.1757H148.649V18.7262C149.343 17.9196 150.441 17.401 151.481 17.401C153.388 17.401 154.139 18.2653 154.139 20.5124V28.1757H157.607ZM136.744 14.2319C134.374 14.2319 133.218 15.6724 133.218 15.6724V8.06671H129.751V28.1181H132.698C132.987 28.1181 133.218 27.8877 133.218 27.5996V26.9658C133.218 26.9658 134.316 28.4639 136.744 28.4639C140.673 28.4639 143.736 25.41 143.736 21.3191C143.794 17.2281 140.731 14.2319 136.744 14.2319ZM133.219 23.6814C133.797 24.4881 134.837 25.1795 136.166 25.1795C138.478 25.1795 140.269 23.7391 140.269 21.2614C140.269 18.7838 138.478 17.3434 136.166 17.3434C134.895 17.3434 133.739 18.0924 133.219 18.8414V23.6814ZM126.804 14.2319C127.844 14.2319 128.422 14.4048 128.422 14.4048V17.6315C128.422 17.6315 125.532 16.6519 123.741 18.7262V28.1757H120.273V14.5776H123.221C123.51 14.5776 123.741 14.8081 123.741 15.0962V15.6724C124.319 14.9234 125.706 14.2319 126.804 14.2319ZM74.4455 28.7519C72.4806 26.2743 71.2092 23.9695 70.8046 22.0681C70.6312 21.2614 70.5735 20.5124 70.689 19.8786C70.7468 19.3024 70.978 18.7838 71.2669 18.3805C71.9604 17.401 73.1163 16.7672 74.4455 16.7672C75.7747 16.7672 76.9883 17.3433 77.624 18.3805C77.9129 18.8414 78.1441 19.3024 78.2019 19.8786C78.3175 20.5124 78.2597 21.2614 78.0863 22.0681C77.6818 23.9695 76.4104 26.2743 74.4455 28.7519ZM85.5992 34.6867C87.3907 33.9952 88.6621 32.3819 88.8932 30.4805C89.0088 29.501 88.8932 28.6367 88.7199 27.7148C88.6573 27.5276 88.5778 27.3404 88.4905 27.135C88.4166 26.961 88.3371 26.7738 88.2575 26.5624C88.1131 26.2743 87.983 25.9718 87.853 25.6693C87.723 25.3668 87.593 25.0643 87.4485 24.7762V24.7186C84.9635 19.36 82.3051 13.8862 79.5311 8.52762L79.4155 8.29715C79.1266 7.72096 78.8376 7.14476 78.5487 6.62619C78.2597 6.05 77.913 5.47381 77.5084 5.01286C76.7571 4.14857 75.7169 3.68762 74.6189 3.68762C73.5208 3.68762 72.4806 4.14857 71.7293 5.01286C71.3248 5.53143 70.978 6.05 70.6891 6.62619L70.689 6.62631C70.4001 7.20246 70.1111 7.77861 69.8222 8.29715L69.7066 8.52762C66.8749 13.8862 64.2165 19.36 61.7315 24.7186L61.6737 24.7762C61.3847 25.3524 61.0958 25.9862 60.8646 26.5624L60.8646 26.5624C60.6912 26.9657 60.5178 27.3691 60.4023 27.7148C59.9977 28.7519 59.9399 29.6162 60.0555 30.5381C60.2867 32.3819 61.5581 33.9952 63.3496 34.7443C64.1587 35.0324 65.0833 35.2052 66.0658 35.09C66.9904 34.9748 67.9151 34.6867 68.8398 34.1681C70.1112 33.4191 71.4404 32.3243 72.9429 30.6533C70.5735 27.7148 69.0709 25.0067 68.5508 22.6443C68.2618 21.5495 68.2041 20.5124 68.3774 19.5905C68.5508 18.6686 68.8398 17.8619 69.3599 17.1129C70.4579 15.5571 72.365 14.5776 74.4455 14.5776C76.526 14.5776 78.4331 15.4995 79.5311 17.1129C80.0512 17.8619 80.3402 18.6686 80.5135 19.5905C80.6291 20.5124 80.5713 21.5495 80.3402 22.6443C79.7623 25.0067 78.3175 27.6571 75.9481 30.5957C77.4506 32.2667 78.722 33.3614 80.0512 34.1105C81.0337 34.6291 81.9005 34.9171 82.8252 35.0324C83.8076 35.1476 84.7323 35.0324 85.5992 34.6867Z" fill="#DFDFDF"/>
</svg>
