<svg width="148" height="24" viewBox="0 0 148 24" fill="none" xmlns="http://www.w3.org/2000/svg">
<g opacity="0.6">
<rect x="0.5" y="0.5" width="33" height="23" rx="3.5" fill="white" stroke="#D9D9D9"/>
<path fill-rule="evenodd" clip-rule="evenodd" d="M10.7501 15.8583H8.69031L7.14576 9.79238C7.07245 9.51335 6.91679 9.26667 6.68782 9.15041C6.11639 8.85824 5.48672 8.62571 4.7998 8.50844V8.2749H8.11789C8.57583 8.2749 8.91929 8.62571 8.97653 9.03314L9.77793 13.4087L11.8367 8.2749H13.8392L10.7501 15.8583ZM14.9838 15.8583H13.0386L14.6404 8.2749H16.5856L14.9838 15.8583ZM19.1023 10.3757C19.1596 9.96728 19.503 9.73375 19.9037 9.73375C20.5334 9.67511 21.2193 9.79238 21.7917 10.0835L22.1352 8.45082C21.5628 8.21728 20.9331 8.10001 20.3617 8.10001C18.4737 8.10001 17.0998 9.15041 17.0998 10.6082C17.0998 11.7173 18.073 12.2996 18.7599 12.6504C19.503 13.0002 19.7892 13.2338 19.732 13.5836C19.732 14.1083 19.1596 14.3418 18.5881 14.3418C17.9012 14.3418 17.2143 14.1669 16.5856 13.8747L16.2422 15.5085C16.9291 15.7996 17.6723 15.9169 18.3592 15.9169C20.4762 15.9745 21.7917 14.9251 21.7917 13.35C21.7917 11.3665 19.1023 11.2502 19.1023 10.3757ZM28.6 15.8583L27.0554 8.2749H25.3964C25.0529 8.2749 24.7095 8.50844 24.595 8.85824L21.7349 15.8583H23.7374L24.1371 14.7502H26.5975L26.8265 15.8583H28.6ZM25.6822 10.3171L26.2537 13.1751H24.6519L25.6822 10.3171Z" fill="#172B85"/>
<rect x="38.5" y="0.5" width="33" height="23" rx="3.5" fill="white" stroke="#D9D9D9"/>
<path fill-rule="evenodd" clip-rule="evenodd" d="M55.1789 16.8295C53.9948 17.8275 52.459 18.43 50.7807 18.43C47.0358 18.43 44 15.4303 44 11.73C44 8.02966 47.0358 5.02997 50.7807 5.02997C52.459 5.02997 53.9948 5.63243 55.1789 6.63043C56.3629 5.63243 57.8988 5.02997 59.5771 5.02997C63.3219 5.02997 66.3578 8.02966 66.3578 11.73C66.3578 15.4303 63.3219 18.43 59.5771 18.43C57.8988 18.43 56.3629 17.8275 55.1789 16.8295Z" fill="#ED0006"/>
<path fill-rule="evenodd" clip-rule="evenodd" d="M55.1792 16.8293C56.637 15.6004 57.5614 13.7718 57.5614 11.73C57.5614 9.68809 56.637 7.85955 55.1792 6.63065C56.3633 5.63252 57.8992 5.02997 59.5777 5.02997C63.3225 5.02997 66.3583 8.02966 66.3583 11.73C66.3583 15.4303 63.3225 18.43 59.5777 18.43C57.8992 18.43 56.3633 17.8274 55.1792 16.8293Z" fill="#F9A000"/>
<path fill-rule="evenodd" clip-rule="evenodd" d="M55.1789 16.8295C56.6369 15.6006 57.5614 13.7719 57.5614 11.73C57.5614 9.68796 56.6369 7.85932 55.1789 6.63042C53.7209 7.85932 52.7964 9.68796 52.7964 11.73C52.7964 13.7719 53.7209 15.6006 55.1789 16.8295Z" fill="#FF5E00"/>
<rect x="76" width="34" height="24" rx="4" fill="#1F72CD"/>
<path fill-rule="evenodd" clip-rule="evenodd" d="M82.0952 8.5L78.9141 15.7467H82.7223L83.1944 14.5913H84.2735L84.7457 15.7467H88.9375V14.8649L89.311 15.7467H91.4793L91.8528 14.8462V15.7467H100.571L101.631 14.6213L102.623 15.7467L107.101 15.7561L103.91 12.1436L107.101 8.5H102.693L101.661 9.60463L100.699 8.5H91.2156L90.4013 10.3704L89.5678 8.5H85.7675V9.35186L85.3447 8.5H82.0952ZM82.832 9.52905H84.6884L86.7984 14.4431V9.52905H88.8319L90.4617 13.0524L91.9637 9.52905H93.987V14.7291H92.7559L92.7458 10.6544L90.9509 14.7291H89.8495L88.0446 10.6544V14.7291H85.5118L85.0316 13.5633H82.4374L81.9583 14.728H80.6012L82.832 9.52905ZM100.12 9.52905H95.1134V14.726H100.042L101.631 13.0036L103.162 14.726H104.762L102.436 12.1426L104.762 9.52905H103.231L101.651 11.2316L100.12 9.52905ZM83.7351 10.4089L82.8804 12.4856H84.5888L83.7351 10.4089ZM96.3497 11.555V10.6057V10.6048H99.4734L100.836 12.1229L99.413 13.6493H96.3497V12.613H99.0808V11.555H96.3497Z" fill="white"/>
<rect x="114.5" y="0.5" width="33" height="23" rx="3.5" fill="white" stroke="#D9D9D9"/>
<path d="M128 23L147 17.25V20C147 21.6569 145.657 23 144 23H128Z" fill="#FD6020"/>
<path fill-rule="evenodd" clip-rule="evenodd" d="M143.394 9.11084C144.439 9.11084 145.014 9.59438 145.014 10.5077C145.066 11.2062 144.596 11.7972 143.969 11.9046L145.38 13.8925H144.282L143.08 11.9584H142.976V13.8925H142.087V9.11084H143.394ZM142.976 11.3137H143.237C143.812 11.3137 144.073 11.045 144.073 10.5615C144.073 10.1317 143.812 9.86304 143.237 9.86304H142.976V11.3137ZM139.003 13.8925H141.512V13.0866H139.892V11.7972H141.46V10.9913H139.892V9.91674H141.512V9.11084H139.003V13.8925ZM136.39 12.3345L135.188 9.11084H134.247L136.181 14H136.652L138.585 9.11084H137.645L136.39 12.3345ZM125.78 11.5286C125.78 12.8717 126.826 14 128.132 14C128.551 14 128.916 13.8925 129.282 13.7314V12.6568C129.021 12.9792 128.655 13.1941 128.237 13.1941C127.401 13.1941 126.721 12.5494 126.721 11.6897V11.5823C126.669 10.7227 127.348 9.97048 128.185 9.91675C128.603 9.91675 129.021 10.1317 129.282 10.454V9.37948C128.969 9.16458 128.551 9.11085 128.185 9.11085C126.826 9.0034 125.78 10.1317 125.78 11.5286ZM124.16 10.9376C123.638 10.7227 123.481 10.6152 123.481 10.3466C123.533 10.0242 123.794 9.75557 124.108 9.8093C124.369 9.8093 124.631 9.97048 124.84 10.1854L125.31 9.54066C124.944 9.2183 124.474 9.00339 124.003 9.00339C123.272 8.94967 122.645 9.54066 122.592 10.2928V10.3466C122.592 10.9913 122.854 11.3674 123.69 11.636C123.899 11.6897 124.108 11.7972 124.317 11.9046C124.474 12.0121 124.578 12.1733 124.578 12.3882C124.578 12.7643 124.265 13.0866 123.951 13.0866H123.899C123.481 13.0866 123.115 12.818 122.958 12.4419L122.383 13.0329C122.697 13.6239 123.324 13.9463 123.951 13.9463C124.787 14 125.467 13.3553 125.519 12.4956V12.3345C125.467 11.6897 125.206 11.3674 124.16 10.9376ZM121.129 13.8925H122.017V9.11084H121.129V13.8925ZM117 9.11086H118.307H118.568C119.822 9.16458 120.815 10.2391 120.763 11.5286C120.763 12.227 120.449 12.8717 119.927 13.3553C119.456 13.7314 118.882 13.9463 118.307 13.8926H117V9.11086ZM118.15 13.0866C118.568 13.1404 119.038 12.9792 119.352 12.7105C119.666 12.3882 119.822 11.9584 119.822 11.4748C119.822 11.045 119.666 10.6152 119.352 10.2928C119.038 10.0242 118.568 9.86302 118.15 9.91674H117.889V13.0866H118.15Z" fill="black"/>
<path fill-rule="evenodd" clip-rule="evenodd" d="M131.948 9C130.641 9 129.543 10.0745 129.543 11.4714C129.543 12.8146 130.589 13.9429 131.948 13.9966C133.307 14.0503 134.352 12.9221 134.404 11.5252C134.352 10.1283 133.307 9 131.948 9V9Z" fill="#FD6020"/>
</g>
</svg>
