<svg width="16" height="16" viewBox="0 0 16 16" fill="none" xmlns="http://www.w3.org/2000/svg">
<path d="M9.99967 15.1667H5.99967C2.37967 15.1667 0.833008 13.62 0.833008 10V6.00001C0.833008 2.38001 2.37967 0.833344 5.99967 0.833344H9.99967C13.6197 0.833344 15.1663 2.38001 15.1663 6.00001V10C15.1663 13.62 13.6197 15.1667 9.99967 15.1667ZM5.99967 1.83334C2.92634 1.83334 1.83301 2.92668 1.83301 6.00001V10C1.83301 13.0733 2.92634 14.1667 5.99967 14.1667H9.99967C13.073 14.1667 14.1663 13.0733 14.1663 10V6.00001C14.1663 2.92668 13.073 1.83334 9.99967 1.83334H5.99967Z" fill="#4A00E0"/>
<path d="M8.0001 9.94002C7.87344 9.94002 7.74677 9.89335 7.64677 9.79335L5.29344 7.44001C5.1001 7.24668 5.1001 6.92668 5.29344 6.73335C5.48677 6.54002 5.80677 6.54002 6.0001 6.73335L8.0001 8.73335L10.0001 6.73335C10.1934 6.54002 10.5134 6.54002 10.7068 6.73335C10.9001 6.92668 10.9001 7.24668 10.7068 7.44001L8.35344 9.79335C8.25344 9.89335 8.12677 9.94002 8.0001 9.94002Z" fill="#4A00E0"/>
</svg>
