<svg width="40" height="41" viewBox="0 0 40 41" fill="none" xmlns="http://www.w3.org/2000/svg">
<path d="M3.3335 21.5167H31.6668" stroke="#292D32" stroke-width="2" stroke-miterlimit="10" stroke-linecap="round" stroke-linejoin="round"/>
<path d="M31.6668 17.6333V29.55C31.6168 34.3 30.3168 35.5 25.3668 35.5H9.63355C4.60021 35.5 3.3335 34.25 3.3335 29.2833V17.6333C3.3335 13.1333 4.3835 11.6833 8.3335 11.45C8.7335 11.4333 9.16688 11.4167 9.63355 11.4167H25.3668C30.4001 11.4167 31.6668 12.6667 31.6668 17.6333Z" stroke="#292D32" stroke-width="2" stroke-linecap="round" stroke-linejoin="round"/>
<path d="M36.6668 11.7167V23.3667C36.6668 27.8667 35.6168 29.3167 31.6668 29.55V17.6333C31.6668 12.6667 30.4001 11.4167 25.3668 11.4167H9.63355C9.16688 11.4167 8.7335 11.4333 8.3335 11.45C8.3835 6.7 9.68355 5.5 14.6335 5.5H30.3668C35.4001 5.5 36.6668 6.75 36.6668 11.7167Z" stroke="#292D32" stroke-width="2" stroke-linecap="round" stroke-linejoin="round"/>
<path d="M8.75 30.1833H11.6166" stroke="#292D32" stroke-width="2" stroke-miterlimit="10" stroke-linecap="round" stroke-linejoin="round"/>
<path d="M15.1831 30.1833H20.9164" stroke="#292D32" stroke-width="2" stroke-miterlimit="10" stroke-linecap="round" stroke-linejoin="round"/>
</svg>
