<svg width="56" height="56" viewBox="0 0 56 56" fill="none" xmlns="http://www.w3.org/2000/svg">
<path d="M4 28C4 14.7452 14.7452 4 28 4C41.2548 4 52 14.7452 52 28C52 41.2548 41.2548 52 28 52C14.7452 52 4 41.2548 4 28Z" fill="#F4EBFF"/>
<path d="M37.9994 32.92V35.92C38.0006 36.1985 37.9435 36.4742 37.832 36.7294C37.7204 36.9845 37.5567 37.2136 37.3515 37.4019C37.1463 37.5901 36.904 37.7335 36.6402 37.8227C36.3764 37.9119 36.0968 37.9451 35.8194 37.92C32.7423 37.5856 29.7864 36.5342 27.1894 34.85C24.7733 33.3147 22.7248 31.2662 21.1894 28.85C19.4994 26.2412 18.4477 23.271 18.1194 20.18C18.0945 19.9035 18.1273 19.6248 18.2159 19.3616C18.3046 19.0985 18.447 18.8567 18.6342 18.6516C18.8214 18.4466 19.0492 18.2827 19.3032 18.1705C19.5572 18.0583 19.8318 18.0003 20.1094 18H23.1094C23.5948 17.9952 24.0652 18.1671 24.4332 18.4835C24.8012 18.8 25.0415 19.2395 25.1094 19.72C25.2361 20.6801 25.4709 21.6227 25.8094 22.53C25.944 22.8879 25.9731 23.2769 25.8934 23.6509C25.8136 24.0249 25.6283 24.3681 25.3594 24.64L24.0894 25.91C25.513 28.4136 27.5859 30.4865 30.0894 31.91L31.3594 30.64C31.6313 30.3711 31.9746 30.1859 32.3486 30.1061C32.7225 30.0263 33.1115 30.0555 33.4694 30.19C34.3767 30.5286 35.3194 30.7634 36.2794 30.89C36.7652 30.9585 37.2088 31.2032 37.526 31.5775C37.8431 31.9518 38.0116 32.4296 37.9994 32.92Z" stroke="url(#paint0_linear_667_14597)" stroke-width="2" stroke-linecap="round" stroke-linejoin="round"/>
<path d="M28 48C16.9543 48 8 39.0457 8 28H0C0 43.464 12.536 56 28 56V48ZM48 28C48 39.0457 39.0457 48 28 48V56C43.464 56 56 43.464 56 28H48ZM28 8C39.0457 8 48 16.9543 48 28H56C56 12.536 43.464 0 28 0V8ZM28 0C12.536 0 0 12.536 0 28H8C8 16.9543 16.9543 8 28 8V0Z" fill="#F9F5FF"/>
<defs>
<linearGradient id="paint0_linear_667_14597" x1="18.1113" y1="27.6204" x2="38.0001" y2="27.6204" gradientUnits="userSpaceOnUse">
<stop stop-color="#8E2DE2"/>
<stop offset="1" stop-color="#4A00E0"/>
</linearGradient>
</defs>
</svg>
