<svg width="24" height="24" viewBox="0 0 24 24" fill="none" xmlns="http://www.w3.org/2000/svg">
<path d="M-nan -nanL14.745 2.25C14.745 2.25 13.6772 2.625 12 2.625C10.9962 2.625 10.2106 2.49066 9.74168 2.3828C9.41594 2.30787 9.07494 2.22375 8.75953 2.33437V2.33437L3.6328 4.12858C2.4066 4.55771 1.67836 5.81882 1.91959 7.09534V7.09534C2.13357 8.22763 3.06061 9.08821 4.20566 9.21752L4.57078 9.25875C4.85137 9.2905 5.10976 9.42662 5.29464 9.64007C5.47952 9.85352 5.57737 10.1287 5.56875 10.4109L5.34537 18.3573C5.29314 20.2154 6.78521 21.75 8.64407 21.75H15.3559C17.2148 21.75 18.7069 20.2154 18.6546 18.3573L18.4313 10.4109C18.4226 10.1287 18.5205 9.85352 18.7054 9.64007C18.8902 9.42662 19.1486 9.2905 19.4292 9.25875L19.7943 9.21752C20.9394 9.08821 21.8664 8.22763 22.0804 7.09534V7.09534C22.3216 5.81882 21.5934 4.55771 20.3672 4.12858L15.2405 2.33437C15.0812 2.27853 14.9137 2.25 14.745 2.25L-nan -nanL-nan -nanZ" stroke="#4A00E0" stroke-width="1.5" stroke-linecap="round" stroke-linejoin="round"/>
<path d="M15.6238 2.46844C15.4112 3.26727 14.9407 3.97348 14.2853 4.47727C13.63 4.98105 12.8265 5.25418 11.9999 5.25418C11.1733 5.25418 10.3698 4.98105 9.71444 4.47727C9.05907 3.97348 8.58853 3.26727 8.37598 2.46844" stroke="#4A00E0" stroke-width="1.5" stroke-linecap="round" stroke-linejoin="round"/>
</svg>
