<?xml version="1.0" encoding="UTF-8"?>
<svg xmlns="http://www.w3.org/2000/svg" xmlns:xlink="http://www.w3.org/1999/xlink" width="375pt" height="374.999991pt" viewBox="0 0 375 374.999991" version="1.2">
<g id="surface1">
<path style=" stroke:none;fill-rule:nonzero;fill:rgb(100%,18.429565%,68.629456%);fill-opacity:1;" d="M 267.597656 170.160156 C 274.390625 178.910156 288.824219 180.332031 296.703125 172.234375 C 313.066406 156.238281 327.769531 138.628906 343.375 121.894531 C 348.648438 115.765625 355.097656 109.992188 357.308594 101.933594 C 359.597656 94.023438 357.777344 85.285156 352.964844 78.671875 C 339.519531 59.605469 321.945312 43.648438 302.542969 30.777344 C 288.617188 69.003906 278.101562 108.484375 265.238281 147.113281 C 262.527344 154.566406 262.003906 163.824219 267.597656 170.160156 Z M 267.597656 170.160156 "/>
<path style=" stroke:none;fill-rule:nonzero;fill:rgb(100%,18.429565%,68.629456%);fill-opacity:1;" d="M 237.042969 128.472656 C 248.027344 129.886719 259.265625 120.722656 259.144531 109.425781 C 259.476562 86.546875 257.472656 63.691406 256.742188 40.824219 C 256.15625 32.757812 256.652344 24.121094 252.542969 16.84375 C 248.589844 9.621094 241.132812 4.703125 233.054688 3.410156 C 210.074219 -0.628906 186.363281 0.445312 163.53125 4.996094 C 180.617188 41.921875 200.996094 77.328125 219.117188 113.792969 C 222.449219 120.988281 228.609375 127.921875 237.042969 128.472656 Z M 237.042969 128.472656 "/>
<path style=" stroke:none;fill-rule:nonzero;fill:rgb(100%,18.429565%,68.629456%);fill-opacity:1;" d="M 186.0625 120.078125 C 194.75 113.207031 196.039062 98.761719 187.863281 90.960938 C 171.714844 74.746094 153.957031 60.222656 137.074219 44.777344 C 130.890625 39.5625 125.058594 33.175781 116.980469 31.039062 C 109.046875 28.824219 100.320312 30.726562 93.753906 35.605469 C 74.8125 49.230469 59.023438 66.953125 46.339844 86.472656 C 84.699219 100.03125 124.28125 110.167969 163.039062 122.660156 C 170.519531 125.300781 179.785156 125.734375 186.0625 120.078125 Z M 186.0625 120.078125 "/>
<path style=" stroke:none;fill-rule:nonzero;fill:rgb(100%,18.429565%,68.629456%);fill-opacity:1;" d="M 144.128906 151.800781 C 145.433594 140.808594 136.160156 129.660156 124.859375 129.894531 C 101.972656 129.792969 79.136719 132.023438 56.277344 132.980469 C 48.21875 133.644531 39.574219 133.230469 32.339844 137.414062 C 25.15625 141.4375 20.316406 148.941406 19.101562 157.03125 C 15.285156 180.046875 16.597656 203.746094 21.375 226.53125 C 58.132812 209.082031 93.339844 188.347656 129.625 169.867188 C 136.792969 166.464844 143.664062 160.238281 144.128906 151.800781 Z M 144.128906 151.800781 "/>
<path style=" stroke:none;fill-rule:nonzero;fill:rgb(100%,18.429565%,68.629456%);fill-opacity:1;" d="M 137.066406 202.96875 C 130.253906 194.242188 115.816406 192.855469 107.957031 200.976562 C 91.632812 217.015625 76.984375 234.671875 61.425781 251.445312 C 56.167969 257.589844 49.738281 263.378906 47.546875 271.449219 C 45.277344 279.359375 47.121094 288.097656 51.957031 294.699219 C 65.457031 313.726562 83.070312 329.636719 102.507812 342.449219 C 116.328125 304.183594 126.734375 264.671875 139.488281 226.015625 C 142.183594 218.546875 142.675781 209.289062 137.066406 202.96875 Z M 137.066406 202.96875 "/>
<path style=" stroke:none;fill-rule:nonzero;fill:rgb(100%,18.429565%,68.629456%);fill-opacity:1;" d="M 166.996094 244.859375 C 155.996094 243.5625 144.863281 252.859375 145.109375 264.15625 C 145.039062 287.035156 147.292969 309.867188 148.285156 332.722656 C 148.957031 340.78125 148.554688 349.421875 152.753906 356.648438 C 156.785156 363.828125 164.296875 368.660156 172.386719 369.859375 C 195.414062 373.648438 219.109375 372.308594 241.890625 367.496094 C 224.398438 330.769531 203.617188 295.589844 185.085938 259.34375 C 181.671875 252.175781 175.433594 245.308594 166.996094 244.859375 Z M 166.996094 244.859375 "/>
<path style=" stroke:none;fill-rule:nonzero;fill:rgb(100%,18.429565%,68.629456%);fill-opacity:1;" d="M 219.148438 252.15625 C 210.433594 258.984375 209.074219 273.421875 217.207031 281.265625 C 233.277344 297.5625 250.960938 312.175781 267.761719 327.703125 C 273.917969 332.949219 279.71875 339.367188 287.789062 341.546875 C 295.710938 343.796875 304.441406 341.9375 311.035156 337.09375 C 330.046875 323.5625 345.921875 305.925781 358.707031 286.464844 C 320.414062 272.714844 280.878906 262.378906 242.191406 249.6875 C 234.726562 247.015625 225.460938 246.539062 219.148438 252.15625 Z M 219.148438 252.15625 "/>
</g>
</svg>
