<?xml version="1.0" encoding="UTF-8"?>
<svg xmlns="http://www.w3.org/2000/svg" xmlns:xlink="http://www.w3.org/1999/xlink" width="375pt" height="374.999991pt" viewBox="0 0 375 374.999991" version="1.2">
<g id="surface1">
<path style=" stroke:none;fill-rule:nonzero;fill:rgb(100%,43.139648%,38.42926%);fill-opacity:1;" d="M 373.84375 187.121094 C 373.84375 190.171875 373.769531 193.222656 373.621094 196.269531 C 373.472656 199.316406 373.246094 202.359375 372.949219 205.394531 C 372.648438 208.429688 372.277344 211.457031 371.828125 214.476562 C 371.378906 217.492188 370.859375 220.496094 370.265625 223.488281 C 369.667969 226.480469 369 229.457031 368.261719 232.417969 C 367.519531 235.375 366.707031 238.316406 365.820312 241.234375 C 364.9375 244.15625 363.980469 247.050781 362.953125 249.921875 C 361.925781 252.796875 360.828125 255.640625 359.660156 258.460938 C 358.492188 261.277344 357.257812 264.066406 355.953125 266.824219 C 354.648438 269.582031 353.277344 272.304688 351.839844 274.996094 C 350.402344 277.6875 348.902344 280.339844 347.332031 282.957031 C 345.765625 285.574219 344.132812 288.152344 342.441406 290.6875 C 340.746094 293.226562 338.992188 295.71875 337.171875 298.167969 C 335.355469 300.621094 333.480469 303.023438 331.546875 305.382812 C 329.613281 307.738281 327.621094 310.050781 325.574219 312.308594 C 323.523438 314.570312 321.421875 316.78125 319.265625 318.9375 C 317.109375 321.09375 314.902344 323.195312 312.640625 325.246094 C 310.382812 327.292969 308.074219 329.285156 305.714844 331.222656 C 303.359375 333.15625 300.953125 335.035156 298.503906 336.851562 C 296.054688 338.667969 293.5625 340.425781 291.027344 342.121094 C 288.492188 343.8125 285.917969 345.445312 283.300781 347.015625 C 280.683594 348.582031 278.03125 350.085938 275.34375 351.523438 C 272.652344 352.960938 269.929688 354.332031 267.171875 355.636719 C 264.414062 356.941406 261.628906 358.179688 258.8125 359.347656 C 255.992188 360.511719 253.148438 361.609375 250.277344 362.640625 C 247.40625 363.667969 244.511719 364.625 241.59375 365.507812 C 238.675781 366.394531 235.738281 367.207031 232.777344 367.949219 C 229.820312 368.691406 226.84375 369.359375 223.855469 369.953125 C 220.863281 370.550781 217.859375 371.070312 214.84375 371.519531 C 211.824219 371.964844 208.800781 372.339844 205.765625 372.636719 C 202.730469 372.9375 199.691406 373.160156 196.644531 373.3125 C 193.597656 373.460938 190.550781 373.535156 187.5 373.535156 C 184.449219 373.535156 181.402344 373.460938 178.355469 373.3125 C 175.308594 373.160156 172.269531 372.9375 169.234375 372.636719 C 166.199219 372.339844 163.175781 371.964844 160.15625 371.519531 C 157.140625 371.070312 154.136719 370.550781 151.144531 369.953125 C 148.15625 369.359375 145.179688 368.691406 142.222656 367.949219 C 139.261719 367.207031 136.324219 366.394531 133.40625 365.507812 C 130.488281 364.625 127.59375 363.667969 124.722656 362.640625 C 121.851562 361.609375 119.007812 360.511719 116.1875 359.347656 C 113.371094 358.179688 110.582031 356.941406 107.828125 355.636719 C 105.070312 354.332031 102.347656 352.960938 99.65625 351.523438 C 96.96875 350.085938 94.316406 348.582031 91.699219 347.015625 C 89.082031 345.445312 86.507812 343.8125 83.972656 342.121094 C 81.4375 340.425781 78.945312 338.667969 76.496094 336.851562 C 74.042969 335.035156 71.640625 333.15625 69.285156 331.222656 C 66.925781 329.285156 64.617188 327.292969 62.359375 325.246094 C 60.097656 323.195312 57.890625 321.09375 55.734375 318.9375 C 53.578125 316.78125 51.476562 314.570312 49.425781 312.308594 C 47.378906 310.050781 45.386719 307.738281 43.453125 305.382812 C 41.519531 303.023438 39.644531 300.621094 37.824219 298.167969 C 36.007812 295.71875 34.253906 293.226562 32.558594 290.6875 C 30.867188 288.152344 29.234375 285.574219 27.667969 282.957031 C 26.097656 280.339844 24.597656 277.6875 23.160156 274.996094 C 21.722656 272.304688 20.351562 269.582031 19.046875 266.824219 C 17.742188 264.066406 16.507812 261.277344 15.339844 258.460938 C 14.171875 255.640625 13.074219 252.796875 12.046875 249.921875 C 11.019531 247.050781 10.0625 244.15625 9.179688 241.234375 C 8.292969 238.316406 7.480469 235.375 6.738281 232.417969 C 6 229.457031 5.332031 226.480469 4.734375 223.488281 C 4.140625 220.496094 3.621094 217.492188 3.171875 214.476562 C 2.722656 211.457031 2.351562 208.429688 2.050781 205.394531 C 1.753906 202.359375 1.527344 199.316406 1.378906 196.269531 C 1.230469 193.222656 1.15625 190.171875 1.15625 187.121094 C 1.15625 184.070312 1.230469 181.023438 1.378906 177.976562 C 1.527344 174.929688 1.753906 171.886719 2.050781 168.851562 C 2.351562 165.816406 2.722656 162.789062 3.171875 159.769531 C 3.621094 156.753906 4.140625 153.746094 4.734375 150.753906 C 5.332031 147.761719 6 144.789062 6.738281 141.828125 C 7.480469 138.867188 8.292969 135.929688 9.179688 133.011719 C 10.0625 130.089844 11.019531 127.195312 12.046875 124.320312 C 13.074219 121.449219 14.171875 118.605469 15.339844 115.785156 C 16.507812 112.96875 17.742188 110.179688 19.046875 107.421875 C 20.351562 104.664062 21.722656 101.9375 23.160156 99.25 C 24.597656 96.558594 26.097656 93.902344 27.667969 91.289062 C 29.234375 88.671875 30.867188 86.09375 32.558594 83.558594 C 34.253906 81.019531 36.007812 78.527344 37.828125 76.078125 C 39.644531 73.625 41.519531 71.222656 43.453125 68.863281 C 45.386719 66.503906 47.378906 64.195312 49.425781 61.933594 C 51.476562 59.675781 53.578125 57.464844 55.734375 55.308594 C 57.890625 53.152344 60.097656 51.046875 62.359375 49 C 64.617188 46.949219 66.925781 44.957031 69.285156 43.023438 C 71.640625 41.089844 74.042969 39.210938 76.496094 37.394531 C 78.945312 35.578125 81.4375 33.820312 83.972656 32.125 C 86.507812 30.429688 89.082031 28.800781 91.699219 27.230469 C 94.316406 25.664062 96.96875 24.160156 99.65625 22.722656 C 102.347656 21.28125 105.070312 19.910156 107.828125 18.605469 C 110.582031 17.304688 113.371094 16.066406 116.1875 14.898438 C 119.007812 13.730469 121.851562 12.632812 124.722656 11.605469 C 127.59375 10.578125 130.488281 9.621094 133.40625 8.738281 C 136.324219 7.851562 139.261719 7.039062 142.222656 6.296875 C 145.179688 5.554688 148.15625 4.886719 151.144531 4.292969 C 154.136719 3.695312 157.140625 3.175781 160.15625 2.726562 C 163.175781 2.28125 166.199219 1.90625 169.234375 1.605469 C 172.269531 1.308594 175.308594 1.082031 178.355469 0.933594 C 181.402344 0.785156 184.449219 0.710938 187.5 0.710938 C 190.550781 0.710938 193.597656 0.785156 196.644531 0.933594 C 199.691406 1.082031 202.730469 1.308594 205.765625 1.605469 C 208.800781 1.90625 211.824219 2.28125 214.84375 2.726562 C 217.859375 3.175781 220.863281 3.695312 223.855469 4.292969 C 226.84375 4.886719 229.820312 5.554688 232.777344 6.296875 C 235.738281 7.039062 238.675781 7.851562 241.59375 8.738281 C 244.511719 9.621094 247.40625 10.578125 250.277344 11.605469 C 253.148438 12.632812 255.992188 13.730469 258.8125 14.898438 C 261.628906 16.066406 264.414062 17.304688 267.171875 18.605469 C 269.929688 19.910156 272.652344 21.28125 275.34375 22.722656 C 278.03125 24.160156 280.683594 25.664062 283.300781 27.230469 C 285.917969 28.800781 288.492188 30.429688 291.027344 32.125 C 293.5625 33.820312 296.054688 35.578125 298.503906 37.394531 C 300.953125 39.210938 303.359375 41.089844 305.714844 43.023438 C 308.074219 44.957031 310.382812 46.949219 312.640625 49 C 314.902344 51.046875 317.109375 53.152344 319.265625 55.308594 C 321.421875 57.464844 323.523438 59.675781 325.574219 61.933594 C 327.621094 64.195312 329.613281 66.503906 331.546875 68.863281 C 333.480469 71.222656 335.355469 73.625 337.171875 76.078125 C 338.992188 78.527344 340.746094 81.019531 342.441406 83.558594 C 344.132812 86.09375 345.765625 88.671875 347.332031 91.289062 C 348.902344 93.902344 350.402344 96.558594 351.839844 99.25 C 353.277344 101.9375 354.648438 104.664062 355.953125 107.421875 C 357.257812 110.179688 358.492188 112.96875 359.660156 115.785156 C 360.828125 118.605469 361.925781 121.449219 362.953125 124.320312 C 363.980469 127.195312 364.9375 130.089844 365.820312 133.011719 C 366.707031 135.929688 367.519531 138.867188 368.261719 141.828125 C 369 144.789062 369.667969 147.761719 370.265625 150.753906 C 370.859375 153.746094 371.378906 156.753906 371.828125 159.769531 C 372.277344 162.789062 372.648438 165.816406 372.949219 168.851562 C 373.246094 171.886719 373.472656 174.929688 373.621094 177.976562 C 373.769531 181.023438 373.84375 184.070312 373.84375 187.121094 Z M 373.84375 187.121094 "/>
<path style=" stroke:none;fill-rule:nonzero;fill:rgb(77.249146%,18.818665%,53.729248%);fill-opacity:1;" d="M 149.59375 187.699219 C 149.59375 84.875 166.730469 1.5 187.878906 1.296875 C 187.75 1.296875 187.625 1.285156 187.5 1.285156 C 162.226562 1.285156 138.144531 6.34375 116.167969 15.460938 C 116.195312 15.460938 116.222656 15.449219 116.25 15.449219 C 134.15625 15.449219 148.675781 92.160156 148.675781 186.785156 C 148.675781 276.433594 135.640625 353.242188 119.042969 361.066406 C 140.242188 369.449219 163.320312 374.109375 187.5 374.109375 C 187.625 374.109375 187.75 374.097656 187.878906 374.097656 C 166.730469 373.898438 149.59375 290.523438 149.59375 187.699219 Z M 149.59375 187.699219 "/>
<path style=" stroke:none;fill-rule:nonzero;fill:rgb(100%,42.749023%,38.038635%);fill-opacity:1;" d="M 226.324219 186.785156 C 226.324219 92.160156 240.84375 15.449219 258.75 15.449219 C 258.777344 15.449219 258.800781 15.460938 258.832031 15.460938 C 237.03125 6.414062 213.140625 1.378906 188.078125 1.300781 C 209.207031 1.613281 226.324219 84.941406 226.324219 187.699219 C 226.324219 290.464844 209.207031 373.789062 188.078125 374.101562 C 212.046875 374.027344 234.929688 369.390625 255.960938 361.070312 C 239.359375 353.242188 226.324219 276.4375 226.324219 186.785156 Z M 226.324219 186.785156 "/>
<path style=" stroke:none;fill-rule:nonzero;fill:rgb(63.139343%,9.01947%,94.898987%);fill-opacity:1;" d="M 110.980469 17.734375 C 46.242188 46.949219 1.15625 112.035156 1.15625 187.699219 C 1.15625 262.367188 45.0625 326.753906 108.4375 356.511719 C 94.304688 337.234375 83.824219 267.171875 83.824219 186.785156 C 83.824219 101.644531 95.578125 31.042969 110.980469 17.734375 Z M 110.980469 17.734375 "/>
<path style=" stroke:none;fill-rule:nonzero;fill:rgb(95.689392%,100%,0%);fill-opacity:1;" d="M 373.84375 187.699219 C 373.84375 112.035156 328.761719 46.953125 264.019531 17.734375 C 279.421875 31.042969 291.175781 101.640625 291.175781 186.785156 C 291.175781 267.171875 280.695312 337.234375 266.566406 356.511719 C 329.945312 326.753906 373.84375 262.367188 373.84375 187.699219 Z M 373.84375 187.699219 "/>
<path style=" stroke:none;fill-rule:nonzero;fill:rgb(100%,100%,100%);fill-opacity:1;" d="M 110.980469 17.734375 C 112.699219 16.960938 114.421875 16.183594 116.171875 15.460938 C 114.402344 15.484375 112.671875 16.277344 110.980469 17.734375 Z M 110.980469 17.734375 "/>
<path style=" stroke:none;fill-rule:nonzero;fill:rgb(53.329468%,9.408569%,60.778809%);fill-opacity:1;" d="M 148.679688 186.785156 C 148.679688 92.160156 134.160156 15.449219 116.253906 15.449219 C 116.222656 15.449219 116.195312 15.460938 116.171875 15.460938 C 114.421875 16.183594 112.703125 16.960938 110.980469 17.738281 C 95.578125 31.042969 83.824219 101.644531 83.824219 186.789062 C 83.824219 267.175781 94.304688 337.238281 108.4375 356.511719 C 111.914062 358.144531 115.457031 359.65625 119.042969 361.070312 C 135.644531 353.242188 148.679688 276.4375 148.679688 186.785156 Z M 148.679688 186.785156 "/>
<path style=" stroke:none;fill-rule:nonzero;fill:rgb(100%,100%,100%);fill-opacity:1;" d="M 258.832031 15.460938 C 260.582031 16.183594 262.296875 16.960938 264.015625 17.734375 C 262.332031 16.277344 260.601562 15.484375 258.832031 15.460938 Z M 258.832031 15.460938 "/>
<path style=" stroke:none;fill-rule:nonzero;fill:rgb(99.609375%,58.428955%,31.369019%);fill-opacity:1;" d="M 264.019531 17.734375 C 262.300781 16.960938 260.582031 16.183594 258.832031 15.460938 C 258.800781 15.460938 258.78125 15.449219 258.753906 15.449219 C 240.84375 15.449219 226.324219 92.160156 226.324219 186.785156 C 226.324219 276.433594 239.359375 353.242188 255.960938 361.066406 C 259.550781 359.652344 263.089844 358.140625 266.566406 356.507812 C 280.695312 337.234375 291.175781 267.171875 291.175781 186.785156 C 291.175781 101.644531 279.421875 31.042969 264.019531 17.734375 Z M 264.019531 17.734375 "/>
<path style=" stroke:none;fill-rule:nonzero;fill:rgb(100%,100%,100%);fill-opacity:1;" d="M 187.957031 374.109375 C 187.996094 374.109375 188.039062 374.097656 188.078125 374.097656 C 188.011719 374.097656 187.945312 374.097656 187.878906 374.097656 C 187.90625 374.097656 187.929688 374.109375 187.957031 374.109375 Z M 187.957031 374.109375 "/>
<path style=" stroke:none;fill-rule:nonzero;fill:rgb(100%,100%,100%);fill-opacity:1;" d="M 187.957031 1.285156 C 187.929688 1.285156 187.90625 1.292969 187.878906 1.292969 C 187.945312 1.296875 188.011719 1.300781 188.078125 1.300781 C 188.039062 1.300781 187.996094 1.285156 187.957031 1.285156 Z M 187.957031 1.285156 "/>
<path style=" stroke:none;fill-rule:nonzero;fill:rgb(100%,0.779724%,48.629761%);fill-opacity:1;" d="M 226.324219 187.695312 C 226.324219 84.9375 209.207031 1.128906 188.078125 1.128906 C 188.011719 1.128906 187.945312 1.128906 187.878906 1.128906 C 166.730469 1.128906 149.59375 84.863281 149.59375 187.6875 C 149.59375 290.515625 166.730469 374.246094 187.878906 374.246094 C 187.945312 374.246094 188.011719 374.246094 188.078125 374.246094 C 209.207031 374.246094 226.324219 290.457031 226.324219 187.695312 Z M 226.324219 187.695312 "/>
</g>
</svg>
