<svg width="36" height="33" viewBox="0 0 36 33" fill="none" xmlns="http://www.w3.org/2000/svg">
<path d="M34.7896 16.6003C34.7896 18.9785 34.2712 21.2364 33.3405 23.2663C30.8116 28.7861 25.2388 32.6197 18.7695 32.6197C16.2748 32.6197 13.9139 32.0501 11.8085 31.0329C11.5232 30.8945 11.2424 30.7484 10.9664 30.5941C8.9652 29.4765 7.22893 27.9415 5.87426 26.1071C5.5604 25.6816 5.2664 25.2401 4.99546 24.7844C3.56906 22.3892 2.74933 19.5907 2.74933 16.6003C2.74933 15.3909 2.8836 14.2132 3.1384 13.0807C3.6328 10.8744 4.5824 8.84025 5.88293 7.08185C6.4996 6.24932 7.19413 5.47745 7.95693 4.77998C10.8069 2.17185 14.6028 0.580383 18.7697 0.580383C23.7465 0.580383 28.1931 2.84932 31.1309 6.40932C32.7029 8.31292 33.8425 10.5871 34.4017 13.0801C34.6559 14.2129 34.7896 15.3909 34.7896 16.6003Z" fill="url(#paint0_linear_614_14654)"/>
<path opacity="0.07" d="M34.5605 13.0801C34.5467 21.7016 27.5532 28.6854 18.9285 28.6854C10.3041 28.6854 3.31132 21.7016 3.29639 13.0806C3.79105 10.8744 4.74039 8.84025 6.04119 7.08185C6.65785 6.24931 7.35292 5.47745 8.11532 4.77998C10.9655 2.17185 14.7616 0.580383 18.9285 0.580383C23.9051 0.580383 28.3517 2.84932 31.2897 6.40931C32.8616 8.31345 34.0013 10.5869 34.5605 13.0801Z" fill="#CBA5F1"/>
<path opacity="0.33" d="M34.7896 16.6003C34.7896 18.9786 34.2712 21.2364 33.3405 23.2663C30.8116 28.7862 25.2388 32.6198 18.7695 32.6198C16.2748 32.6198 13.9139 32.0502 11.8085 31.033C11.5232 30.8946 11.2424 30.7484 10.9664 30.5942C8.9652 29.4766 7.22893 27.9415 5.87426 26.1071C5.5604 25.6816 5.2664 25.2402 4.99546 24.7844C3.56906 22.3892 2.74933 19.5907 2.74933 16.6003C2.74933 13.0359 3.91466 9.74375 5.88293 7.08229C9.408 4.11402 13.9597 2.32562 18.9285 2.32562C23.51 2.32562 27.7373 3.84589 31.1311 6.40922C33.4168 9.17909 34.7896 12.7288 34.7896 16.6003Z" fill="url(#paint1_linear_614_14654)"/>
<path opacity="0.18" d="M34.7896 16.6003C34.7896 18.9786 34.2712 21.2375 33.3405 23.2663C30.8116 28.7861 25.2388 32.6198 18.7694 32.6198C16.2748 32.6198 13.9138 32.0501 11.8085 31.0329C11.5232 30.896 11.2424 30.7484 10.9664 30.5941C10.9293 30.5737 10.8917 30.5519 10.8546 30.5311C10.8468 30.5263 10.8386 30.5227 10.8302 30.5174C10.8074 30.5046 10.7842 30.4915 10.762 30.4775C10.7366 30.4648 10.712 30.4489 10.687 30.4339C10.6248 30.3983 10.5618 30.3609 10.5004 30.3229C13.8084 32.0391 24.4428 30.0241 28.992 22.1588C31.9908 16.9748 33.4338 10.3552 31.1673 6.45428C31.2238 6.54988 31.2905 6.63202 31.3669 6.70095C33.5108 9.42655 34.7896 12.864 34.7896 16.6003Z" fill="url(#paint2_linear_614_14654)"/>
<path opacity="0.17" d="M5.70173 19.0989C5.70173 24.5515 6.43733 27.5059 10.6073 30.3871C8.75773 29.2912 7.14719 27.8316 5.87439 26.1076C5.56053 25.6815 5.26653 25.24 4.99559 24.7843C3.56919 22.3903 2.74933 19.5909 2.74933 16.6008C2.74933 15.3908 2.8836 14.2136 3.1384 13.0805C3.63279 10.8745 4.58239 8.84094 5.88293 7.08214C6.49959 6.24907 7.19413 5.47761 7.95693 4.78014C10.8069 2.17201 14.6028 0.580139 18.7697 0.580139C22.6555 0.580139 26.2185 1.96334 28.992 4.26454C28.992 4.26454 25.1509 3.12761 21.6733 3.12761C12.8525 3.12774 5.70173 10.278 5.70173 19.0989Z" fill="url(#paint3_linear_614_14654)"/>
<path opacity="0.3" d="M6.68504 27.1169C6.68504 27.1169 8.10758 28.1172 10.2792 27.5445L12.6072 27.5179L10.8098 28.8496L6.89638 29.342L6.45691 28.396L6.68504 27.1169Z" fill="#2B013A"/>
<path opacity="0.3" d="M22.4348 19.5647C22.4348 19.5647 22.7242 20.5506 22.3292 21.0515C21.781 21.7482 19.4346 23.332 18.212 23.877L18.7696 24.0832L20.7966 23.7571L23.35 22.1392L23.9621 20.8608L22.4348 19.5647Z" fill="#2B013A"/>
<path opacity="0.3" d="M25.2988 24.7472C25.2876 24.7371 24.7449 24.2629 23.8353 24.7472C23.8353 24.7472 14.5376 30.2616 11.8085 31.0331C11.5232 30.8947 11.2424 30.7485 10.9664 30.5943L10.81 30.2332L15.4959 27.6507L24.618 23.0447L25.2988 24.7472Z" fill="#2B013A"/>
<path opacity="0.3" d="M26.2118 7.9624C26.2118 7.9624 26.705 9.5864 25.3716 10.7017C24.6046 11.3435 23.2902 12.1421 20.7965 13.7225L23.1634 14.0195L25.0538 13.1677L28.0889 10.5588L26.2118 7.9624Z" fill="#2B013A"/>
<path opacity="0.3" d="M30.3267 15.4087C30.3267 15.4087 29.7515 14.6163 27.7412 15.6944C27.7412 15.6944 14.1645 23.976 5.87441 26.107C5.56014 25.6815 5.26654 25.24 4.99561 24.7843L29.5269 12.9375L30.3267 15.4087Z" fill="#2B013A"/>
<path opacity="0.3" d="M3.21894 12.735C3.21894 12.735 3.97987 13.6098 5.55867 13.3628C8.60027 12.8872 7.30227 13.4873 7.30227 13.4873L6.25801 14.4717L4.78641 14.8116C4.78641 14.8116 4.35441 15.1041 3.92134 14.9112C3.48881 14.7185 3.79441 15.5836 3.50267 14.7781C3.20921 13.9734 3.21947 14.0262 3.21947 14.0262L3.00281 13.1096L3.21894 12.735Z" fill="#2B013A"/>
<path opacity="0.3" d="M18.6736 4.98828C18.6736 4.98828 18.9285 6.13255 18.0608 6.85788C17.5023 7.32508 15.8799 8.45922 15.0711 8.97015C13.5831 9.91002 19.4496 7.83882 19.4496 7.83882L20.0749 6.26748L19.3431 5.57535L18.6736 4.98828Z" fill="#2B013A"/>
<path opacity="0.3" d="M21.5352 8.34174V10.1705C21.472 10.0921 21.395 10.0295 21.3157 9.9712C20.7948 9.58627 20.0529 10.1379 19.5008 10.4983C17.452 11.836 13.5125 14.1521 7.54171 16.6617C5.32051 17.5948 3.71478 17.8533 2.78731 17.7399C2.76944 17.4873 2.75744 17.2337 2.75171 16.9784L7.34264 15.1835L13.0909 12.9368L21.5352 8.34174Z" fill="#2B013A"/>
<path d="M24.618 5.00812L24.2858 5.26132C24.1746 5.34598 24.0648 5.43092 23.9517 5.51238C23.7269 5.67612 23.5042 5.84332 23.2749 6.00158L22.9329 6.24198C22.819 6.32185 22.7029 6.39945 22.5882 6.47798C22.4726 6.55612 22.3584 6.63492 22.2424 6.71252L21.8941 6.94252C20.9612 7.55225 20.0101 8.13425 19.0473 8.69545C17.1214 9.81598 15.1456 10.8511 13.1433 11.8291L12.7678 12.012L12.3912 12.192C12.14 12.3132 11.8872 12.4305 11.6356 12.5486C11.3832 12.6678 11.1304 12.7832 10.8777 12.9009L10.497 13.0741C10.3706 13.1316 10.244 13.189 10.1165 13.2458C9.09864 13.7005 8.07611 14.1424 7.04117 14.557C6.52451 14.7641 6.00504 14.966 5.48104 15.1564C5.35011 15.203 5.21957 15.2524 5.08624 15.2953C4.95317 15.3385 4.81798 15.3749 4.68038 15.4037C4.54331 15.432 4.40411 15.4522 4.26371 15.46C4.12357 15.4676 3.98184 15.4649 3.84277 15.4424C3.77331 15.4329 3.70411 15.4166 3.63651 15.3964C3.56891 15.3768 3.50344 15.3509 3.43904 15.3208C3.31211 15.2602 3.19544 15.1753 3.09891 15.0732C3.00197 14.9697 2.92651 14.8484 2.87117 14.7186C2.81704 14.5897 2.78411 14.4513 2.76784 14.312C2.76091 14.2428 2.75677 14.1729 2.75677 14.1028C2.75731 14.0333 2.76197 13.9629 2.76877 13.8937C2.78411 13.7552 2.81317 13.6177 2.85331 13.4837C2.93357 13.2166 3.05984 12.9634 3.21877 12.7356C3.06277 12.9661 2.94051 13.2196 2.86451 13.4873C2.78811 13.7537 2.75464 14.0352 2.78904 14.3102C2.80584 14.4474 2.84064 14.5821 2.89491 14.709C2.94997 14.8352 3.02544 14.9532 3.12037 15.052C3.21517 15.1508 3.32891 15.2322 3.45397 15.2894C3.51637 15.3184 3.58011 15.3432 3.64651 15.3617C3.71251 15.3798 3.77984 15.3946 3.84797 15.404C3.98437 15.4245 4.12264 15.4258 4.26024 15.4173C4.39824 15.4089 4.53491 15.3882 4.67077 15.3598C4.80584 15.3304 4.93944 15.2938 5.07077 15.2501C5.20237 15.2074 5.33251 15.1572 5.46251 15.1096C5.98464 14.9162 6.50198 14.7106 7.01811 14.5001L7.40397 14.3416L7.78877 14.1802C7.91784 14.1265 8.04504 14.0711 8.17371 14.0163C8.30158 13.9621 8.42984 13.908 8.55691 13.8525L8.93998 13.6864C9.06758 13.6305 9.19491 13.5736 9.32198 13.5181C9.57704 13.4057 9.83051 13.2913 10.0846 13.1774C11.0993 12.7204 12.1072 12.2458 13.1081 11.7578C14.1089 11.27 15.1025 10.7681 16.0884 10.2493C17.0745 9.73225 18.0505 9.19652 19.0162 8.64278C19.9818 8.08852 20.9357 7.51265 21.8718 6.90998L22.2229 6.68425C22.3397 6.60838 22.4553 6.53065 22.571 6.45305C22.6869 6.37625 22.8036 6.29985 22.9186 6.22132L23.2624 5.98465C23.4938 5.82905 23.7176 5.66398 23.9454 5.50318C24.0593 5.42358 24.1704 5.33985 24.2825 5.25678L24.618 5.00812Z" fill="url(#paint4_linear_614_14654)"/>
<path opacity="0.3" d="M2.9416 19.0907C2.9416 19.0907 4.48667 21.0812 7.40307 19.8657C11.9775 17.9576 14.1115 19.0339 14.1115 19.0339L9.79827 21.3608L3.68853 23.7574L2.8496 22.9587L2.65027 20.9812" fill="#2B013A"/>
<path d="M26.2119 7.96295L27.2665 9.87095C27.2665 9.87095 26.0832 11.3184 12.9395 17.6453L5.54 20.6128C4.38426 21.0766 3.1 20.3256 2.9416 19.0907C2.9404 19.0804 2.93946 19.0712 2.93773 19.0617C2.93773 19.0617 2.308 19.2672 1.72653 20.0217C1.55333 20.246 1.4132 20.4946 1.30333 20.755C0.781063 22.0007 0.91733 23.6086 1.7672 24.6792C2.56986 25.6935 3.81093 25.8084 4.9956 25.6067C7.53426 25.166 9.91439 24.0891 12.2565 23.0544C21.2075 19.096 27.3311 15.12 29.3341 13.614L30.3264 15.4087L35.4275 7.11041L26.2119 7.96295Z" fill="#F757A1"/>
<path d="M24.618 5.00813L21.5375 10.1707L20.8556 8.93652C19.4779 9.97252 15.268 12.7053 9.1144 15.4269C7.50386 16.1389 5.86786 16.8787 4.12226 17.1817C3.30826 17.3197 2.45506 17.2421 1.90266 16.5452C1.3184 15.8075 1.22493 14.7023 1.58386 13.8469C1.65973 13.6676 1.756 13.4964 1.87466 13.3423C2.27466 12.824 3.22053 12.7288 3.21866 12.7355C3.05893 13.4376 4.28613 13.8861 4.98786 13.5984L9.5836 11.708C18.0512 7.72786 19.3713 6.25319 19.3713 6.25319L18.6727 4.98853L24.618 5.00813Z" fill="#F757A1"/>
<path d="M24.618 5.00814C18.8051 9.47348 9.00296 13.8739 5.21696 15.226C2.75016 16.1071 2.28096 14.1128 3.20856 12.7511C3.21549 12.7409 3.21896 12.7349 3.21896 12.7349C3.06003 13.4367 4.28709 13.8857 4.98829 13.5973L9.58416 11.7076C13.6832 9.78014 16.1079 8.44068 17.5182 7.57148C19.0211 6.64521 19.3723 6.25281 19.3723 6.25281L18.6732 4.98761L24.618 5.00814Z" fill="url(#paint5_linear_614_14654)"/>
<path d="M35.4284 7.11029C34.8363 7.61949 34.2213 8.10282 33.5951 8.57016C32.8996 9.09029 32.1883 9.58869 31.468 10.0739C30.6917 10.5972 29.9036 11.1035 29.1093 11.5988C28.2732 12.1186 27.4301 12.6248 26.5795 13.1211C25.7065 13.6312 24.8276 14.1299 23.9433 14.62C23.0539 15.1127 22.16 15.5963 21.2607 16.0723C20.3763 16.5399 19.4879 17.0016 18.5951 17.4542C17.7365 17.8915 16.8745 18.3228 16.0095 18.7468C15.1968 19.1454 14.3823 19.5368 13.5649 19.9247C12.8205 20.2766 12.0733 20.6243 11.3244 20.9646C10.6679 21.2644 10.0103 21.5587 9.3492 21.8479C8.80227 22.085 8.25427 22.3208 7.7024 22.5487C7.28587 22.7188 6.86814 22.8867 6.44694 23.0446C5.99414 23.2127 5.5316 23.3715 5.0512 23.436C4.61707 23.4951 4.1436 23.4759 3.7344 23.3118C1.36867 22.3602 2.9412 19.0907 2.9412 19.0907C3.09907 20.3256 4.38414 21.0759 5.5396 20.6128L12.9385 17.6454C22.2136 13.1807 25.5329 11.1458 26.6836 10.3347C27.1631 9.99629 27.2657 9.87082 27.2657 9.87082L26.2112 7.96229L35.4284 7.11029Z" fill="url(#paint6_linear_614_14654)"/>
<path d="M28.3789 19.5845L25.2988 24.7472L24.6167 23.512C23.2397 24.5492 19.0296 27.2816 12.8767 30.0039C11.2656 30.7155 10.0673 31.4463 8.32147 31.7488C7.5072 31.8883 6.21694 31.8177 5.66494 31.1209C5.08054 30.3835 4.98707 29.2787 5.34654 28.4228C5.42147 28.2432 5.51854 28.0713 5.6372 27.9189C6.0372 27.3991 6.6804 27.1123 6.68547 27.1169C7.4512 27.8593 8.03187 28.2808 9.45027 27.8848L13.3449 26.284C21.8129 22.3035 23.1343 20.8288 23.1343 20.8288L22.4349 19.5641L28.3789 19.5845Z" fill="#F757A1"/>
<path d="M28.379 19.5845C27.7078 20.065 27.0219 20.527 26.3296 20.9766C25.605 21.4457 24.8708 21.8997 24.1302 22.3421C23.3766 22.7925 22.6151 23.2306 21.8484 23.6598C21.0872 24.0866 20.3203 24.5014 19.5495 24.91C18.8027 25.3041 18.0523 25.6905 17.2984 26.0697C16.5888 26.4253 15.8767 26.7757 15.1612 27.1181C14.5104 27.4301 13.8579 27.7358 13.2022 28.0362C12.6336 28.2952 12.0624 28.55 11.4886 28.7986C11.0235 29.0014 10.556 29.1994 10.0859 29.3904C9.71509 29.54 9.34136 29.6874 8.96402 29.8213C8.73629 29.902 8.49869 29.9558 8.25816 29.9798C8.04309 30.001 7.76482 30.0301 7.55722 29.961C5.97322 29.4348 6.68496 27.1166 6.68496 27.1166C7.45109 27.8598 8.03176 28.2817 9.45002 27.8857L13.3452 26.2837C17.8095 24.1861 20.2872 22.7838 21.6324 21.9268C22.8384 21.1589 23.1339 20.8293 23.1339 20.8293L22.4346 19.5645L28.379 19.5845Z" fill="url(#paint7_linear_614_14654)"/>
<defs>
<linearGradient id="paint0_linear_614_14654" x1="7.54622" y1="-8.85419" x2="34.2033" y2="51.6021" gradientUnits="userSpaceOnUse">
<stop offset="0.156" stop-color="#AB5CE9"/>
<stop offset="0.7258" stop-color="#5106D0"/>
</linearGradient>
<linearGradient id="paint1_linear_614_14654" x1="8.95612" y1="-6.81208" x2="24.7998" y2="30.9863" gradientUnits="userSpaceOnUse">
<stop offset="0.2419" stop-color="#DE6BF0"/>
<stop offset="1" stop-color="#341A5A"/>
</linearGradient>
<linearGradient id="paint2_linear_614_14654" x1="12.1646" y1="-0.0473822" x2="28.7332" y2="34.2092" gradientUnits="userSpaceOnUse">
<stop offset="0.2419" stop-color="#DE6BF0"/>
<stop offset="1" stop-color="#341A5A"/>
</linearGradient>
<linearGradient id="paint3_linear_614_14654" x1="21.829" y1="19.7086" x2="-38.8349" y2="-40.9553" gradientUnits="userSpaceOnUse">
<stop offset="0.156" stop-color="#E09DE9"/>
<stop offset="0.7258" stop-color="#5106D0"/>
</linearGradient>
<linearGradient id="paint4_linear_614_14654" x1="13.8053" y1="9.25193" x2="-12.566" y2="23.8059" gradientUnits="userSpaceOnUse">
<stop offset="0.0822" stop-color="#31B5ED"/>
<stop offset="0.7448" stop-color="#5045DD"/>
</linearGradient>
<linearGradient id="paint5_linear_614_14654" x1="-2.24008" y1="15.8406" x2="32.7675" y2="1.73198" gradientUnits="userSpaceOnUse">
<stop stop-color="#ED1E79"/>
<stop offset="0.3082" stop-color="#F02D94"/>
<stop offset="0.9664" stop-color="#F755D7"/>
<stop offset="1" stop-color="#F757DB"/>
</linearGradient>
<linearGradient id="paint6_linear_614_14654" x1="-16.2314" y1="29.1479" x2="59.2912" y2="-2.46446" gradientUnits="userSpaceOnUse">
<stop stop-color="#ED1E79"/>
<stop offset="0.3082" stop-color="#F02D94"/>
<stop offset="0.9664" stop-color="#F755D7"/>
<stop offset="1" stop-color="#F757DB"/>
</linearGradient>
<linearGradient id="paint7_linear_614_14654" x1="-7.67687" y1="32.0056" x2="44.9084" y2="15.5585" gradientUnits="userSpaceOnUse">
<stop stop-color="#ED1E79"/>
<stop offset="0.3082" stop-color="#F02D94"/>
<stop offset="0.9664" stop-color="#F755D7"/>
<stop offset="1" stop-color="#F757DB"/>
</linearGradient>
</defs>
</svg>
