<?xml version="1.0" encoding="utf-8"?>
<!-- Generator: Adobe Illustrator 16.0.0, SVG Export Plug-In . SVG Version: 6.00 Build 0)  -->
<!DOCTYPE svg PUBLIC "-//W3C//DTD SVG 1.1//EN" "http://www.w3.org/Graphics/SVG/1.1/DTD/svg11.dtd">
<svg version="1.1" id="Layer_1" xmlns="http://www.w3.org/2000/svg" xmlns:xlink="http://www.w3.org/1999/xlink" x="0px" y="0px"
	 width="800px" height="600px" viewBox="0 0 800 600" enable-background="new 0 0 800 600" xml:space="preserve">
<g>
	<circle fill="#FF6E62" cx="400" cy="299.67" r="108.914"/>
	<path fill="#C53089" d="M377.844,300.006c0-60.076,10.017-108.788,22.377-108.908c-0.074,0-0.147-0.006-0.221-0.006
		c-14.771,0-28.848,2.955-41.691,8.282c0.015,0,0.031-0.007,0.048-0.007c10.466,0,18.952,44.819,18.952,100.105
		c0,52.38-7.619,97.255-17.321,101.827c12.391,4.897,25.88,7.619,40.012,7.619c0.074,0,0.147-0.006,0.221-0.006
		C387.861,408.795,377.844,360.083,377.844,300.006z"/>
	<path fill="#FF6D61" d="M422.691,299.473c0-55.286,8.486-100.105,18.953-100.105c0.016,0,0.029,0.007,0.047,0.007
		c-12.742-5.287-26.705-8.229-41.354-8.273c12.351,0.182,22.354,48.867,22.354,108.905c0,60.041-10.004,108.724-22.354,108.907
		c14.011-0.042,27.384-2.752,39.677-7.613C430.311,396.728,422.691,351.853,422.691,299.473z"/>
	<path fill="#A117F2" d="M355.277,200.704c-37.838,17.069-64.19,55.095-64.19,99.302c0,43.627,25.661,81.245,62.703,98.631
		c-8.261-11.262-14.386-52.197-14.386-99.164C339.404,249.728,346.274,208.479,355.277,200.704z"/>
	<path fill="#F4FF00" d="M508.914,300.006c0-44.207-26.35-82.232-64.191-99.302c9.004,7.774,15.873,49.023,15.873,98.769
		c0,46.967-6.125,87.902-14.383,99.164C483.256,381.251,508.914,343.633,508.914,300.006z"/>
	<path fill="#FFFFFF" d="M355.277,200.704c1.004-0.453,2.01-0.907,3.033-1.33C357.276,199.388,356.264,199.851,355.277,200.704z"/>
	<path fill="#88189B" d="M377.31,299.473c0-55.286-8.486-100.105-18.952-100.105c-0.017,0-0.033,0.007-0.048,0.007
		c-1.022,0.423-2.028,0.877-3.033,1.33c-9.003,7.774-15.873,49.023-15.873,98.769c0,46.967,6.125,87.902,14.386,99.164
		c2.031,0.953,4.102,1.836,6.199,2.663C369.691,396.728,377.31,351.853,377.31,299.473z"/>
	<path fill="#FFFFFF" d="M441.691,199.374c1.023,0.423,2.027,0.877,3.031,1.33C443.738,199.851,442.725,199.388,441.691,199.374z"/>
	<path fill="#FE9550" d="M444.723,200.704c-1.004-0.453-2.008-0.907-3.031-1.33c-0.018,0-0.031-0.007-0.047-0.007
		c-10.467,0-18.953,44.819-18.953,100.105c0,52.38,7.619,97.255,17.322,101.827c2.098-0.827,4.166-1.71,6.199-2.663
		c8.258-11.262,14.383-52.197,14.383-99.164C460.596,249.728,453.727,208.479,444.723,200.704z"/>
	<path fill="#FFFFFF" d="M400.267,408.919c0.023,0,0.047-0.006,0.07-0.006c-0.038,0-0.076,0-0.115,0
		C400.237,408.913,400.252,408.919,400.267,408.919z"/>
	<path fill="#FFFFFF" d="M400.267,191.092c-0.015,0-0.03,0.006-0.045,0.006c0.039,0.001,0.077,0.003,0.115,0.003
		C400.314,191.101,400.29,191.092,400.267,191.092z"/>
	<path fill="#FF027C" d="M422.691,300.004c0-60.037-10.004-109.004-22.354-109.004c-0.038,0-0.076,0-0.115,0
		c-12.361,0-22.377,48.924-22.377,109.001S387.861,409,400.222,409c0.039,0,0.077,0,0.115,0
		C412.688,409,422.691,360.044,422.691,300.004z"/>
</g>
</svg>
