<svg width="1440" height="486" viewBox="0 0 1440 486" fill="none" xmlns="http://www.w3.org/2000/svg">
<rect width="1440" height="486" fill="#2D0087"/>
<mask id="mask0_614_23334" style="mask-type:alpha" maskUnits="userSpaceOnUse" x="0" y="0" width="1440" height="486">
<rect width="1440" height="486" fill="#2D0087"/>
</mask>
<g mask="url(#mask0_614_23334)">
<path d="M1169.62 473.363L1186.43 457.614C1186.43 457.614 1204.33 465.986 1303.22 584.259L1352.8 652.382C1360.55 663.024 1356.18 678.127 1343.94 682.951C1343.84 682.99 1343.74 683.024 1343.65 683.065C1343.65 683.065 1347.39 688.983 1356.63 692.986C1359.37 694.18 1362.28 694.972 1365.24 695.422C1379.35 697.548 1395.48 691.983 1404.25 680.499C1412.56 669.647 1410.52 656.632 1405.38 645.018C1394.29 620.15 1377.08 598.553 1360.41 577.237C1296.66 495.785 1240.05 443.347 1219.43 426.729L1235.24 411.91L1137 381.151L1169.62 473.363Z" fill="#3703A0"/>
<path d="M1337.62 482.363L1354.43 466.614C1354.43 466.614 1372.33 474.986 1471.22 593.259L1520.8 661.382C1528.55 672.024 1524.18 687.127 1511.94 691.951C1511.84 691.99 1511.74 692.024 1511.65 692.065C1511.65 692.065 1515.39 697.983 1524.63 701.986C1527.37 703.18 1530.28 703.972 1533.24 704.422C1547.35 706.548 1563.48 700.983 1572.25 689.499C1580.56 678.647 1578.52 665.632 1573.38 654.018C1562.29 629.15 1545.08 607.553 1528.41 586.237C1464.66 504.785 1408.05 452.347 1387.43 435.729L1403.24 420.91L1305 390.151L1337.62 482.363Z" fill="#3703A0"/>
<path d="M1355.62 330.363L1372.43 314.614C1372.43 314.614 1390.33 322.986 1489.22 441.259L1538.8 509.382C1546.55 520.024 1542.18 535.127 1529.94 539.951C1529.84 539.99 1529.74 540.024 1529.65 540.065C1529.65 540.065 1533.39 545.983 1542.63 549.986C1545.37 551.18 1548.28 551.972 1551.24 552.422C1565.35 554.548 1581.48 548.983 1590.25 537.499C1598.56 526.647 1596.52 513.632 1591.38 502.018C1580.29 477.15 1563.08 455.553 1546.41 434.237C1482.66 352.785 1426.05 300.347 1405.43 283.729L1421.24 268.91L1323 238.151L1355.62 330.363Z" fill="#3703A0"/>
</g>
</svg>
