<svg width="375" height="984" viewBox="0 0 375 984" fill="none" xmlns="http://www.w3.org/2000/svg">
<rect width="375" height="984" fill="#2D0087"/>
<mask id="mask0_635_25671" style="mask-type:alpha" maskUnits="userSpaceOnUse" x="0" y="498" width="375" height="486">
<rect y="498" width="375" height="486" fill="#2D0087"/>
</mask>
<g mask="url(#mask0_635_25671)">
<path d="M104.62 971.363L121.433 955.614C121.433 955.614 139.33 963.986 238.219 1082.26L287.802 1150.38C295.547 1161.02 291.181 1176.13 278.941 1180.95C278.839 1180.99 278.745 1181.02 278.655 1181.06C278.655 1181.06 282.393 1186.98 291.631 1190.99C294.374 1192.18 297.285 1192.97 300.242 1193.42C314.355 1195.55 330.478 1189.98 339.247 1178.5C347.558 1167.65 345.518 1154.63 340.38 1143.02C329.286 1118.15 312.082 1096.55 295.413 1075.24C231.658 993.785 175.05 941.347 154.426 924.729L170.242 909.91L72.0001 879.151L104.62 971.363Z" fill="#3703A0"/>
<path d="M272.62 980.363L289.433 964.614C289.433 964.614 307.33 972.986 406.219 1091.26L455.802 1159.38C463.547 1170.02 459.181 1185.13 446.941 1189.95C446.839 1189.99 446.745 1190.02 446.655 1190.06C446.655 1190.06 450.393 1195.98 459.631 1199.99C462.374 1201.18 465.285 1201.97 468.242 1202.42C482.355 1204.55 498.478 1198.98 507.247 1187.5C515.558 1176.65 513.518 1163.63 508.38 1152.02C497.286 1127.15 480.082 1105.55 463.413 1084.24C399.658 1002.79 343.05 950.347 322.426 933.729L338.242 918.91L240 888.151L272.62 980.363Z" fill="#3703A0"/>
<path d="M290.62 828.363L307.433 812.614C307.433 812.614 325.33 820.986 424.219 939.259L473.802 1007.38C481.547 1018.02 477.181 1033.13 464.941 1037.95C464.839 1037.99 464.745 1038.02 464.655 1038.06C464.655 1038.06 468.393 1043.98 477.631 1047.99C480.374 1049.18 483.285 1049.97 486.242 1050.42C500.355 1052.55 516.478 1046.98 525.247 1035.5C533.558 1024.65 531.518 1011.63 526.38 1000.02C515.286 975.15 498.082 953.553 481.413 932.237C417.658 850.785 361.05 798.347 340.426 781.729L356.242 766.91L258 736.151L290.62 828.363Z" fill="#3703A0"/>
</g>
</svg>
