<svg width="231" height="39" viewBox="0 0 231 39" fill="none" xmlns="http://www.w3.org/2000/svg">
<path d="M86.2583 13.552H72.7163V17.545H82.3461C81.8647 23.1715 77.1701 25.652 72.7765 25.652C67.119 25.652 62.1837 21.175 62.1837 14.9435C62.1837 8.83299 66.8782 4.11399 72.7765 4.11399C77.3507 4.11399 79.9989 7.01799 79.9989 7.01799L82.7675 4.11399C82.7675 4.11399 79.1563 0.120991 72.5959 0.120991C64.23 0.0604905 57.79 7.13899 57.79 14.8225C57.79 22.3245 63.8689 29.645 72.8367 29.645C80.7211 29.645 86.499 24.2605 86.499 16.214C86.499 14.52 86.2583 13.552 86.2583 13.552Z" fill="#DFDFDF"/>
<path fill-rule="evenodd" clip-rule="evenodd" d="M87.7627 20.0255C87.7627 14.9435 91.735 10.5875 97.2722 10.5875C101.846 10.5875 106.782 13.8545 106.842 20.1465C106.842 25.7125 102.629 29.645 97.3925 29.645C91.6146 29.645 87.7627 25.2285 87.7627 20.0255ZM102.629 20.1465C102.629 16.6375 100.041 14.399 97.3324 14.399C94.2628 14.399 91.9156 16.819 91.9758 20.086C91.9758 23.474 94.323 25.894 97.3324 25.894C100.101 25.894 102.629 23.6555 102.629 20.1465Z" fill="#DFDFDF"/>
<path fill-rule="evenodd" clip-rule="evenodd" d="M108.467 20.0255C108.467 14.9435 112.439 10.5875 117.976 10.5875C122.55 10.5875 127.486 13.8545 127.546 20.1465C127.546 25.7125 123.333 29.645 118.097 29.645C112.319 29.645 108.467 25.2285 108.467 20.0255ZM123.333 20.1465C123.333 16.6375 120.745 14.399 118.036 14.399C114.967 14.399 112.62 16.819 112.68 20.086C112.68 23.474 115.027 25.894 118.036 25.894C120.805 25.894 123.333 23.6555 123.333 20.1465Z" fill="#DFDFDF"/>
<path fill-rule="evenodd" clip-rule="evenodd" d="M129.171 20.1465C129.171 15.125 133.143 10.648 138.259 10.648C140.486 10.648 142.171 11.495 143.255 12.826V11.1925H147.227V28.314C147.227 35.0295 143.375 38.236 138.319 38.236C133.685 38.236 131.097 35.3925 129.833 32.67L133.504 31.1575C134.046 32.3675 135.49 34.5455 138.379 34.5455C141.389 34.5455 143.375 32.549 143.375 29.282V27.4065C142.231 28.677 140.847 29.7055 138.139 29.7055C133.805 29.7055 129.171 25.8335 129.171 20.1465ZM143.676 20.207C143.676 16.577 141.088 14.399 138.621 14.399C135.972 14.399 133.384 16.5165 133.324 20.2675C133.324 23.716 135.852 25.9545 138.56 25.9545C141.148 25.9545 143.676 23.958 143.676 20.207Z" fill="#DFDFDF"/>
<path fill-rule="evenodd" clip-rule="evenodd" d="M156.195 20.086C156.195 14.399 160.228 10.5875 165.043 10.5875C168.774 10.5875 171.603 13.1285 172.867 16.0325L173.529 17.6055L160.83 22.9295C161.612 24.3815 162.816 25.8335 165.464 25.8335C167.811 25.8335 169.256 24.563 170.098 23.232L173.409 25.4705C171.964 27.4065 169.436 29.645 165.464 29.645C160.709 29.645 156.195 26.0755 156.195 20.086ZM168.714 16.335C168.112 15.1855 166.908 14.278 165.163 14.278C162.454 14.278 159.806 17.1215 160.288 19.9045L168.714 16.335Z" fill="#DFDFDF"/>
<path d="M150.177 29.1005H154.33V1.0285H150.177V29.1005Z" fill="#DFDFDF"/>
</svg>
