<svg width="196" height="33" viewBox="0 0 196 33" fill="none" xmlns="http://www.w3.org/2000/svg">
<path d="M34.7896 16.6003C34.7896 18.9785 34.2712 21.2364 33.3405 23.2663C30.8116 28.7861 25.2388 32.6197 18.7695 32.6197C16.2748 32.6197 13.9139 32.0501 11.8085 31.0329C11.5232 30.8945 11.2424 30.7484 10.9664 30.5941C8.9652 29.4765 7.22893 27.9415 5.87426 26.1071C5.5604 25.6816 5.2664 25.2401 4.99546 24.7844C3.56906 22.3892 2.74933 19.5907 2.74933 16.6003C2.74933 15.3909 2.8836 14.2132 3.1384 13.0807C3.6328 10.8744 4.5824 8.84025 5.88293 7.08185C6.4996 6.24932 7.19413 5.47745 7.95693 4.77998C10.8069 2.17185 14.6028 0.580383 18.7697 0.580383C23.7465 0.580383 28.1931 2.84932 31.1309 6.40932C32.7029 8.31292 33.8425 10.5871 34.4017 13.0801C34.6559 14.2129 34.7896 15.3909 34.7896 16.6003Z" fill="url(#paint0_linear_614_14653)"/>
<path opacity="0.07" d="M34.5605 13.0801C34.5467 21.7016 27.5532 28.6854 18.9285 28.6854C10.3041 28.6854 3.31132 21.7016 3.29639 13.0806C3.79105 10.8744 4.74039 8.84025 6.04119 7.08185C6.65785 6.24931 7.35292 5.47745 8.11532 4.77998C10.9655 2.17185 14.7616 0.580383 18.9285 0.580383C23.9051 0.580383 28.3517 2.84932 31.2897 6.40931C32.8616 8.31345 34.0013 10.5869 34.5605 13.0801Z" fill="#CBA5F1"/>
<path opacity="0.33" d="M34.7896 16.6003C34.7896 18.9786 34.2712 21.2364 33.3405 23.2663C30.8116 28.7862 25.2388 32.6198 18.7695 32.6198C16.2748 32.6198 13.9139 32.0502 11.8085 31.033C11.5232 30.8946 11.2424 30.7484 10.9664 30.5942C8.9652 29.4766 7.22893 27.9415 5.87426 26.1071C5.5604 25.6816 5.2664 25.2402 4.99546 24.7844C3.56906 22.3892 2.74933 19.5907 2.74933 16.6003C2.74933 13.0359 3.91466 9.74375 5.88293 7.08229C9.408 4.11402 13.9597 2.32562 18.9285 2.32562C23.51 2.32562 27.7373 3.84589 31.1311 6.40922C33.4168 9.17909 34.7896 12.7288 34.7896 16.6003Z" fill="url(#paint1_linear_614_14653)"/>
<path opacity="0.18" d="M34.7896 16.6003C34.7896 18.9786 34.2712 21.2375 33.3405 23.2663C30.8116 28.7861 25.2388 32.6198 18.7694 32.6198C16.2748 32.6198 13.9138 32.0501 11.8085 31.0329C11.5232 30.896 11.2424 30.7484 10.9664 30.5941C10.9293 30.5737 10.8917 30.5519 10.8546 30.5311C10.8468 30.5263 10.8386 30.5227 10.8302 30.5174C10.8074 30.5046 10.7842 30.4915 10.762 30.4775C10.7366 30.4648 10.712 30.4489 10.687 30.4339C10.6248 30.3983 10.5618 30.3609 10.5004 30.3229C13.8084 32.0391 24.4428 30.0241 28.992 22.1588C31.9908 16.9748 33.4338 10.3552 31.1673 6.45428C31.2238 6.54988 31.2905 6.63202 31.3669 6.70095C33.5108 9.42655 34.7896 12.864 34.7896 16.6003Z" fill="url(#paint2_linear_614_14653)"/>
<path opacity="0.17" d="M5.70173 19.0989C5.70173 24.5515 6.43733 27.5059 10.6073 30.3871C8.75773 29.2912 7.14719 27.8316 5.87439 26.1076C5.56053 25.6815 5.26653 25.24 4.99559 24.7843C3.56919 22.3903 2.74933 19.5909 2.74933 16.6008C2.74933 15.3908 2.8836 14.2136 3.1384 13.0805C3.63279 10.8745 4.58239 8.84094 5.88293 7.08214C6.49959 6.24907 7.19413 5.47761 7.95693 4.78014C10.8069 2.17201 14.6028 0.580139 18.7697 0.580139C22.6555 0.580139 26.2185 1.96334 28.992 4.26454C28.992 4.26454 25.1509 3.12761 21.6733 3.12761C12.8525 3.12774 5.70173 10.278 5.70173 19.0989Z" fill="url(#paint3_linear_614_14653)"/>
<path opacity="0.3" d="M6.68504 27.1169C6.68504 27.1169 8.10758 28.1172 10.2792 27.5445L12.6072 27.5179L10.8098 28.8496L6.89638 29.342L6.45691 28.396L6.68504 27.1169Z" fill="#2B013A"/>
<path opacity="0.3" d="M22.4348 19.5647C22.4348 19.5647 22.7242 20.5506 22.3292 21.0515C21.781 21.7482 19.4346 23.332 18.212 23.877L18.7696 24.0832L20.7966 23.7571L23.35 22.1392L23.9621 20.8608L22.4348 19.5647Z" fill="#2B013A"/>
<path opacity="0.3" d="M25.2988 24.7472C25.2876 24.7371 24.7449 24.2629 23.8353 24.7472C23.8353 24.7472 14.5376 30.2616 11.8085 31.0331C11.5232 30.8947 11.2424 30.7485 10.9664 30.5943L10.81 30.2332L15.4959 27.6507L24.618 23.0447L25.2988 24.7472Z" fill="#2B013A"/>
<path opacity="0.3" d="M26.2118 7.9624C26.2118 7.9624 26.705 9.5864 25.3716 10.7017C24.6046 11.3435 23.2902 12.1421 20.7965 13.7225L23.1634 14.0195L25.0538 13.1677L28.0889 10.5588L26.2118 7.9624Z" fill="#2B013A"/>
<path opacity="0.3" d="M30.3267 15.4087C30.3267 15.4087 29.7515 14.6163 27.7412 15.6944C27.7412 15.6944 14.1645 23.976 5.87441 26.107C5.56014 25.6815 5.26654 25.24 4.99561 24.7843L29.5269 12.9375L30.3267 15.4087Z" fill="#2B013A"/>
<path opacity="0.3" d="M3.21894 12.735C3.21894 12.735 3.97987 13.6098 5.55867 13.3628C8.60027 12.8872 7.30227 13.4873 7.30227 13.4873L6.25801 14.4717L4.78641 14.8116C4.78641 14.8116 4.35441 15.1041 3.92134 14.9112C3.48881 14.7185 3.79441 15.5836 3.50267 14.7781C3.20921 13.9734 3.21947 14.0262 3.21947 14.0262L3.00281 13.1096L3.21894 12.735Z" fill="#2B013A"/>
<path opacity="0.3" d="M18.6736 4.98828C18.6736 4.98828 18.9285 6.13255 18.0608 6.85788C17.5023 7.32508 15.8799 8.45922 15.0711 8.97015C13.5831 9.91002 19.4496 7.83882 19.4496 7.83882L20.0749 6.26748L19.3431 5.57535L18.6736 4.98828Z" fill="#2B013A"/>
<path opacity="0.3" d="M21.5352 8.34174V10.1705C21.472 10.0921 21.395 10.0295 21.3157 9.9712C20.7948 9.58627 20.0529 10.1379 19.5008 10.4983C17.452 11.836 13.5125 14.1521 7.54171 16.6617C5.32051 17.5948 3.71478 17.8533 2.78731 17.7399C2.76944 17.4873 2.75744 17.2337 2.75171 16.9784L7.34264 15.1835L13.0909 12.9368L21.5352 8.34174Z" fill="#2B013A"/>
<path d="M24.618 5.00812L24.2858 5.26132C24.1746 5.34598 24.0648 5.43092 23.9517 5.51238C23.7269 5.67612 23.5042 5.84332 23.2749 6.00158L22.9329 6.24198C22.819 6.32185 22.7029 6.39945 22.5882 6.47798C22.4726 6.55612 22.3584 6.63492 22.2424 6.71252L21.8941 6.94252C20.9612 7.55225 20.0101 8.13425 19.0473 8.69545C17.1214 9.81598 15.1456 10.8511 13.1433 11.8291L12.7678 12.012L12.3912 12.192C12.14 12.3132 11.8872 12.4305 11.6356 12.5486C11.3832 12.6678 11.1304 12.7832 10.8777 12.9009L10.497 13.0741C10.3706 13.1316 10.244 13.189 10.1165 13.2458C9.09864 13.7005 8.07611 14.1424 7.04117 14.557C6.52451 14.7641 6.00504 14.966 5.48104 15.1564C5.35011 15.203 5.21957 15.2524 5.08624 15.2953C4.95317 15.3385 4.81798 15.3749 4.68038 15.4037C4.54331 15.432 4.40411 15.4522 4.26371 15.46C4.12357 15.4676 3.98184 15.4649 3.84277 15.4424C3.77331 15.4329 3.70411 15.4166 3.63651 15.3964C3.56891 15.3768 3.50344 15.3509 3.43904 15.3208C3.31211 15.2602 3.19544 15.1753 3.09891 15.0732C3.00197 14.9697 2.92651 14.8484 2.87117 14.7186C2.81704 14.5897 2.78411 14.4513 2.76784 14.312C2.76091 14.2428 2.75677 14.1729 2.75677 14.1028C2.75731 14.0333 2.76197 13.9629 2.76877 13.8937C2.78411 13.7552 2.81317 13.6177 2.85331 13.4837C2.93357 13.2166 3.05984 12.9634 3.21877 12.7356C3.06277 12.9661 2.94051 13.2196 2.86451 13.4873C2.78811 13.7537 2.75464 14.0352 2.78904 14.3102C2.80584 14.4474 2.84064 14.5821 2.89491 14.709C2.94997 14.8352 3.02544 14.9532 3.12037 15.052C3.21517 15.1508 3.32891 15.2322 3.45397 15.2894C3.51637 15.3184 3.58011 15.3432 3.64651 15.3617C3.71251 15.3798 3.77984 15.3946 3.84797 15.404C3.98437 15.4245 4.12264 15.4258 4.26024 15.4173C4.39824 15.4089 4.53491 15.3882 4.67077 15.3598C4.80584 15.3304 4.93944 15.2938 5.07077 15.2501C5.20237 15.2074 5.33251 15.1572 5.46251 15.1096C5.98464 14.9162 6.50198 14.7106 7.01811 14.5001L7.40397 14.3416L7.78877 14.1802C7.91784 14.1265 8.04504 14.0711 8.17371 14.0163C8.30158 13.9621 8.42984 13.908 8.55691 13.8525L8.93998 13.6864C9.06758 13.6305 9.19491 13.5736 9.32198 13.5181C9.57704 13.4057 9.83051 13.2913 10.0846 13.1774C11.0993 12.7204 12.1072 12.2458 13.1081 11.7578C14.1089 11.27 15.1025 10.7681 16.0884 10.2493C17.0745 9.73225 18.0505 9.19652 19.0162 8.64278C19.9818 8.08852 20.9357 7.51265 21.8718 6.90998L22.2229 6.68425C22.3397 6.60838 22.4553 6.53065 22.571 6.45305C22.6869 6.37625 22.8036 6.29985 22.9186 6.22132L23.2624 5.98465C23.4938 5.82905 23.7176 5.66398 23.9454 5.50318C24.0593 5.42358 24.1704 5.33985 24.2825 5.25678L24.618 5.00812Z" fill="url(#paint4_linear_614_14653)"/>
<path opacity="0.3" d="M2.9416 19.0907C2.9416 19.0907 4.48667 21.0812 7.40307 19.8657C11.9775 17.9576 14.1115 19.0339 14.1115 19.0339L9.79827 21.3608L3.68853 23.7574L2.8496 22.9587L2.65027 20.9812" fill="#2B013A"/>
<path d="M26.2119 7.96295L27.2665 9.87095C27.2665 9.87095 26.0832 11.3184 12.9395 17.6453L5.54 20.6128C4.38426 21.0766 3.1 20.3256 2.9416 19.0907C2.9404 19.0804 2.93946 19.0712 2.93773 19.0617C2.93773 19.0617 2.308 19.2672 1.72653 20.0217C1.55333 20.246 1.4132 20.4946 1.30333 20.755C0.781063 22.0007 0.91733 23.6086 1.7672 24.6792C2.56986 25.6935 3.81093 25.8084 4.9956 25.6067C7.53426 25.166 9.91439 24.0891 12.2565 23.0544C21.2075 19.096 27.3311 15.12 29.3341 13.614L30.3264 15.4087L35.4275 7.11041L26.2119 7.96295Z" fill="#F757A1"/>
<path d="M24.618 5.00813L21.5375 10.1707L20.8556 8.93652C19.4779 9.97252 15.268 12.7053 9.1144 15.4269C7.50386 16.1389 5.86786 16.8787 4.12226 17.1817C3.30826 17.3197 2.45506 17.2421 1.90266 16.5452C1.3184 15.8075 1.22493 14.7023 1.58386 13.8469C1.65973 13.6676 1.756 13.4964 1.87466 13.3423C2.27466 12.824 3.22053 12.7288 3.21866 12.7355C3.05893 13.4376 4.28613 13.8861 4.98786 13.5984L9.5836 11.708C18.0512 7.72786 19.3713 6.25319 19.3713 6.25319L18.6727 4.98853L24.618 5.00813Z" fill="#F757A1"/>
<path d="M24.618 5.00814C18.8051 9.47348 9.00296 13.8739 5.21696 15.226C2.75016 16.1071 2.28096 14.1128 3.20856 12.7511C3.21549 12.7409 3.21896 12.7349 3.21896 12.7349C3.06003 13.4367 4.28709 13.8857 4.98829 13.5973L9.58416 11.7076C13.6832 9.78014 16.1079 8.44068 17.5182 7.57148C19.0211 6.64521 19.3723 6.25281 19.3723 6.25281L18.6732 4.98761L24.618 5.00814Z" fill="url(#paint5_linear_614_14653)"/>
<path d="M35.4284 7.11029C34.8363 7.61949 34.2213 8.10282 33.5951 8.57016C32.8996 9.09029 32.1883 9.58869 31.468 10.0739C30.6917 10.5972 29.9036 11.1035 29.1093 11.5988C28.2732 12.1186 27.4301 12.6248 26.5795 13.1211C25.7065 13.6312 24.8276 14.1299 23.9433 14.62C23.0539 15.1127 22.16 15.5963 21.2607 16.0723C20.3763 16.5399 19.4879 17.0016 18.5951 17.4542C17.7365 17.8915 16.8745 18.3228 16.0095 18.7468C15.1968 19.1454 14.3823 19.5368 13.5649 19.9247C12.8205 20.2766 12.0733 20.6243 11.3244 20.9646C10.6679 21.2644 10.0103 21.5587 9.3492 21.8479C8.80227 22.085 8.25427 22.3208 7.7024 22.5487C7.28587 22.7188 6.86814 22.8867 6.44694 23.0446C5.99414 23.2127 5.5316 23.3715 5.0512 23.436C4.61707 23.4951 4.1436 23.4759 3.7344 23.3118C1.36867 22.3602 2.9412 19.0907 2.9412 19.0907C3.09907 20.3256 4.38414 21.0759 5.5396 20.6128L12.9385 17.6454C22.2136 13.1807 25.5329 11.1458 26.6836 10.3347C27.1631 9.99629 27.2657 9.87082 27.2657 9.87082L26.2112 7.96229L35.4284 7.11029Z" fill="url(#paint6_linear_614_14653)"/>
<path d="M28.3789 19.5845L25.2988 24.7472L24.6167 23.512C23.2397 24.5492 19.0296 27.2816 12.8767 30.0039C11.2656 30.7155 10.0673 31.4463 8.32147 31.7488C7.5072 31.8883 6.21694 31.8177 5.66494 31.1209C5.08054 30.3835 4.98707 29.2787 5.34654 28.4228C5.42147 28.2432 5.51854 28.0713 5.6372 27.9189C6.0372 27.3991 6.6804 27.1123 6.68547 27.1169C7.4512 27.8593 8.03187 28.2808 9.45027 27.8848L13.3449 26.284C21.8129 22.3035 23.1343 20.8288 23.1343 20.8288L22.4349 19.5641L28.3789 19.5845Z" fill="#F757A1"/>
<path d="M28.379 19.5845C27.7078 20.065 27.0219 20.527 26.3296 20.9766C25.605 21.4457 24.8708 21.8997 24.1302 22.3421C23.3766 22.7925 22.6151 23.2306 21.8484 23.6598C21.0872 24.0866 20.3203 24.5014 19.5495 24.91C18.8027 25.3041 18.0523 25.6905 17.2984 26.0697C16.5888 26.4253 15.8767 26.7757 15.1612 27.1181C14.5104 27.4301 13.8579 27.7358 13.2022 28.0362C12.6336 28.2952 12.0624 28.55 11.4886 28.7986C11.0235 29.0014 10.556 29.1994 10.0859 29.3904C9.71509 29.54 9.34136 29.6874 8.96402 29.8213C8.73629 29.902 8.49869 29.9558 8.25816 29.9798C8.04309 30.001 7.76482 30.0301 7.55722 29.961C5.97322 29.4348 6.68496 27.1166 6.68496 27.1166C7.45109 27.8598 8.03176 28.2817 9.45002 27.8857L13.3452 26.2837C17.8095 24.1861 20.2872 22.7838 21.6324 21.9268C22.8384 21.1589 23.1339 20.8293 23.1339 20.8293L22.4346 19.5645L28.379 19.5845Z" fill="url(#paint7_linear_614_14653)"/>
<path d="M48.6455 25.547C47.3476 25.547 46.2329 25.3168 45.3023 24.8564C44.3712 24.3961 43.614 23.7976 43.0308 23.0606C42.4473 22.3241 42.018 21.5214 41.7426 20.6532C41.4673 19.7848 41.3297 18.9496 41.3297 18.1469V17.7128C41.3297 16.8184 41.4704 15.9368 41.7525 15.0685C42.0342 14.2002 42.4704 13.4109 43.0604 12.7005C43.6504 11.9901 44.4008 11.4213 45.3123 10.9936C46.2233 10.5662 47.3016 10.3522 48.5473 10.3522C49.8453 10.3522 50.9761 10.586 51.9397 11.0528C52.9035 11.5198 53.6735 12.1776 54.2505 13.0261C54.8273 13.8746 55.1748 14.8648 55.2928 15.996H52.4805C52.3755 15.3382 52.1428 14.7824 51.7824 14.3285C51.4216 13.8746 50.9663 13.5328 50.4156 13.3024C49.8649 13.0724 49.2421 12.957 48.5473 12.957C47.8393 12.957 47.21 13.0788 46.6593 13.3221C46.1087 13.5657 45.6496 13.911 45.2827 14.3581C44.9155 14.8054 44.6367 15.3318 44.4468 15.9368C44.2567 16.5421 44.1616 17.213 44.1616 17.9496C44.1616 18.66 44.2565 19.318 44.4468 19.9229C44.6367 20.5282 44.9219 21.0576 45.3024 21.5114C45.6825 21.9653 46.1511 22.3174 46.7085 22.5672C47.2656 22.8173 47.9113 22.9422 48.6456 22.9422C49.7205 22.9422 50.6285 22.6758 51.3695 22.143C52.11 21.6102 52.5592 20.8637 52.7167 19.9033H55.5289C55.3977 20.9293 55.0501 21.8701 54.4867 22.7252C53.9228 23.5804 53.1493 24.2644 52.166 24.7774C51.1827 25.2905 50.0089 25.547 48.6455 25.547Z" fill="white"/>
<path d="M60.7009 25.4484C59.9272 25.4484 59.2487 25.3103 58.6655 25.034C58.082 24.7577 57.6296 24.3631 57.3085 23.85C56.9871 23.3369 56.8267 22.7188 56.8267 21.9951C56.8267 21.2057 57.02 20.5613 57.4068 20.0612C57.7933 19.5615 58.3376 19.1864 59.0391 18.9364C59.7403 18.6865 60.5632 18.5613 61.5072 18.5613H63.9851V20.1992H61.4677C60.8384 20.1992 60.3567 20.354 60.0223 20.6629C59.688 20.9721 59.5208 21.3704 59.5208 21.8568C59.5208 22.3436 59.688 22.7383 60.0223 23.0408C60.3565 23.3436 60.8384 23.4947 61.4677 23.4947C61.8479 23.4947 62.1984 23.4256 62.5199 23.2875C62.8411 23.1493 63.1099 22.9124 63.3263 22.5771C63.5425 22.2416 63.6636 21.7847 63.6901 21.2056L64.3588 21.9752C64.2931 22.7251 64.1131 23.3564 63.818 23.8696C63.5231 24.3827 63.1165 24.7741 62.5987 25.0437C62.0805 25.3135 61.4481 25.4484 60.7009 25.4484ZM64.1425 25.1721V21.9951H63.6901V18.4628C63.6901 17.8445 63.5392 17.3843 63.2377 17.0816C62.936 16.7791 62.4708 16.6277 61.8415 16.6277C61.5136 16.6277 61.1203 16.6345 60.6615 16.6475C60.2024 16.6608 59.7403 16.6771 59.2751 16.6968C58.8095 16.7165 58.3932 16.7396 58.0263 16.7659V14.4373C58.3277 14.4112 58.6685 14.3849 59.0489 14.3584C59.4291 14.3321 59.8189 14.3159 60.2191 14.3091C60.6188 14.3027 60.9959 14.2992 61.3499 14.2992C62.4512 14.2992 63.3657 14.4441 64.0933 14.7333C64.8211 15.0228 65.3716 15.4767 65.7453 16.0949C66.1189 16.7135 66.3059 17.5225 66.3059 18.5221V25.1723H64.1425V25.1721Z" fill="white"/>
<path d="M69.236 25.1721V14.4569H71.3993V18.9956H71.3404C71.3404 17.4564 71.668 16.2921 72.3237 15.5028C72.9792 14.7135 73.9428 14.3188 75.2146 14.3188H75.608V16.7065H74.8606C73.9428 16.7065 73.2314 16.9533 72.7269 17.4465C72.222 17.9398 71.9697 18.6537 71.9697 19.5877V25.1722H69.236V25.1721Z" fill="white"/>
<path d="M77.4366 25.1721V14.4569H79.6V19.0548H79.4033C79.4033 17.9631 79.5474 17.0519 79.836 16.3217C80.1242 15.5916 80.5538 15.0424 81.1241 14.674C81.6944 14.3059 82.4054 14.1215 83.2578 14.1215H83.3758C84.6474 14.1215 85.611 14.5328 86.2668 15.3548C86.9222 16.1771 87.2501 17.404 87.2501 19.0351V25.1721H84.5165V18.7983C84.5165 18.1405 84.3297 17.6077 83.956 17.1999C83.5822 16.7923 83.0676 16.5881 82.4121 16.5881C81.7434 16.5881 81.2026 16.7953 80.7897 17.2097C80.3766 17.624 80.1702 18.18 80.1702 18.8772V25.1721H77.4366Z" fill="white"/>
<path d="M89.197 16.5092V14.4569H93.4253V16.5092H89.197ZM91.6946 13.1743C91.1569 13.1743 90.7605 13.0331 90.5048 12.75C90.2492 12.4672 90.1213 12.1087 90.1213 11.6745C90.1213 11.2404 90.249 10.8852 90.5048 10.6089C90.7604 10.3327 91.1569 10.1945 91.6946 10.1945C92.2321 10.1945 92.6253 10.3327 92.8746 10.6089C93.1236 10.8852 93.2483 11.2404 93.2483 11.6745C93.2483 12.1087 93.1236 12.4672 92.8746 12.75C92.6254 13.0331 92.2321 13.1743 91.6946 13.1743ZM90.6917 25.1721V14.4569H93.4253V25.1721H90.6917Z" fill="white"/>
<path d="M98.7156 25.1721L95.3723 14.4569H98.1845L101.39 25.1721H98.7156ZM99.5219 25.1721V22.9225H102.413V25.1721H99.5219ZM100.604 25.1721L103.357 14.4569H105.992L103.101 25.1721H100.604Z" fill="white"/>
<path d="M110.948 25.4484C110.174 25.4484 109.496 25.3103 108.913 25.034C108.329 24.7577 107.877 24.3631 107.556 23.85C107.234 23.3369 107.074 22.7188 107.074 21.9951C107.074 21.2057 107.267 20.5613 107.654 20.0612C108.041 19.5615 108.585 19.1864 109.286 18.9364C109.988 18.6865 110.811 18.5613 111.755 18.5613H114.233V20.1992H111.715C111.086 20.1992 110.604 20.354 110.27 20.6629C109.935 20.9721 109.768 21.3704 109.768 21.8568C109.768 22.3436 109.935 22.7383 110.27 23.0408C110.604 23.3436 111.086 23.4947 111.715 23.4947C112.095 23.4947 112.446 23.4256 112.767 23.2875C113.089 23.1493 113.357 22.9124 113.574 22.5771C113.79 22.2416 113.911 21.7847 113.938 21.2056L114.606 21.9752C114.541 22.7251 114.361 23.3564 114.065 23.8696C113.771 24.3827 113.364 24.7741 112.846 25.0437C112.328 25.3135 111.696 25.4484 110.948 25.4484ZM114.39 25.1721V21.9951H113.937V18.4628C113.937 17.8445 113.787 17.3843 113.485 17.0816C113.183 16.7791 112.718 16.6277 112.089 16.6277C111.761 16.6277 111.368 16.6345 110.909 16.6475C110.45 16.6608 109.988 16.6771 109.522 16.6968C109.057 16.7165 108.64 16.7396 108.274 16.7659V14.4373C108.575 14.4112 108.916 14.3849 109.296 14.3584C109.676 14.3321 110.066 14.3159 110.466 14.3091C110.866 14.3027 111.243 14.2992 111.597 14.2992C112.698 14.2992 113.613 14.4441 114.341 14.7333C115.068 15.0228 115.619 15.4767 115.993 16.0949C116.366 16.7135 116.553 17.5225 116.553 18.5221V25.1723H114.39V25.1721Z" fill="white"/>
<path d="M118.284 12.8191V10.7668H122.354V12.8191H118.284ZM119.621 25.1721V10.7668H122.354V25.1721H119.621Z" fill="white"/>
<path d="M135.865 25.547C134.528 25.547 133.4 25.2905 132.482 24.7776C131.565 24.2645 130.866 23.5442 130.388 22.6168C129.909 21.6893 129.67 20.6009 129.67 19.3509V10.7669H132.463V19.5088C132.463 20.1929 132.594 20.7949 132.856 21.3144C133.118 21.8341 133.502 22.2353 134.007 22.518C134.511 22.801 135.131 22.9424 135.865 22.9424C136.586 22.9424 137.199 22.801 137.704 22.518C138.208 22.2353 138.589 21.8373 138.844 21.3241C139.1 20.811 139.228 20.2061 139.228 19.5088V10.7669H142.02V19.3509C142.02 20.6009 141.788 21.6893 141.322 22.6168C140.857 23.5442 140.165 24.2645 139.247 24.7776C138.33 25.2905 137.202 25.547 135.865 25.547Z" fill="white"/>
<path d="M143.692 16.4697V14.4569H151.244V16.4697H143.692ZM149.71 25.3103C148.727 25.3103 147.917 25.182 147.281 24.9255C146.645 24.6688 146.17 24.2347 145.855 23.6229C145.541 23.0112 145.384 22.1859 145.384 21.1464L145.403 11.4377H147.96L147.94 21.324C147.94 21.8504 148.081 22.2548 148.363 22.5377C148.645 22.8208 149.048 22.962 149.572 22.962H151.244V25.3103H149.71Z" fill="white"/>
<path d="M158.619 25.547C157.675 25.547 156.842 25.3957 156.122 25.0933C155.4 24.7907 154.791 24.3797 154.293 23.8599C153.794 23.3405 153.417 22.7517 153.162 22.0938C152.906 21.4361 152.778 20.752 152.778 20.0414V19.6272C152.778 18.8906 152.913 18.1901 153.181 17.5256C153.45 16.8614 153.837 16.2694 154.342 15.7496C154.846 15.2301 155.459 14.8221 156.18 14.5261C156.901 14.2301 157.714 14.0821 158.619 14.0821C159.524 14.0821 160.337 14.2301 161.058 14.5261C161.779 14.8221 162.392 15.2301 162.896 15.7496C163.401 16.2694 163.785 16.8614 164.047 17.5256C164.309 18.19 164.44 18.8905 164.44 19.6272V20.0414C164.44 20.7518 164.312 21.4361 164.057 22.0938C163.801 22.7518 163.424 23.3405 162.926 23.8599C162.428 24.3797 161.818 24.7907 161.097 25.0933C160.376 25.3957 159.55 25.547 158.619 25.547ZM158.619 23.1987C159.288 23.1987 159.851 23.0507 160.31 22.7547C160.769 22.4587 161.117 22.0575 161.353 21.551C161.589 21.0447 161.707 20.4692 161.707 19.8244C161.707 19.1666 161.585 18.5846 161.343 18.078C161.1 17.5717 160.746 17.1702 160.281 16.8742C159.815 16.5782 159.261 16.4302 158.619 16.4302C157.977 16.4302 157.422 16.5782 156.957 16.8742C156.492 17.1704 156.134 17.5717 155.886 18.078C155.636 18.5846 155.512 19.1666 155.512 19.8244C155.512 20.4692 155.633 21.0447 155.876 21.551C156.118 22.0577 156.469 22.4589 156.928 22.7547C157.386 23.0507 157.95 23.1987 158.619 23.1987Z" fill="white"/>
<path d="M166.839 29.1188V14.4569H169.003V19.0744L168.668 19.0548C168.721 17.9631 168.947 17.0488 169.347 16.3119C169.747 15.5753 170.281 15.0261 170.95 14.6641C171.618 14.3025 172.366 14.1215 173.192 14.1215C173.952 14.1215 174.637 14.2596 175.247 14.5359C175.856 14.8121 176.381 15.2003 176.82 15.7001C177.259 16.2003 177.597 16.7824 177.833 17.4465C178.069 18.1109 178.187 18.8248 178.187 19.5877V20.002C178.187 20.7784 178.072 21.4988 177.843 22.1628C177.613 22.8272 177.279 23.4128 176.84 23.9191C176.4 24.4257 175.873 24.8204 175.257 25.1032C174.64 25.3859 173.952 25.5275 173.192 25.5275C172.392 25.5275 171.661 25.3597 170.999 25.0243C170.337 24.6888 169.802 24.1693 169.396 23.4655C168.99 22.7619 168.76 21.8508 168.708 20.7324L169.573 22.0545V29.1189H166.839V29.1188ZM172.503 23.2185C173.093 23.2185 173.608 23.074 174.047 22.7844C174.486 22.4952 174.83 22.0907 175.08 21.5708C175.328 21.0513 175.453 20.4625 175.453 19.8047C175.453 19.1208 175.328 18.5288 175.08 18.0287C174.83 17.5289 174.486 17.1376 174.047 16.8545C173.608 16.5717 173.093 16.4303 172.503 16.4303C171.966 16.4303 171.471 16.5487 171.018 16.7855C170.566 17.0223 170.199 17.3709 169.917 17.8313C169.635 18.2919 169.494 18.8445 169.494 19.4889V20.2783C169.494 20.8968 169.638 21.4228 169.927 21.8569C170.215 22.2911 170.589 22.6265 171.048 22.8633C171.507 23.1001 171.992 23.2185 172.503 23.2185Z" fill="white"/>
<path d="M179.603 16.5092V14.4569H183.831V16.5092H179.603ZM182.1 13.1743C181.562 13.1743 181.166 13.0331 180.91 12.75C180.655 12.4672 180.527 12.1087 180.527 11.6745C180.527 11.2404 180.655 10.8852 180.91 10.6089C181.166 10.3327 181.562 10.1945 182.1 10.1945C182.638 10.1945 183.031 10.3327 183.28 10.6089C183.529 10.8852 183.654 11.2404 183.654 11.6745C183.654 12.1087 183.529 12.4672 183.28 12.75C183.031 13.0331 182.638 13.1743 182.1 13.1743ZM181.097 25.1721V14.4569H183.831V25.1721H181.097Z" fill="white"/>
<path d="M190.006 25.4484C189.232 25.4484 188.554 25.3103 187.971 25.034C187.387 24.7577 186.935 24.3631 186.614 23.85C186.292 23.3369 186.132 22.7188 186.132 21.9951C186.132 21.2057 186.325 20.5613 186.712 20.0612C187.099 19.5615 187.643 19.1864 188.344 18.9364C189.046 18.6865 189.868 18.5613 190.812 18.5613H193.29V20.1992H190.773C190.144 20.1992 189.662 20.354 189.328 20.6629C188.993 20.9721 188.826 21.3704 188.826 21.8568C188.826 22.3436 188.993 22.7383 189.328 23.0408C189.662 23.3436 190.144 23.4947 190.773 23.4947C191.153 23.4947 191.504 23.4256 191.825 23.2875C192.146 23.1493 192.415 22.9124 192.632 22.5771C192.848 22.2416 192.969 21.7847 192.995 21.2056L193.664 21.9752C193.599 22.7251 193.418 23.3564 193.123 23.8696C192.828 24.3827 192.422 24.7741 191.904 25.0437C191.386 25.3135 190.753 25.4484 190.006 25.4484ZM193.448 25.1721V21.9951H192.995V18.4628C192.995 17.8445 192.844 17.3843 192.543 17.0816C192.241 16.7791 191.776 16.6277 191.147 16.6277C190.819 16.6277 190.425 16.6345 189.967 16.6475C189.507 16.6608 189.045 16.6771 188.58 16.6968C188.115 16.7165 187.698 16.7396 187.331 16.7659V14.4373C187.633 14.4112 187.973 14.3849 188.354 14.3584C188.734 14.3321 189.124 14.3159 189.524 14.3091C189.924 14.3027 190.301 14.2992 190.655 14.2992C191.756 14.2992 192.671 14.4441 193.398 14.7333C194.126 15.0228 194.676 15.4767 195.05 16.0949C195.424 16.7135 195.611 17.5225 195.611 18.5221V25.1723H193.448V25.1721Z" fill="white"/>
<defs>
<linearGradient id="paint0_linear_614_14653" x1="7.54622" y1="-8.85419" x2="34.2033" y2="51.6021" gradientUnits="userSpaceOnUse">
<stop offset="0.156" stop-color="#AB5CE9"/>
<stop offset="0.7258" stop-color="#5106D0"/>
</linearGradient>
<linearGradient id="paint1_linear_614_14653" x1="8.95612" y1="-6.81208" x2="24.7998" y2="30.9863" gradientUnits="userSpaceOnUse">
<stop offset="0.2419" stop-color="#DE6BF0"/>
<stop offset="1" stop-color="#341A5A"/>
</linearGradient>
<linearGradient id="paint2_linear_614_14653" x1="12.1646" y1="-0.0473822" x2="28.7332" y2="34.2092" gradientUnits="userSpaceOnUse">
<stop offset="0.2419" stop-color="#DE6BF0"/>
<stop offset="1" stop-color="#341A5A"/>
</linearGradient>
<linearGradient id="paint3_linear_614_14653" x1="21.829" y1="19.7086" x2="-38.8349" y2="-40.9553" gradientUnits="userSpaceOnUse">
<stop offset="0.156" stop-color="#E09DE9"/>
<stop offset="0.7258" stop-color="#5106D0"/>
</linearGradient>
<linearGradient id="paint4_linear_614_14653" x1="13.8053" y1="9.25193" x2="-12.566" y2="23.8059" gradientUnits="userSpaceOnUse">
<stop offset="0.0822" stop-color="#31B5ED"/>
<stop offset="0.7448" stop-color="#5045DD"/>
</linearGradient>
<linearGradient id="paint5_linear_614_14653" x1="-2.24008" y1="15.8406" x2="32.7675" y2="1.73198" gradientUnits="userSpaceOnUse">
<stop stop-color="#ED1E79"/>
<stop offset="0.3082" stop-color="#F02D94"/>
<stop offset="0.9664" stop-color="#F755D7"/>
<stop offset="1" stop-color="#F757DB"/>
</linearGradient>
<linearGradient id="paint6_linear_614_14653" x1="-16.2314" y1="29.1479" x2="59.2912" y2="-2.46446" gradientUnits="userSpaceOnUse">
<stop stop-color="#ED1E79"/>
<stop offset="0.3082" stop-color="#F02D94"/>
<stop offset="0.9664" stop-color="#F755D7"/>
<stop offset="1" stop-color="#F757DB"/>
</linearGradient>
<linearGradient id="paint7_linear_614_14653" x1="-7.67687" y1="32.0056" x2="44.9084" y2="15.5585" gradientUnits="userSpaceOnUse">
<stop stop-color="#ED1E79"/>
<stop offset="0.3082" stop-color="#F02D94"/>
<stop offset="0.9664" stop-color="#F755D7"/>
<stop offset="1" stop-color="#F757DB"/>
</linearGradient>
</defs>
</svg>
