<svg width="16" height="17" viewBox="0 0 16 17" fill="none" xmlns="http://www.w3.org/2000/svg">
<path d="M7.99967 15.6667C4.04634 15.6667 0.833008 12.4533 0.833008 8.5C0.833008 4.54667 4.04634 1.33334 7.99967 1.33334C11.953 1.33334 15.1663 4.54667 15.1663 8.5C15.1663 12.4533 11.953 15.6667 7.99967 15.6667ZM7.99967 2.33334C4.59967 2.33334 1.83301 5.1 1.83301 8.5C1.83301 11.9 4.59967 14.6667 7.99967 14.6667C11.3997 14.6667 14.1663 11.9 14.1663 8.5C14.1663 5.1 11.3997 2.33334 7.99967 2.33334Z" fill="#545455"/>
<path d="M8 9.66667C7.72667 9.66667 7.5 9.44 7.5 9.16667V5.83334C7.5 5.56 7.72667 5.33334 8 5.33334C8.27333 5.33334 8.5 5.56 8.5 5.83334V9.16667C8.5 9.44 8.27333 9.66667 8 9.66667Z" fill="#545455"/>
<path d="M7.99967 11.8333C7.91301 11.8333 7.82634 11.8133 7.74634 11.78C7.66634 11.7467 7.59301 11.7 7.52634 11.64C7.46634 11.5733 7.41967 11.5067 7.38634 11.42C7.35301 11.34 7.33301 11.2533 7.33301 11.1667C7.33301 11.08 7.35301 10.9933 7.38634 10.9133C7.41967 10.8333 7.46634 10.76 7.52634 10.6933C7.59301 10.6333 7.66634 10.5867 7.74634 10.5533C7.90634 10.4867 8.09301 10.4867 8.25301 10.5533C8.33301 10.5867 8.40634 10.6333 8.47301 10.6933C8.53301 10.76 8.57967 10.8333 8.61301 10.9133C8.64634 10.9933 8.66634 11.08 8.66634 11.1667C8.66634 11.2533 8.64634 11.34 8.61301 11.42C8.57967 11.5067 8.53301 11.5733 8.47301 11.64C8.40634 11.7 8.33301 11.7467 8.25301 11.78C8.17301 11.8133 8.08634 11.8333 7.99967 11.8333Z" fill="#545455"/>
</svg>
