<svg width="308" height="193" viewBox="0 0 308 193" fill="none" xmlns="http://www.w3.org/2000/svg">
<path d="M259.481 33.5253C259.741 31.6329 257.071 30.0766 255.059 29.913C254.1 29.8378 253.109 29.9838 252.203 29.6698C250.227 28.9668 249.44 26.4467 247.543 25.642C246.11 25.0362 244.448 25.5757 243.073 26.2742C241.698 26.9728 240.314 27.8527 238.762 27.9499C237.414 28.0383 235.946 27.5343 234.783 28.1931C233.899 28.6839 233.456 29.7008 232.63 30.2977C231.803 30.8946 230.804 31.0051 229.818 31.0581C228.832 31.1112 227.815 31.1245 226.917 31.5357C226.02 31.9468 225.281 32.893 225.467 33.8613L259.481 33.5253Z" fill="#EBEBEB"/>
<path d="M183.044 139.461C183.402 138.979 167.834 114.432 167.834 114.432L156.693 112.663L145.224 127.652L140.36 125.37L106.316 138.674L82.4402 108.255L78.797 112.044L69.2291 97.8208L63.0834 111.434L53.6129 134.907L47.2063 130.128L29.4147 148.224H199.598C199.598 148.224 182.681 139.943 183.044 139.461Z" fill="#F5F5F5"/>
<path d="M244.775 147.796C244.775 147.857 193.951 147.91 131.27 147.91C68.588 147.91 17.7467 147.857 17.7467 147.796C17.7467 147.734 68.5659 147.681 131.261 147.681C193.956 147.681 244.775 147.734 244.775 147.796Z" fill="#E0E0E0"/>
<path d="M236.529 154.326C236.529 154.392 225.476 154.445 211.818 154.445C198.161 154.445 187.107 154.392 187.107 154.326C187.107 154.26 198.161 154.211 211.818 154.211C225.476 154.211 236.529 154.264 236.529 154.326Z" fill="#E0E0E0"/>
<path d="M65.1217 52.714C65.5064 49.9506 61.5846 47.6736 58.6665 47.4393C57.2693 47.3243 55.8191 47.541 54.4927 47.0768C51.6233 46.0775 50.4737 42.368 47.675 41.1875C45.5792 40.3032 43.1696 41.0902 41.1358 42.1116C39.1019 43.1329 37.0858 44.4416 34.8309 44.5654C32.859 44.6892 30.7146 43.9597 28.9903 44.9235C27.7037 45.6398 27.0316 47.1342 25.8467 47.9964C24.6618 48.8586 23.1939 49.0354 21.7348 49.115C20.2758 49.1946 18.8034 49.2078 17.4947 49.8047C16.186 50.4016 15.0983 51.7899 15.3725 53.2092L65.1217 52.714Z" fill="#EBEBEB"/>
<path d="M267.258 98.5724C267.589 96.1672 264.194 94.1864 261.643 93.9831C260.427 93.8814 259.162 94.0715 258.013 93.6691C255.515 92.7849 254.515 89.5705 252.079 88.5448C250.258 87.7755 248.157 88.4608 246.393 89.3495C244.629 90.2382 242.883 91.3568 240.906 91.4806C239.191 91.5911 237.33 90.9544 235.826 91.7945C234.708 92.4179 234.12 93.7089 233.089 94.4694C232.059 95.2299 230.764 95.3537 229.513 95.4377C228.261 95.5217 226.966 95.5173 225.825 96.039C224.684 96.5607 223.743 97.7678 223.977 99.0013L267.258 98.5724Z" fill="#F5F5F5"/>
<path d="M183.72 23.0511C183.955 21.3533 181.558 19.9561 179.741 19.8102C178.879 19.7395 177.973 19.8721 177.177 19.5891C175.408 18.9746 174.71 16.6976 172.99 15.9724C171.703 15.4286 170.222 15.915 168.975 16.5384C167.728 17.1618 166.495 17.9576 165.102 18.0461C163.895 18.1257 162.577 17.6747 161.516 18.2671C160.729 18.7093 160.314 19.5935 159.584 20.1551C158.827 20.6229 157.95 20.8609 157.06 20.8404C156.173 20.8253 155.291 20.9752 154.46 21.2825C153.655 21.6495 152.987 22.5028 153.155 23.3694L183.72 23.0511Z" fill="#F5F5F5"/>
<path d="M307.231 186.368C306.612 174.16 306.882 178.409 306.263 166.197L284.501 154.074L264.937 161.767L261.497 167.342C259.405 170.711 256.555 173.545 253.176 175.619C248.993 178.197 243.351 182.251 241.309 186.368H307.231Z" fill="#E0E0E0"/>
<path d="M0.768677 156.563L23.1143 163.969L49.4258 186.354H0.768677V156.563Z" fill="#E0E0E0"/>
<path d="M269.283 126.878L273.925 159.945L275.132 159.981C274.363 148.755 273.54 137.29 269.283 126.878Z" fill="#E0E0E0"/>
<path d="M282.175 125.353C278.935 128.89 277.63 133.793 276.808 138.533C275.641 145.253 275.535 153.19 275.884 160.003L277.582 160.043C276.909 148.293 278.468 136.522 282.175 125.353Z" fill="#E0E0E0"/>
<path d="M270.136 146.443C269.76 144.802 269.336 143.135 268.403 141.743C267.138 139.855 265.078 138.648 263.009 137.737C260.94 136.826 258.76 136.066 256.89 134.783C258.977 138.206 263.716 139.116 266.126 142.3C267.329 143.891 267.828 145.89 268.297 147.826C269.323 152.053 269.955 155.71 270.981 159.937H272.351C271.898 155.396 271.158 150.889 270.136 146.443Z" fill="#E0E0E0"/>
<path d="M278.82 159.981C278.82 159.981 279.982 146.849 280.845 144.44C281.707 142.03 289.855 135.367 289.776 135.681C289.696 135.995 283.665 143.281 282.803 144.771C281.941 146.261 280.451 159.981 280.451 159.981H278.82Z" fill="#E0E0E0"/>
<path d="M229.384 157.717C229.291 157.734 229.196 157.741 229.101 157.739L228.301 157.761L225.348 157.797L215.621 157.832L205.894 157.797L202.945 157.761L202.14 157.739C202.047 157.741 201.953 157.734 201.861 157.717C201.953 157.698 202.046 157.69 202.14 157.695H202.945L205.894 157.66L215.621 157.624L225.348 157.66L228.301 157.695H229.101C229.196 157.69 229.291 157.697 229.384 157.717Z" fill="#E0E0E0"/>
<path d="M246.084 164.261C246.369 164.465 246.61 164.724 246.792 165.023C246.974 165.323 247.094 165.656 247.145 166.003C247.243 166.699 247.179 167.408 246.959 168.076C246.474 169.4 245.655 170.576 244.581 171.49C243.639 170.318 243.696 168.576 243.763 167.692C243.891 166.295 244.961 163.85 246.084 164.261Z" fill="#9262F2"/>
<path d="M245.487 173.899C245.477 173.507 245.572 173.119 245.762 172.776C245.951 172.433 246.229 172.146 246.566 171.945C246.905 171.748 247.28 171.621 247.669 171.572C248.057 171.523 248.452 171.552 248.83 171.658C249.011 171.684 249.185 171.75 249.338 171.852C249.491 171.954 249.619 172.088 249.714 172.246C249.775 172.404 249.793 172.576 249.766 172.744C249.739 172.912 249.668 173.07 249.559 173.201C249.337 173.458 249.052 173.653 248.732 173.767C247.658 174.209 246.522 174.421 245.505 173.899" fill="#9262F2"/>
<path d="M243.334 177.706C243.354 177.615 243.383 177.526 243.422 177.441C243.488 177.255 243.577 176.999 243.687 176.729C243.958 175.933 244.355 175.187 244.864 174.518C245.388 173.852 246.081 173.338 246.871 173.028C247.11 172.938 247.36 172.877 247.614 172.847C247.702 172.847 247.773 172.847 247.821 172.847H247.892C247.552 172.898 247.219 172.985 246.897 173.108C246.128 173.427 245.454 173.939 244.939 174.593C244.439 175.259 244.038 175.993 243.749 176.773C243.63 177.069 243.528 177.308 243.458 177.472C243.421 177.552 243.379 177.63 243.334 177.706Z" fill="#263238"/>
<path d="M245.429 166.184C245.434 166.225 245.434 166.267 245.429 166.308C245.429 166.396 245.416 166.511 245.39 166.653C245.354 166.953 245.297 167.382 245.217 167.917C245.062 168.987 244.828 170.455 244.532 172.078C244.236 173.7 243.935 175.173 243.701 176.207C243.586 176.738 243.488 177.162 243.418 177.454C243.382 177.591 243.351 177.706 243.334 177.79C243.326 177.831 243.312 177.872 243.294 177.909C243.294 177.909 243.294 177.865 243.294 177.786C243.294 177.706 243.334 177.587 243.36 177.445L243.617 176.194C243.829 175.137 244.121 173.678 244.417 172.06C244.713 170.442 244.956 168.965 245.129 167.908C245.217 167.382 245.284 166.958 245.337 166.648C245.359 166.507 245.381 166.392 245.394 166.303C245.401 166.262 245.413 166.222 245.429 166.184Z" fill="#263238"/>
<path d="M243.413 174.364C243.422 173.537 243.233 172.72 242.863 171.98C242.493 171.241 241.953 170.6 241.287 170.11C240.946 169.863 240.478 169.668 240.124 169.885C239.77 170.101 239.748 170.619 239.828 171.03C240.009 171.889 240.443 172.675 241.073 173.286C241.703 173.898 242.501 174.309 243.365 174.465" fill="#9262F2"/>
<path d="M241.242 171.397C241.318 171.44 241.391 171.489 241.459 171.543C241.544 171.601 241.625 171.664 241.702 171.733C241.807 171.819 241.907 171.91 242.003 172.007C242.109 172.117 242.228 172.232 242.343 172.369C242.467 172.51 242.582 172.658 242.688 172.812C242.936 173.179 243.141 173.574 243.298 173.988C243.447 174.397 243.551 174.821 243.608 175.252C243.629 175.442 243.639 175.632 243.639 175.823C243.648 175.988 243.648 176.153 243.639 176.318C243.63 176.453 243.612 176.587 243.586 176.72C243.571 176.823 243.55 176.925 243.524 177.025C243.506 177.11 243.481 177.192 243.449 177.273C243.427 177.273 243.528 176.91 243.568 176.313C243.577 176.15 243.577 175.986 243.568 175.823C243.564 175.636 243.549 175.45 243.524 175.265C243.467 174.841 243.363 174.424 243.214 174.023C243.058 173.624 242.86 173.243 242.622 172.887C242.52 172.733 242.409 172.585 242.29 172.445C242.18 172.308 242.065 172.188 241.963 172.078C241.539 171.627 241.229 171.414 241.242 171.397Z" fill="#263238"/>
<path d="M39.1948 185.886L39.3805 185.863C38.9958 180.116 36.1087 173.952 34.0129 168.563C31.8597 163.014 29.8391 157.319 24.9359 153.95C30.2368 164.342 34.9961 175.001 39.1948 185.886Z" fill="#455A64"/>
<path d="M42.6346 156.669C42.6346 156.669 42.6346 156.696 42.6346 156.744L42.5683 156.957L42.2942 157.779C42.2367 157.956 42.1704 158.155 42.0952 158.367L41.883 159.079C41.7327 159.587 41.5425 160.166 41.3834 160.816C41.2994 161.139 41.2065 161.48 41.1137 161.833C41.0208 162.187 40.9456 162.558 40.8572 162.943C40.6715 163.708 40.5212 164.535 40.3532 165.406C40.0525 167.174 39.7917 169.08 39.6369 171.118C39.4822 173.156 39.4733 175.097 39.5131 176.866C39.5529 177.75 39.575 178.59 39.6458 179.373C39.6767 179.766 39.6944 180.147 39.7342 180.509C39.774 180.872 39.8094 181.225 39.8403 181.557C39.9022 182.225 39.9995 182.822 40.0658 183.352L40.1675 184.086C40.2073 184.312 40.2426 184.528 40.2736 184.701C40.3311 185.063 40.3753 185.351 40.4107 185.554L40.4416 185.775C40.4436 185.8 40.4436 185.825 40.4416 185.85C40.4416 185.85 40.0702 184.232 39.7475 181.566C39.7121 181.234 39.6723 180.885 39.6325 180.518C39.5927 180.151 39.5706 179.775 39.5352 179.382C39.4601 178.595 39.4335 177.755 39.3937 176.866C39.3451 175.097 39.3672 173.139 39.5087 171.096C39.6502 169.053 39.9508 167.117 40.2382 165.375C40.4062 164.491 40.561 163.673 40.7511 162.908C40.844 162.523 40.9235 162.152 41.0164 161.798C41.1092 161.444 41.2021 161.104 41.2905 160.781C41.4585 160.131 41.6531 159.556 41.8078 159.043L42.0333 158.336L42.2411 157.748C42.3649 157.403 42.4666 157.129 42.5329 156.939C42.5683 156.85 42.5948 156.78 42.6125 156.727L42.6346 156.669Z" fill="#455A64"/>
<path d="M41.7694 153.487L39.7975 160.446C39.5991 161.146 40.0058 161.875 40.7059 162.073L40.9994 162.156C41.6996 162.355 42.4279 161.948 42.6263 161.248L44.5982 154.288C44.7966 153.588 44.3899 152.86 43.6898 152.661L43.3962 152.578C42.6961 152.38 41.9678 152.787 41.7694 153.487Z" fill="#F5F5F5"/>
<path d="M41.0031 162.161C41.0031 162.161 41.0827 162.183 41.2375 162.192C41.4623 162.21 41.6879 162.168 41.8918 162.072C42.0519 162 42.1952 161.895 42.3124 161.764C42.4296 161.633 42.5183 161.479 42.5727 161.312C42.6877 160.914 42.8115 160.45 42.9574 159.941C43.2403 158.92 43.5808 157.708 43.9566 156.364C44.1423 155.692 44.3413 154.985 44.5491 154.255C44.5958 154.076 44.6027 153.889 44.5691 153.707C44.5354 153.525 44.4622 153.353 44.3545 153.203C44.2455 153.048 44.1016 152.921 43.9345 152.831C43.7575 152.745 43.5703 152.681 43.3774 152.641C43.1054 152.568 42.8167 152.589 42.5577 152.699C42.2987 152.81 42.0844 153.004 41.9493 153.252C41.8692 153.421 41.8083 153.599 41.768 153.782C41.5602 154.512 41.3568 155.219 41.1667 155.891C40.7821 157.217 40.4328 158.438 40.141 159.459C40.0658 159.711 39.9995 159.954 39.9332 160.184C39.8574 160.392 39.8127 160.609 39.8005 160.83C39.8036 161.005 39.8415 161.179 39.9121 161.34C39.9826 161.501 40.0845 161.646 40.2117 161.767C40.378 161.918 40.5781 162.027 40.7953 162.085L40.9633 162.138L41.0208 162.161H40.9589L40.7865 162.116C40.5623 162.067 40.354 161.962 40.1808 161.811C40.0453 161.687 39.9363 161.537 39.8603 161.37C39.7843 161.203 39.7429 161.022 39.7386 160.839C39.7499 160.611 39.7931 160.386 39.8668 160.171C39.9287 159.941 39.9951 159.698 40.0658 159.446C40.3532 158.425 40.6936 157.235 41.0694 155.869C41.2551 155.197 41.4541 154.49 41.6619 153.76C41.7033 153.567 41.7671 153.381 41.852 153.203C41.9516 153.029 42.0873 152.878 42.25 152.761C42.4189 152.637 42.6137 152.553 42.8197 152.516C43.0257 152.478 43.2376 152.488 43.4393 152.544C43.639 152.591 43.8331 152.66 44.0185 152.747C44.1945 152.848 44.3456 152.987 44.4606 153.154C44.5787 153.319 44.6589 153.508 44.6956 153.708C44.7322 153.907 44.7245 154.112 44.6729 154.308C44.4651 155.038 44.2617 155.745 44.0716 156.417L43.0458 159.985C42.8999 160.494 42.7717 160.949 42.6435 161.356C42.5449 161.641 42.3525 161.883 42.0978 162.044C41.843 162.205 41.5412 162.274 41.2419 162.24C41.1589 162.225 41.0785 162.198 41.0031 162.161Z" fill="#263238"/>
<path d="M40.4328 185.863C40.2515 181.42 40.2471 176.53 42.7672 172.86C44.1953 170.787 46.3441 169.288 48.6432 168.258C50.9737 167.296 53.3876 166.55 55.8545 166.029C53.1265 169.849 46.9499 169.894 44.3589 173.793C43.5808 174.952 43.2182 176.327 42.8689 177.675C42.1394 180.461 41.5027 183.105 40.7732 185.894" fill="#455A64"/>
<path d="M20.9566 170.256H21.0185H21.1954C21.3501 170.278 21.58 170.296 21.8719 170.353C22.6986 170.493 23.5131 170.697 24.308 170.963C25.4906 171.358 26.6275 171.878 27.6992 172.515C28.327 172.896 28.9323 173.312 29.512 173.762C30.1376 174.253 30.7285 174.786 31.2805 175.358C31.8287 175.928 32.3313 176.54 32.7838 177.189C33.0137 177.494 33.2259 177.817 33.4116 178.122C33.5973 178.427 33.7919 178.745 33.9555 179.055C34.5573 180.145 35.049 181.293 35.4234 182.481C35.6807 183.28 35.8744 184.097 36.0026 184.926C36.0556 185.218 36.0689 185.448 36.0866 185.603V185.78C36.0866 185.819 36.0866 185.841 36.0866 185.841V185.784C36.0866 185.735 36.0866 185.678 36.06 185.607C36.0291 185.452 36.0114 185.222 35.9495 184.935C35.8041 184.112 35.5987 183.301 35.3349 182.508C34.953 181.329 34.4569 180.19 33.8538 179.108C33.6902 178.798 33.4956 178.497 33.3099 178.184C33.1242 177.87 32.912 177.56 32.6865 177.255C32.2328 176.614 31.7318 176.008 31.1877 175.442C30.6472 174.875 30.0681 174.346 29.4545 173.859C28.8786 173.41 28.2778 172.994 27.655 172.613C25.8755 171.538 23.9186 170.79 21.8763 170.402C21.5845 170.336 21.359 170.314 21.2042 170.283L21.0274 170.252L20.9566 170.256Z" fill="#455A64"/>
<path d="M16.5732 167.406L16.441 167.68C16.1256 168.336 16.4016 169.124 17.0574 169.439L23.5763 172.573C24.2321 172.889 25.0194 172.613 25.3347 171.957L25.4669 171.682C25.7823 171.026 25.5063 170.239 24.8505 169.924L18.3315 166.789C17.6757 166.474 16.8885 166.75 16.5732 167.406Z" fill="#F5F5F5"/>
<path d="M25.4709 171.68C25.4709 171.68 25.5062 171.605 25.5416 171.454C25.6094 171.176 25.5833 170.884 25.4673 170.622C25.3513 170.361 25.152 170.145 24.9005 170.008C24.5291 169.823 24.0914 169.624 23.6183 169.394L20.2846 167.798L18.3038 166.852C18.1364 166.773 17.9537 166.732 17.7688 166.732C17.5839 166.732 17.4013 166.773 17.2338 166.852C17.0623 166.936 16.9113 167.056 16.7917 167.205C16.6791 167.365 16.5842 167.537 16.5087 167.718C16.4257 167.89 16.3826 168.078 16.3826 168.269C16.3826 168.459 16.4257 168.647 16.5087 168.819C16.5909 168.989 16.7085 169.14 16.8536 169.261C17.0071 169.371 17.1734 169.462 17.3488 169.531L19.3163 170.451L22.6589 172.073L23.3353 172.4C23.5271 172.511 23.7342 172.593 23.9499 172.644C24.1239 172.67 24.3014 172.662 24.4722 172.62C24.643 172.577 24.8036 172.501 24.9447 172.396C25.1212 172.259 25.2622 172.082 25.3559 171.879L25.4399 171.72C25.4488 171.701 25.4591 171.683 25.4709 171.666C25.4737 171.686 25.4737 171.705 25.4709 171.724L25.4001 171.888C25.3121 172.101 25.1723 172.29 24.9933 172.436C24.8486 172.549 24.6822 172.632 24.5043 172.679C24.3264 172.727 24.1408 172.737 23.9587 172.71C23.7358 172.662 23.5212 172.582 23.3221 172.471L22.6412 172.148L19.2898 170.552C18.6619 170.247 17.9987 169.933 17.3134 169.606C17.1316 169.531 16.9595 169.435 16.8006 169.319C16.64 169.192 16.5087 169.032 16.4159 168.85C16.3241 168.662 16.2764 168.456 16.2764 168.247C16.2764 168.037 16.3241 167.831 16.4159 167.643C16.4929 167.453 16.5923 167.274 16.7121 167.108C16.9028 166.865 17.17 166.694 17.4703 166.623C17.7705 166.551 18.0862 166.584 18.3657 166.715L20.3376 167.665L23.6802 169.288C24.1533 169.518 24.5645 169.73 24.9624 169.916C25.1215 170.009 25.2595 170.134 25.3676 170.283C25.4757 170.432 25.5515 170.602 25.5902 170.782C25.6532 171.005 25.6532 171.24 25.5902 171.463C25.5626 171.541 25.5223 171.615 25.4709 171.68Z" fill="#263238"/>
<path d="M278.581 68.7327C279.013 68.6196 279.462 68.5808 279.907 68.6177C280.353 68.5818 280.801 68.6206 281.234 68.7327C280.801 68.8447 280.353 68.8836 279.907 68.8476C279.462 68.8846 279.013 68.8457 278.581 68.7327Z" fill="#263238"/>
<path d="M267.978 68.7326C269.744 68.5791 271.519 68.5791 273.284 68.7326C271.519 68.8862 269.744 68.8862 267.978 68.7326Z" fill="#263238"/>
<path d="M257.38 68.7327C259.146 68.5789 260.921 68.5789 262.686 68.7327C260.921 68.8864 259.146 68.8864 257.38 68.7327Z" fill="#263238"/>
<path d="M246.778 68.7326C248.543 68.5791 250.318 68.5791 252.084 68.7326C250.318 68.8862 248.543 68.8862 246.778 68.7326Z" fill="#263238"/>
<path d="M236.18 68.7327C237.945 68.5789 239.72 68.5789 241.486 68.7327C239.72 68.8864 237.945 68.8864 236.18 68.7327Z" fill="#263238"/>
<path d="M225.586 68.4983C226.471 68.4733 227.357 68.4969 228.239 68.5691C229.126 68.5637 230.012 68.6183 230.892 68.7327C230.013 68.8484 229.123 68.8706 228.239 68.799C227.346 68.8058 226.455 68.7048 225.586 68.4983Z" fill="#263238"/>
<path d="M216.213 64.2096C216.271 64.161 217.004 65.0939 218.185 65.9472C219.365 66.8005 220.466 67.2426 220.435 67.3134C220.176 67.2757 219.924 67.1934 219.693 67.0702C219.112 66.8178 218.561 66.5035 218.048 66.1329C217.3 65.637 216.673 64.9798 216.213 64.2096Z" fill="#263238"/>
<path d="M213.317 54.1908C213.375 54.1908 213.45 55.3713 213.631 56.8171C213.812 58.2629 214.073 59.4213 213.994 59.439C213.669 58.6094 213.469 57.7362 213.401 56.848C213.249 55.9706 213.221 55.0761 213.317 54.1908Z" fill="#263238"/>
<path d="M209.457 44.5389C210.115 45.1404 210.675 45.8417 211.115 46.617C211.617 47.3559 211.992 48.1733 212.225 49.0355C212.163 49.062 211.69 47.9743 210.921 46.7364C210.151 45.4984 209.404 44.5832 209.457 44.5389Z" fill="#263238"/>
<path d="M200.756 38.716C201.631 38.879 202.475 39.1773 203.258 39.6003C204.075 39.958 204.832 40.4381 205.505 41.024C205.469 41.0814 204.47 40.4448 203.161 39.8081C201.852 39.1714 200.734 38.7779 200.756 38.716Z" fill="#263238"/>
<path d="M190.268 38.3092C191.109 38.0124 191.99 37.8469 192.882 37.8184C193.509 37.7798 194.138 37.7798 194.765 37.8184C195.025 37.8088 195.285 37.8341 195.539 37.8936C195.287 37.9656 195.026 37.9954 194.765 37.982C194.283 37.982 193.624 38.013 192.899 38.0705C191.449 38.1545 190.282 38.3755 190.268 38.3092Z" fill="#263238"/>
<path d="M181.059 43.2656C181.603 42.5576 182.259 41.9425 183 41.444C183.694 40.882 184.473 40.4342 185.308 40.1176C185.339 40.1795 184.304 40.7587 183.137 41.6252C181.97 42.4918 181.107 43.3142 181.059 43.2656Z" fill="#263238"/>
<path d="M176.43 52.5902C176.497 50.8017 177.026 49.061 177.964 47.5366C178.026 47.5676 177.522 48.6331 177.08 50.0303C176.637 51.4274 176.5 52.5991 176.43 52.5902Z" fill="#263238"/>
<path d="M176.186 63.1838C176.086 62.3033 176.061 61.4158 176.111 60.531C176.085 59.6439 176.136 58.7562 176.266 57.8782C176.366 58.7587 176.392 59.6462 176.341 60.531C176.368 61.4181 176.316 62.3058 176.186 63.1838Z" fill="#263238"/>
<path d="M176.036 73.7818C175.932 72.9016 175.906 72.0139 175.957 71.129C175.932 70.2419 175.984 69.3544 176.111 68.4762C176.215 69.3565 176.242 70.2441 176.191 71.129C176.215 72.0161 176.163 72.9036 176.036 73.7818Z" fill="#263238"/>
<path d="M175.881 84.3799C175.78 83.4994 175.755 82.6118 175.806 81.727C175.78 80.8399 175.831 79.9522 175.961 79.0742C176.062 79.9547 176.087 80.8422 176.036 81.727C176.063 82.6141 176.011 83.5019 175.881 84.3799Z" fill="#263238"/>
<path d="M172.959 94.3722C172.901 94.3324 173.569 93.3508 174.206 92.0421C174.842 90.7334 175.192 89.6059 175.258 89.6236C175.12 90.5058 174.833 91.358 174.409 92.1438C174.053 92.962 173.563 93.7151 172.959 94.3722Z" fill="#263238"/>
<path d="M164.647 100.699C164.625 100.637 165.725 100.195 166.999 99.4921C168.272 98.7891 169.236 98.0994 169.276 98.1657C168.64 98.7898 167.908 99.3091 167.109 99.7043C166.345 100.162 165.514 100.498 164.647 100.699Z" fill="#263238"/>
<path d="M154.195 101.919C155.075 101.814 155.962 101.777 156.847 101.809H157.878H158.718C158.978 101.787 159.24 101.804 159.496 101.858C159.245 101.935 158.984 101.974 158.722 101.973L157.878 102.034C157.564 102.034 157.214 102.034 156.847 102.034C155.961 102.08 155.073 102.042 154.195 101.919Z" fill="#263238"/>
<path d="M144.18 98.8776C144.22 98.8201 145.224 99.4479 146.546 100.054C147.868 100.659 148.991 101.035 148.973 101.102C148.092 100.956 147.241 100.672 146.448 100.261C145.626 99.9198 144.86 99.4529 144.18 98.8776Z" fill="#263238"/>
<path d="M137.57 90.8086C137.637 90.7864 138.079 91.8874 138.817 93.1386C139.555 94.3899 140.289 95.3184 140.236 95.3493C139.585 94.7396 139.038 94.0271 138.618 93.2403C138.137 92.4932 137.783 91.6715 137.57 90.8086Z" fill="#263238"/>
<path d="M136.567 80.3299C136.681 81.2093 136.719 82.0968 136.682 82.9827C136.719 83.8686 136.68 84.7561 136.567 85.6355C136.45 84.7564 136.412 83.8686 136.452 82.9827C136.412 82.0968 136.45 81.209 136.567 80.3299Z" fill="#263238"/>
<path d="M136.567 69.7319C136.681 70.6112 136.719 71.4988 136.682 72.3847C136.719 73.2706 136.681 74.1581 136.567 75.0375C136.45 74.1584 136.412 73.2706 136.452 72.3847C136.412 71.4988 136.45 70.611 136.567 69.7319Z" fill="#263238"/>
<path d="M136.567 59.1295C136.68 60.0089 136.719 60.8963 136.682 61.7823C136.719 62.6682 136.681 63.5557 136.567 64.4351C136.45 63.5559 136.412 62.6682 136.452 61.7823C136.412 60.8963 136.45 60.0086 136.567 59.1295Z" fill="#263238"/>
<path d="M136.567 48.5314C136.681 49.4108 136.719 50.2983 136.682 51.1843C136.719 52.0702 136.68 52.9577 136.567 53.8371C136.45 52.9579 136.412 52.0702 136.452 51.1843C136.412 50.2983 136.45 49.4106 136.567 48.5314Z" fill="#263238"/>
<path d="M136.567 37.929C136.637 38.1824 136.671 38.4443 136.668 38.7072C136.69 39.1847 136.704 39.8479 136.704 40.5818C136.741 41.4678 136.703 42.3553 136.589 43.2347C136.472 42.3555 136.434 41.4678 136.474 40.5818C136.474 39.8479 136.474 39.1847 136.505 38.7072C136.488 38.4462 136.509 38.1841 136.567 37.929Z" fill="#263238"/>
<path d="M132.543 28.3258C133.214 28.9151 133.784 29.6095 134.232 30.3817C134.739 31.1166 135.12 31.931 135.36 32.7914C135.293 32.8179 134.816 31.7303 134.033 30.5055C133.251 29.2808 132.49 28.37 132.543 28.3258Z" fill="#263238"/>
<path d="M123.639 22.8477C125.398 23.1658 127.061 23.8811 128.502 24.939C128.467 24.9965 127.441 24.3996 126.106 23.8293C124.77 23.2589 123.621 22.914 123.639 22.8477Z" fill="#263238"/>
<path d="M113.133 22.5029C113.98 22.2226 114.864 22.0735 115.755 22.0607C116.494 22.0209 117.157 22.0607 117.639 22.0607C117.899 22.0505 118.16 22.0788 118.412 22.1447C118.16 22.21 117.899 22.2369 117.639 22.2243C117.157 22.2508 116.494 22.2243 115.768 22.2862C114.301 22.3791 113.133 22.5692 113.133 22.5029Z" fill="#263238"/>
<path d="M103.782 27.2204C104.97 25.8877 106.452 24.8506 108.111 24.1918C108.142 24.2537 107.094 24.8063 105.9 25.642C104.706 26.4776 103.848 27.269 103.782 27.2204Z" fill="#263238"/>
<path d="M98.8788 36.4036C98.9031 35.5107 99.0795 34.6285 99.4005 33.795C99.6502 32.9383 100.045 32.1307 100.568 31.4075C100.63 31.4384 100.081 32.4907 99.6172 33.8702C99.1529 35.2496 98.9451 36.4125 98.8788 36.4036Z" fill="#263238"/>
<path d="M98.6976 46.9928C98.5811 46.1136 98.5426 45.2259 98.5826 44.34C98.5426 43.454 98.5811 42.5663 98.6976 41.6871C98.8115 42.5665 98.8499 43.454 98.8125 44.34C98.8499 45.2259 98.8115 46.1134 98.6976 46.9928Z" fill="#263238"/>
<path d="M98.6976 57.5953C98.5811 56.7161 98.5426 55.8284 98.5826 54.9424C98.5429 54.0565 98.5813 53.1688 98.6976 52.2896C98.8111 53.169 98.8496 54.0565 98.8125 54.9424C98.8499 55.8284 98.8115 56.7159 98.6976 57.5953Z" fill="#263238"/>
<path d="M98.4279 68.18C98.3615 68.18 98.5605 66.995 98.5782 65.5271C98.5405 64.6411 98.5805 63.7534 98.6976 62.8743C98.8112 63.7537 98.8482 64.6413 98.8081 65.5271C98.8353 66.4267 98.7066 67.3242 98.4279 68.18Z" fill="#263238"/>
<path d="M93.2371 77.204C93.1929 77.1509 94.0639 76.3462 95.0057 75.2188C95.9474 74.0913 96.5443 73.0833 96.6062 73.1186C95.8332 74.7348 94.6766 76.1374 93.2371 77.204Z" fill="#263238"/>
<path d="M83.7666 81.6563C83.7666 81.59 84.9206 81.3778 86.3133 80.9489C87.706 80.52 88.7893 80.0646 88.8202 80.1088C88.0659 80.5855 87.2427 80.9434 86.3796 81.1699C85.5393 81.4673 84.6576 81.6314 83.7666 81.6563Z" fill="#263238"/>
<path d="M73.1774 82.0233C74.056 81.8993 74.9433 81.849 75.8302 81.873C76.7151 81.8198 77.603 81.8464 78.4831 81.9525C77.6045 82.0765 76.7172 82.1268 75.8302 82.1029C74.9454 82.1558 74.0575 82.1292 73.1774 82.0233Z" fill="#263238"/>
<path d="M62.5794 82.1604C63.4577 82.0337 64.3453 81.9834 65.2322 82.0101C66.117 81.9595 67.0045 81.9847 67.885 82.0852C67.0071 82.2148 66.1193 82.2666 65.2322 82.24C64.3473 82.2878 63.4599 82.2612 62.5794 82.1604Z" fill="#263238"/>
<path d="M51.9814 82.3107C52.8594 82.1811 53.7471 82.1293 54.6342 82.1559C55.5191 82.1056 56.4067 82.1322 57.287 82.2355C56.4088 82.3622 55.5212 82.4125 54.6342 82.3858C53.7494 82.4364 52.8619 82.4112 51.9814 82.3107Z" fill="#263238"/>
<path d="M41.3834 82.4654C42.2616 82.3387 43.1492 82.2884 44.0362 82.3151C44.921 82.2641 45.8085 82.2893 46.689 82.3903C45.8111 82.5203 44.9233 82.5721 44.0362 82.545C43.1513 82.5957 42.2636 82.5691 41.3834 82.4654Z" fill="#263238"/>
<path d="M33.3984 82.5671C33.8303 82.4508 34.2784 82.406 34.7248 82.4345C35.1692 82.3922 35.6176 82.4251 36.0512 82.5317C35.6197 82.6502 35.1712 82.6951 34.7248 82.6644C34.2804 82.7114 33.8312 82.6785 33.3984 82.5671Z" fill="#263238"/>
<path d="M121.578 15.5657C121.579 15.0806 121.468 14.6018 121.254 14.1666C121.04 13.7314 120.728 13.3516 120.343 13.0566C119.957 12.7616 119.509 12.5595 119.033 12.466C118.557 12.3725 118.066 12.3901 117.598 12.5174C117.13 12.6448 116.698 12.8784 116.335 13.2002C115.972 13.5219 115.688 13.9232 115.505 14.3726C115.323 14.822 115.246 15.3075 115.282 15.7913C115.317 16.2751 115.464 16.7441 115.711 17.1618C115.835 17.3652 115.985 17.5111 116.153 17.7278L117.997 20.1595C118.05 20.2292 118.119 20.2856 118.197 20.3245C118.276 20.3634 118.362 20.3836 118.45 20.3836C118.538 20.3836 118.624 20.3634 118.703 20.3245C118.781 20.2856 118.85 20.2292 118.903 20.1595L120.703 17.7764C120.86 17.582 121.008 17.3798 121.145 17.1707C121.43 16.6842 121.58 16.1299 121.578 15.5657ZM118.439 16.9408C118.164 16.9408 117.896 16.8593 117.668 16.7068C117.439 16.5542 117.261 16.3374 117.156 16.0837C117.051 15.8301 117.024 15.5509 117.077 15.2816C117.131 15.0123 117.263 14.7649 117.457 14.5708C117.651 14.3766 117.899 14.2444 118.168 14.1908C118.437 14.1372 118.717 14.1647 118.97 14.2698C119.224 14.3749 119.441 14.5528 119.593 14.7811C119.746 15.0095 119.827 15.2779 119.827 15.5525C119.827 15.9207 119.681 16.2738 119.421 16.5341C119.16 16.7945 118.807 16.9408 118.439 16.9408Z" fill="#9262F2"/>
<path d="M241.097 62.2377C241.097 61.7531 240.986 61.2749 240.772 60.8402C240.557 60.4056 240.246 60.0262 239.861 59.7316C239.476 59.4369 239.029 59.2349 238.553 59.1413C238.078 59.0477 237.587 59.0649 237.119 59.1917C236.652 59.3185 236.219 59.5514 235.856 59.8724C235.493 60.1933 235.209 60.5937 235.026 61.0423C234.842 61.4909 234.765 61.9757 234.8 62.4591C234.834 62.9425 234.98 63.4114 235.225 63.8294C235.344 64.0328 235.495 64.1787 235.667 64.3909L237.498 66.8138C237.551 66.8801 237.618 66.9337 237.694 66.9705C237.771 67.0073 237.855 67.0265 237.94 67.0265C238.025 67.0265 238.108 67.0073 238.185 66.9705C238.262 66.9337 238.329 66.8801 238.382 66.8138L240.181 64.4307C240.339 64.2363 240.486 64.0341 240.623 63.8249C240.92 63.3476 241.083 62.7995 241.097 62.2377ZM237.944 63.6083C237.669 63.6092 237.4 63.5285 237.172 63.3765C236.943 63.2245 236.764 63.0079 236.658 62.7543C236.553 62.5007 236.524 62.2215 236.578 61.9519C236.631 61.6823 236.762 61.4345 236.956 61.2399C237.15 61.0453 237.398 60.9126 237.667 60.8587C237.937 60.8048 238.216 60.832 238.47 60.9369C238.724 61.0419 238.941 61.2198 239.094 61.4482C239.246 61.6766 239.328 61.9452 239.328 62.22C239.329 62.4021 239.293 62.5825 239.224 62.7509C239.155 62.9194 239.053 63.0724 238.924 63.2014C238.796 63.3304 238.643 63.4327 238.475 63.5025C238.307 63.5724 238.126 63.6083 237.944 63.6083Z" fill="#9262F2"/>
<path d="M196.799 31.0228C196.801 30.5375 196.69 30.0584 196.476 29.6228C196.262 29.1872 195.951 28.8068 195.566 28.5113C195.181 28.2158 194.733 28.0132 194.257 27.9192C193.781 27.8253 193.289 27.8425 192.821 27.9695C192.353 28.0966 191.92 28.3301 191.557 28.6518C191.193 28.9735 190.909 29.3747 190.726 29.8242C190.543 30.2738 190.467 30.7594 190.503 31.2434C190.538 31.7274 190.685 32.1966 190.932 32.6145C191.051 32.8179 191.201 32.9638 191.374 33.1804L193.204 35.6034C193.258 35.673 193.326 35.7295 193.405 35.7683C193.483 35.8072 193.57 35.8274 193.657 35.8274C193.745 35.8274 193.832 35.8072 193.91 35.7683C193.989 35.7295 194.057 35.673 194.111 35.6034L195.91 33.2202C196.068 33.0258 196.215 32.8237 196.352 32.6145C196.641 32.1333 196.795 31.5837 196.799 31.0228ZM193.651 32.3934C193.376 32.3943 193.107 32.3136 192.878 32.1616C192.649 32.0096 192.471 31.7931 192.365 31.5395C192.259 31.2859 192.231 31.0066 192.284 30.737C192.337 30.4674 192.469 30.2196 192.663 30.025C192.857 29.8304 193.105 29.6978 193.374 29.6438C193.643 29.5899 193.923 29.6171 194.177 29.7221C194.431 29.827 194.648 30.005 194.8 30.2334C194.953 30.4618 195.035 30.7304 195.035 31.0051C195.035 31.3726 194.889 31.725 194.63 31.9853C194.37 32.2455 194.018 32.3923 193.651 32.3934Z" fill="#455A64"/>
<path d="M66.877 72.9816C66.8808 72.3809 66.7457 71.7874 66.4821 71.2476C66.2185 70.7078 65.8337 70.2362 65.3576 69.8698C64.8816 69.5034 64.3272 69.2521 63.7379 69.1355C63.1486 69.0189 62.5403 69.0402 61.9606 69.1977C61.3809 69.3551 60.8455 69.6446 60.3962 70.0434C59.9469 70.4421 59.5959 70.9394 59.3707 71.4963C59.1455 72.0532 59.0521 72.6547 59.098 73.2537C59.1438 73.8527 59.3275 74.4329 59.6348 74.9491C59.7981 75.1894 59.9737 75.4211 60.1609 75.6433L62.4202 78.641C62.4852 78.7287 62.5698 78.8001 62.6674 78.8492C62.7649 78.8983 62.8726 78.9239 62.9818 78.9239C63.091 78.9239 63.1986 78.8983 63.2961 78.8492C63.3937 78.8001 63.4783 78.7287 63.5433 78.641L65.7539 75.6963C65.9569 75.4569 66.1458 75.2059 66.3199 74.9447C66.6775 74.3518 66.8699 73.674 66.877 72.9816ZM62.9773 74.6794C62.638 74.6794 62.3064 74.5788 62.0243 74.3903C61.7421 74.2018 61.5223 73.9339 61.3924 73.6204C61.2626 73.3069 61.2286 72.962 61.2948 72.6292C61.361 72.2965 61.5244 71.9908 61.7643 71.7509C62.0042 71.511 62.3099 71.3476 62.6427 71.2814C62.9754 71.2152 63.3204 71.2492 63.6338 71.379C63.9473 71.5089 64.2152 71.7287 64.4037 72.0108C64.5922 72.293 64.6928 72.6246 64.6928 72.9639C64.6928 73.4189 64.5121 73.8552 64.1904 74.177C63.8686 74.4987 63.4323 74.6794 62.9773 74.6794Z" fill="#455A64"/>
<path d="M137.451 60.8493C135.031 60.719 132.618 61.2219 130.452 62.3084C128.139 63.3872 125.955 64.9833 124.806 67.2603C123.656 69.5373 123.784 72.566 125.597 74.3699C122.113 75.2939 119.491 78.3933 118.395 81.8243C117.298 85.2553 117.533 88.9869 118.227 92.524C118.558 94.1953 119.146 96.0611 120.689 96.7774C121.68 97.2195 122.9 97.1311 123.829 97.7014C124.757 98.2718 125.182 99.3152 125.77 100.204C126.331 101.054 127.06 101.781 127.912 102.341C128.763 102.901 129.72 103.282 130.723 103.46C131.726 103.639 132.755 103.612 133.748 103.38C134.74 103.149 135.675 102.718 136.496 102.114L143.641 64.1433C142.239 62.1802 139.852 61.0527 137.451 60.8493Z" fill="#455A64"/>
<path d="M142.252 64.9391C142.105 65.1491 141.941 65.3472 141.762 65.5315C141.43 65.9029 140.948 66.4158 140.338 67.079C138.772 68.7902 137.016 70.3166 135.103 71.6286C133.172 72.9441 130.963 73.7946 128.648 74.1134C127.948 74.2006 127.242 74.2154 126.539 74.1576C126.291 74.1576 126.097 74.1046 125.969 74.0869C125.902 74.0821 125.836 74.0671 125.774 74.0427C125.774 74.0427 126.053 74.0427 126.543 74.0692C127.239 74.0923 127.936 74.0538 128.626 73.9543C130.901 73.5916 133.069 72.7327 134.975 71.4385C136.87 70.1372 138.629 68.647 140.223 66.9906L141.695 65.4918C141.866 65.2928 142.052 65.108 142.252 64.9391Z" fill="#263238"/>
<path d="M128.325 76.3153C128.299 76.3153 128.184 76.1384 128.086 75.8024C127.973 75.3546 127.95 74.8885 128.02 74.4318C128.093 73.9756 128.258 73.5392 128.506 73.1496C128.701 72.8534 128.869 72.7075 128.891 72.7075C128.597 73.254 128.382 73.8388 128.25 74.4451C128.185 75.0689 128.211 75.6987 128.325 76.3153Z" fill="#263238"/>
<path d="M130.73 77.7257C130.771 77.7908 130.804 77.8606 130.828 77.9335C130.885 78.0706 130.974 78.274 131.066 78.5481C131.341 79.3083 131.567 80.085 131.743 80.8737C132.362 83.4904 132.362 86.2155 131.743 88.8322C131.088 91.4509 129.653 93.8086 127.627 95.5925C127.014 96.125 126.342 96.5849 125.624 96.9631C125.376 97.1046 125.182 97.1797 125.031 97.246C124.962 97.2792 124.889 97.3058 124.815 97.3256C125.063 97.1643 125.32 97.0167 125.584 96.8835C126.276 96.4803 126.924 96.0077 127.52 95.4731C129.48 93.6792 130.871 91.3505 131.522 88.7747C132.133 86.1942 132.159 83.5096 131.597 80.9179C131.394 79.9187 131.155 79.1494 131 78.5835C130.892 78.3036 130.802 78.0171 130.73 77.7257Z" fill="#263238"/>
<path d="M131.959 83.7078C131.776 83.6877 131.595 83.6477 131.42 83.5885C131.075 83.4956 130.576 83.3718 129.957 83.2259C126.735 82.4696 123.424 82.1719 120.119 82.3416C119.487 82.3726 118.974 82.408 118.62 82.4389C118.437 82.4603 118.251 82.4603 118.068 82.4389C118.244 82.3815 118.427 82.3444 118.611 82.3284C118.961 82.2709 119.474 82.2134 120.11 82.1604C123.432 81.8956 126.774 82.1946 129.996 83.0446C130.615 83.2082 131.106 83.3585 131.442 83.4868C131.623 83.5381 131.797 83.6124 131.959 83.7078Z" fill="#263238"/>
<g opacity="0.3">
<path opacity="0.3" d="M126.083 74.0648C128.489 75.6123 131.734 75.4354 134.281 74.1311C136.827 72.8268 138.702 70.4083 139.688 67.7245C136.359 71.5711 131.416 74.361 126.083 74.0648Z" fill="black"/>
</g>
<g opacity="0.3">
<path opacity="0.3" d="M124.797 97.3167C125.796 97.2465 126.768 96.9565 127.642 96.4674C128.517 95.9782 129.272 95.302 129.855 94.4871C130.901 92.8304 131.534 90.9475 131.703 88.9957C131.062 90.665 130.25 92.2637 129.28 93.7664C128.72 94.4752 128.081 95.1176 127.375 95.6808C126.583 96.3288 125.716 96.8781 124.792 97.3167" fill="black"/>
</g>
<path d="M127.282 82.5671C127.443 82.9323 127.549 83.3199 127.596 83.7166C127.671 84.0792 127.755 84.4992 127.883 84.9679C127.961 85.2335 127.961 85.5158 127.883 85.7814C127.84 85.9372 127.747 86.0746 127.618 86.1727C127.49 86.2709 127.333 86.3244 127.171 86.3252C127.013 86.3034 126.865 86.2363 126.744 86.1319C126.623 86.0276 126.535 85.8905 126.49 85.7372C126.415 85.4728 126.415 85.1925 126.49 84.9281C126.618 84.4462 126.756 84.0438 126.866 83.6857C126.965 83.301 127.099 82.9265 127.268 82.5671C127.224 82.9633 127.141 83.3543 127.021 83.7343C126.924 84.1101 126.813 84.5257 126.698 84.9723C126.636 85.1996 126.636 85.4392 126.698 85.6665C126.729 85.7778 126.791 85.8782 126.876 85.9564C126.961 86.0345 127.066 86.0872 127.18 86.1086C127.292 86.1054 127.401 86.0657 127.488 85.9955C127.576 85.9253 127.639 85.8284 127.666 85.7195C127.726 85.4935 127.726 85.2558 127.666 85.0298C127.561 84.6118 127.48 84.1882 127.423 83.7608C127.352 83.0181 127.282 82.5759 127.282 82.5671Z" fill="#263238"/>
<path d="M137.747 68.3568C137.259 68.1123 136.786 67.8377 136.332 67.5344C135.217 66.8402 134.061 66.2141 132.87 65.6598C131.682 65.1083 130.43 64.7073 129.143 64.466C128.153 64.2847 127.525 64.2803 127.525 64.2405C127.67 64.2119 127.819 64.203 127.967 64.214C128.368 64.2158 128.768 64.2454 129.165 64.3024C130.481 64.5008 131.761 64.8864 132.968 65.4475C134.169 66.0036 135.324 66.6556 136.421 67.3974C136.841 67.6759 137.177 67.9103 137.407 68.0783C137.531 68.1566 137.646 68.2502 137.747 68.3568Z" fill="#263238"/>
<path d="M137.084 68.0606C137.11 68.0606 137.132 68.2109 137.009 68.401C136.925 68.5263 136.806 68.6241 136.667 68.6822C136.527 68.7404 136.374 68.7564 136.226 68.7282L136.08 68.7017L136.147 68.5646C136.275 68.3083 136.499 68.1129 136.77 68.0208C136.973 67.9545 137.106 67.981 137.11 68.0208C137.115 68.0606 136.995 68.0915 136.836 68.1844C136.63 68.2979 136.462 68.4703 136.354 68.6796L136.279 68.516C136.39 68.5342 136.503 68.5252 136.609 68.4898C136.716 68.4543 136.812 68.3935 136.889 68.3126C137.009 68.1756 137.048 68.0562 137.084 68.0606Z" fill="#263238"/>
<path d="M174.431 67.2117C174.431 67.2117 172.663 64.886 172.663 63.9443L173.397 58.4706C173.397 58.4706 173.715 57.9179 174.21 58.8332C174.652 59.6732 174.405 60.9731 174.405 60.9731L174.714 62.2597L175.382 61.287L176.133 57.6306C176.133 57.6306 176.611 54.9777 177.018 55.2651C177.424 55.5525 177.548 56.3086 177.34 57.4493C177.133 58.59 176.867 60.0358 176.867 60.0358C176.867 60.0358 176.814 60.4779 177.239 59.7307C177.663 58.9835 178.123 55.7824 178.295 55.3535C178.468 54.9247 178.521 53.784 179.18 53.8459C179.838 53.9078 179.454 55.3624 179.454 55.3624L178.826 60.0756C178.826 60.0756 179.436 58.1788 179.551 57.8649C179.666 57.551 179.847 56.5075 180.068 55.9416C180.289 55.3757 180.617 55.0838 180.904 55.1192C181.042 55.1271 181.171 55.1874 181.266 55.2877C181.36 55.3881 181.413 55.5208 181.412 55.6586L180.449 59.6909C180.449 59.6909 179.914 61.5258 179.949 61.6452C179.984 61.7645 180.661 60.8803 180.661 60.8803L181.183 59.5538C181.183 59.5538 181.625 57.7013 182.111 57.6482C182.597 57.5952 182.624 57.971 182.624 57.971L181.806 61.3578L180.307 65.222L178.888 68.1269C178.888 68.1269 176.907 67.8174 176.832 67.9191C176.757 68.0208 174.431 67.2117 174.431 67.2117Z" fill="#FFBE9D"/>
<path d="M177.942 65.5802C177.784 65.3086 177.648 65.0247 177.535 64.7313C177.26 64.0435 176.736 63.4847 176.067 63.1661C175.74 63.0231 175.373 62.9951 175.028 63.0866L174.913 63.1175L174.887 62.9937C174.758 62.4322 174.581 61.9149 174.502 61.5612C174.429 61.3741 174.398 61.1735 174.409 60.9731C174.501 61.1464 174.575 61.3286 174.63 61.517C174.814 61.9904 174.973 62.473 175.108 62.9628L174.962 62.8699C175.356 62.7542 175.778 62.7792 176.155 62.9407C176.564 63.1113 176.919 63.3875 177.186 63.7409C177.392 64.0247 177.562 64.3338 177.69 64.6606C177.826 64.9503 177.911 65.2614 177.942 65.5802Z" fill="#EB996E"/>
<path d="M159.116 64.5633L168.909 79.2024L173.33 66.4424L179.352 67.9235C179.352 67.9235 176.894 85.0784 175.957 86.7807C175.019 88.4829 172.079 90.9412 168.44 90.446C164.801 89.9508 157.555 80.1928 157.555 80.1928L159.116 64.5633Z" fill="#9262F2"/>
<path d="M170.116 85.0784C170.336 82.9383 169.872 80.7834 168.789 78.9239C169.02 79.1447 169.209 79.4053 169.347 79.6932C169.731 80.3638 170.009 81.0903 170.169 81.8464C170.336 82.6007 170.387 83.376 170.319 84.1455C170.307 84.466 170.238 84.7818 170.116 85.0784Z" fill="#263238"/>
<g opacity="0.3">
<path opacity="0.3" d="M159.854 83.3055C160.174 83.1359 160.449 82.8927 160.656 82.596C160.864 82.2993 160.998 81.9575 161.048 81.5988C161.143 80.8823 161.12 80.155 160.981 79.4456C160.588 76.5585 160.035 73.5519 159.655 70.6648L159.81 83.0048" fill="black"/>
</g>
<g opacity="0.3">
<path opacity="0.3" d="M170.218 84.3666C170.412 84.3307 170.594 84.2474 170.749 84.1239C170.903 84.0005 171.024 83.8408 171.102 83.6592C171.255 83.2904 171.308 82.8878 171.257 82.4919C171.187 81.7461 170.929 81.0303 170.506 80.4116C170.084 79.7929 169.512 79.2916 168.843 78.9548C169.807 80.5872 170.28 82.4633 170.204 84.3577" fill="black"/>
</g>
<path d="M170.372 159.941L175.97 172.683L191.975 165.945C191.237 164.46 181.023 165.216 181.023 165.216L177.486 156.563L170.372 159.941Z" fill="#9262F2"/>
<g opacity="0.6">
<path opacity="0.6" d="M176.421 166.272C176.287 166.385 176.199 166.542 176.174 166.715C176.148 166.888 176.188 167.064 176.284 167.21C176.391 167.347 176.547 167.438 176.72 167.465C176.892 167.491 177.069 167.45 177.212 167.351C177.353 167.232 177.445 167.065 177.471 166.882C177.496 166.699 177.453 166.514 177.349 166.361C177.223 166.229 177.052 166.151 176.87 166.143C176.688 166.134 176.509 166.197 176.372 166.317" fill="white"/>
</g>
<g opacity="0.6">
<path opacity="0.6" d="M175.97 172.683L175.466 171.357L190.998 165.388C190.998 165.388 191.843 165.388 191.975 165.932L175.97 172.683Z" fill="white"/>
</g>
<path d="M181.324 165.255C181.355 165.335 180.979 165.538 180.701 165.95C180.422 166.361 180.356 166.776 180.259 166.776C180.161 166.776 180.099 166.277 180.449 165.782C180.798 165.286 181.311 165.18 181.324 165.255Z" fill="#263238"/>
<path d="M183.725 165.101C183.778 165.167 183.495 165.441 183.367 165.883C183.239 166.326 183.314 166.71 183.234 166.737C183.155 166.763 182.916 166.348 183.084 165.799C183.252 165.251 183.694 165.026 183.725 165.101Z" fill="#263238"/>
<path d="M185.458 166.644C185.396 166.688 185.122 166.343 185.144 165.835C185.166 165.326 185.458 164.999 185.516 165.048C185.573 165.096 185.449 165.423 185.436 165.844C185.423 166.264 185.533 166.604 185.458 166.644Z" fill="#263238"/>
<path d="M180.298 163.169C180.298 163.253 179.892 163.297 179.463 163.514C179.034 163.73 178.746 164.013 178.676 163.956C178.605 163.898 178.822 163.487 179.33 163.239C179.838 162.992 180.307 163.093 180.298 163.169Z" fill="#263238"/>
<path d="M114.283 172.44L113.598 165.636L119.275 158.486L112.315 154.012L112.13 154.286L108.593 159.627L103.999 163.253L111.294 175.239L118.399 174.761C118.399 174.761 117.763 173.103 114.283 172.44Z" fill="#9262F2"/>
<g opacity="0.6">
<path opacity="0.6" d="M103.99 163.253L111.285 175.239L118.39 174.761L117.519 173.749L111.718 173.82L104.967 162.483L103.99 163.253Z" fill="white"/>
</g>
<path d="M114.018 169.319C113.973 169.394 113.545 169.191 112.996 169.244C112.448 169.297 112.059 169.549 112.001 169.482C111.944 169.416 112.302 168.983 112.974 168.93C113.646 168.877 114.088 169.261 114.018 169.319Z" fill="#263238"/>
<path d="M113.801 167.634C113.73 167.692 113.385 167.294 112.815 167.223C112.245 167.152 111.802 167.44 111.754 167.369C111.705 167.298 111.802 167.214 111.993 167.09C112.251 166.934 112.555 166.87 112.855 166.909C113.155 166.948 113.432 167.089 113.642 167.307C113.792 167.475 113.832 167.612 113.801 167.634Z" fill="#263238"/>
<path d="M113.699 165.459C113.624 165.507 113.354 165.11 112.85 164.973C112.346 164.835 111.909 165.026 111.869 164.95C111.829 164.875 111.931 164.809 112.121 164.725C112.378 164.616 112.664 164.597 112.933 164.672C113.202 164.746 113.438 164.91 113.602 165.136C113.721 165.309 113.735 165.441 113.699 165.459Z" fill="#263238"/>
<path d="M115.49 163.651C115.406 163.686 115.18 163.292 114.721 163.04C114.261 162.788 113.836 162.771 113.805 162.682C113.774 162.594 114.318 162.444 114.875 162.766C115.432 163.089 115.574 163.633 115.49 163.651Z" fill="#263238"/>
<path d="M116.317 162.13C116.281 162.156 116.029 161.886 115.649 161.427C115.432 161.161 115.207 160.892 114.99 160.613C114.84 160.451 114.716 160.266 114.623 160.065C114.593 159.995 114.577 159.92 114.577 159.844C114.577 159.768 114.593 159.692 114.623 159.623C114.659 159.545 114.718 159.479 114.791 159.433C114.864 159.388 114.948 159.364 115.034 159.366C115.289 159.398 115.528 159.502 115.724 159.667C116.198 160.025 116.521 160.547 116.631 161.13C116.726 161.458 116.691 161.809 116.533 162.112C116.51 161.799 116.471 161.488 116.414 161.179C116.329 160.857 116.178 160.556 115.972 160.295C115.851 160.146 115.711 160.014 115.556 159.901C115.408 159.783 115.234 159.702 115.048 159.667C115.021 159.665 114.994 159.671 114.97 159.684C114.946 159.698 114.927 159.718 114.915 159.742C114.893 159.807 114.893 159.877 114.915 159.941C114.998 160.112 115.102 160.273 115.225 160.419C115.428 160.71 115.631 160.993 115.83 161.272C116.04 161.528 116.204 161.818 116.317 162.13Z" fill="#263238"/>
<path d="M116.586 162.324C116.551 162.324 116.555 161.948 116.909 161.497C117.151 161.194 117.486 160.979 117.862 160.884C118.238 160.79 118.635 160.822 118.992 160.976C119.03 161.004 119.062 161.04 119.084 161.082C119.106 161.124 119.119 161.171 119.12 161.219C119.119 161.302 119.094 161.383 119.049 161.453C118.981 161.543 118.901 161.624 118.81 161.692C118.404 162.02 117.922 162.242 117.409 162.337C117.121 162.427 116.812 162.427 116.525 162.337C116.525 162.284 116.861 162.289 117.36 162.143C117.819 162.011 118.245 161.785 118.611 161.48C118.678 161.43 118.737 161.372 118.788 161.307C118.815 161.241 118.788 161.259 118.788 161.241C118.722 161.208 118.65 161.187 118.576 161.179C118.488 161.165 118.4 161.158 118.311 161.157C118.14 161.153 117.97 161.177 117.807 161.228C117.527 161.309 117.273 161.462 117.068 161.67C116.719 162.006 116.635 162.342 116.586 162.324Z" fill="#263238"/>
<g opacity="0.6">
<path opacity="0.6" d="M109.645 162.66C109.656 162.827 109.617 162.994 109.533 163.139C109.449 163.285 109.324 163.401 109.174 163.475C109.023 163.549 108.854 163.576 108.688 163.553C108.522 163.531 108.366 163.459 108.241 163.347C108.116 163.236 108.026 163.09 107.985 162.927C107.943 162.765 107.95 162.594 108.006 162.436C108.062 162.278 108.163 162.14 108.298 162.04C108.432 161.939 108.593 161.881 108.761 161.873C108.982 161.862 109.198 161.939 109.364 162.086C109.529 162.233 109.63 162.439 109.645 162.66Z" fill="white"/>
</g>
<path d="M147.204 41.6871C147.509 40.2265 148.034 38.8206 148.761 37.5178C149.502 36.2067 150.702 35.2162 152.13 34.7367C153.613 34.3484 155.177 34.3868 156.64 34.8473C157.675 35.2005 158.618 35.7789 159.403 36.5407C160.729 37.6858 161.406 39.472 161.963 41.13" fill="#9262F2"/>
<path d="M162.9 41.245C162.642 39.6375 161.778 38.19 160.486 37.1994C159.172 36.2795 157.623 35.7547 156.021 35.6873C153.54 35.4972 150.64 36.1737 148.946 37.9864C147.253 39.7992 146.254 42.2663 146.466 44.477C146.559 45.4718 147.523 48.1644 148.288 48.8143L162.498 48.4474C163.347 47.0944 163.157 42.8322 162.9 41.245Z" fill="#9262F2"/>
<path d="M162.653 44.2206C162.499 42.2528 161.61 40.415 160.162 39.0737C158.714 37.7323 156.814 36.9857 154.84 36.9828H154.433C150.047 37.2304 147.801 41.0902 148.177 45.4674L148.946 65.6907H158.996L158.908 59.1073C158.908 59.1073 163.126 58.4618 163.183 54.2438C163.21 52.21 162.927 48.0141 162.653 44.2206Z" fill="#FFBE9D"/>
<path d="M158.939 59.1029C156.982 59.0992 155.067 58.5345 153.421 57.4758C153.421 57.4758 154.712 60.5089 158.917 60.1287L158.939 59.1029Z" fill="#EB996E"/>
<path d="M160.99 47.5366C160.99 47.6935 160.93 47.8443 160.821 47.9573C160.712 48.0703 160.563 48.1366 160.407 48.1423C160.33 48.1483 160.253 48.1389 160.18 48.1147C160.107 48.0904 160.04 48.0518 159.982 48.0011C159.925 47.9504 159.878 47.8887 159.844 47.8195C159.811 47.7504 159.791 47.6752 159.788 47.5985C159.787 47.4416 159.848 47.2908 159.957 47.1778C160.066 47.0648 160.214 46.9985 160.371 46.9928C160.448 46.9868 160.525 46.9962 160.598 47.0204C160.671 47.0447 160.738 47.0833 160.796 47.134C160.853 47.1847 160.9 47.2464 160.934 47.3156C160.967 47.3848 160.986 47.4599 160.99 47.5366Z" fill="#263238"/>
<path d="M161.72 46.2809C161.645 46.3605 161.189 46.0201 160.544 46.0201C159.898 46.0201 159.421 46.3428 159.35 46.2632C159.279 46.1836 159.39 46.0908 159.597 45.9405C159.878 45.7463 160.211 45.6429 160.552 45.6442C160.889 45.6448 161.217 45.7515 161.49 45.9493C161.689 46.1041 161.768 46.2455 161.72 46.2809Z" fill="#263238"/>
<path d="M154.76 47.8417C154.762 47.9981 154.702 48.149 154.594 48.2621C154.486 48.3752 154.338 48.4416 154.181 48.4474C154.105 48.4528 154.028 48.443 153.955 48.4185C153.883 48.394 153.816 48.3553 153.758 48.3047C153.701 48.2542 153.654 48.1927 153.62 48.1238C153.586 48.0549 153.567 47.9801 153.562 47.9036C153.56 47.7463 153.619 47.5944 153.727 47.4803C153.836 47.3663 153.984 47.2992 154.141 47.2934C154.218 47.288 154.295 47.298 154.368 47.3228C154.441 47.3475 154.508 47.3866 154.566 47.4376C154.624 47.4887 154.671 47.5507 154.704 47.6201C154.737 47.6894 154.757 47.7648 154.76 47.8417Z" fill="#263238"/>
<path d="M155.344 46.6037C155.273 46.6832 154.814 46.3428 154.168 46.3472C153.522 46.3516 153.045 46.67 152.974 46.5904C152.904 46.5108 153.018 46.4135 153.226 46.2632C153.506 46.068 153.84 45.9659 154.181 45.9714C154.518 45.9695 154.846 46.0748 155.119 46.2721C155.313 46.4268 155.384 46.5683 155.344 46.6037Z" fill="#263238"/>
<path d="M157.696 51.1975C158.038 51.0911 158.391 51.0273 158.749 51.0074C158.912 51.0074 159.067 50.9587 159.098 50.8482C159.112 50.6772 159.073 50.5059 158.987 50.3574L158.501 49.0973C157.824 47.3023 157.338 45.8255 157.409 45.799C157.48 45.7725 158.09 47.205 158.762 49.0001C158.925 49.4422 159.08 49.8843 159.23 50.269C159.334 50.4692 159.363 50.6991 159.314 50.9189C159.29 50.9773 159.253 51.0292 159.206 51.0707C159.158 51.1121 159.101 51.1419 159.04 51.1577C158.95 51.1843 158.856 51.1977 158.762 51.1975C158.408 51.2425 158.05 51.2425 157.696 51.1975Z" fill="#263238"/>
<path d="M155.786 51.6396C155.892 51.6396 155.892 52.3382 156.494 52.8378C157.095 53.3374 157.842 53.2799 157.847 53.3595C157.851 53.4391 157.683 53.4966 157.365 53.5054C156.953 53.5087 156.552 53.368 156.233 53.1075C155.927 52.8572 155.732 52.4967 155.689 52.1039C155.662 51.812 155.738 51.6352 155.786 51.6396Z" fill="#263238"/>
<path d="M155.68 45.1358C155.618 45.3126 154.968 45.2375 154.212 45.3392C153.456 45.4409 152.842 45.6487 152.736 45.4939C152.691 45.4187 152.797 45.2507 153.041 45.0783C153.369 44.8662 153.742 44.7317 154.13 44.685C154.519 44.6382 154.913 44.6805 155.282 44.8086C155.578 44.9147 155.707 45.0518 155.68 45.1358Z" fill="#263238"/>
<path d="M161.879 44.4107C161.755 44.5698 161.194 44.4726 160.552 44.5301C159.911 44.5875 159.359 44.7511 159.226 44.6141C159.164 44.5433 159.226 44.3886 159.465 44.225C159.782 44.018 160.148 43.8976 160.526 43.8757C160.901 43.8384 161.28 43.9025 161.622 44.0614C161.839 44.1896 161.932 44.3311 161.879 44.4107Z" fill="#263238"/>
<path d="M148.783 48.5889C148.712 48.5579 145.891 47.7267 145.975 50.6094C146.059 53.4921 148.938 52.8201 148.942 52.7273C148.946 52.6344 148.783 48.5889 148.783 48.5889Z" fill="#FFBE9D"/>
<path d="M148.283 51.6617C148.283 51.6617 148.23 51.6971 148.146 51.7413C148.027 51.79 147.894 51.79 147.775 51.7413C147.585 51.6292 147.428 51.4685 147.321 51.2758C147.214 51.0831 147.16 50.8653 147.165 50.6448C147.15 50.3973 147.191 50.1497 147.284 49.9197C147.308 49.8292 147.355 49.746 147.419 49.6774C147.483 49.6088 147.562 49.5569 147.651 49.5262C147.708 49.5093 147.769 49.5128 147.824 49.5362C147.879 49.5596 147.924 49.6014 147.952 49.6544C147.991 49.734 147.974 49.7915 147.991 49.7959C148.009 49.8003 148.049 49.7473 148.022 49.6279C148.005 49.5578 147.964 49.4955 147.907 49.4511C147.826 49.3924 147.724 49.3685 147.624 49.3847C147.507 49.412 147.398 49.4691 147.309 49.5504C147.22 49.6317 147.154 49.7345 147.116 49.849C146.999 50.1003 146.947 50.3771 146.966 50.6537C146.958 50.9111 147.027 51.1649 147.164 51.3829C147.301 51.6009 147.5 51.7734 147.735 51.8784C147.811 51.8973 147.889 51.8992 147.966 51.8839C148.042 51.8686 148.115 51.8365 148.177 51.79C148.279 51.7325 148.292 51.6662 148.283 51.6617Z" fill="#EB996E"/>
<path d="M150.675 40.0203L152.099 38.7911L156.626 39.4853L159.81 38.6673L160.645 39.5825C160.287 40.0645 161.048 38.0085 160.323 37.4603C158.762 36.2754 157.444 36.3196 155.459 36.2842C153.474 36.2488 149.512 38.6364 148.093 39.9893C146.957 41.0725 146.966 42.0055 146.966 42.0055C146.784 43.5662 147.655 45.3347 148 46.869C148.181 47.656 148.526 50.0435 148.526 50.0435C149.19 50.0435 149.411 49.5174 149.335 48.863L149.212 46.2942C149.876 45.7709 150.351 45.0451 150.565 44.2271C150.779 43.4091 150.72 42.5437 150.397 41.7623C150.246 41.5324 149.879 40.4624 150.675 40.0203Z" fill="#263238"/>
<path d="M150.087 40.71C150.241 40.3058 150.518 39.9601 150.879 39.7221C151.24 39.484 151.667 39.3656 152.099 39.3836C152.965 39.4401 153.78 39.813 154.389 40.4315C154.544 40.5982 154.718 40.7465 154.906 40.8736C155.001 40.9321 155.109 40.966 155.22 40.9722C155.331 40.9784 155.442 40.9567 155.543 40.909C155.605 40.878 155.667 40.8294 155.733 40.8471C155.779 40.8658 155.817 40.9003 155.839 40.9444C156.003 41.2095 156.233 41.4274 156.507 41.5766C156.645 41.6474 156.801 41.6731 156.954 41.6501C157.107 41.6271 157.249 41.5565 157.36 41.4484C157.519 41.5936 157.716 41.6896 157.928 41.7245C158.14 41.7594 158.357 41.7318 158.554 41.645C158.75 41.5583 158.917 41.4161 159.034 41.2359C159.151 41.0557 159.213 40.8453 159.213 40.6304C159.407 40.6707 159.609 40.6546 159.795 40.5841C159.98 40.5136 160.142 40.3917 160.261 40.2325C160.47 39.9951 160.625 39.7142 160.712 39.41C160.8 39.1057 160.819 38.7858 160.769 38.4732C160.718 38.1607 160.598 37.8633 160.419 37.6025C160.239 37.3417 160.004 37.124 159.73 36.9651C159.295 36.7443 158.823 36.6078 158.337 36.5628C157.581 36.4568 156.819 36.3992 156.056 36.3903C155.72 36.3719 155.383 36.4123 155.061 36.5097C154.619 36.6689 154.256 37.027 153.797 37.0845C153.495 37.0982 153.194 37.05 152.912 36.943C152.505 36.8024 152.074 36.7394 151.643 36.7573C150.799 36.8325 150.1 37.4382 149.543 38.0837C149.123 38.5097 148.818 39.0364 148.659 39.6135C148.585 39.9033 148.599 40.2085 148.699 40.4904C148.799 40.7722 148.98 41.018 149.221 41.1964C149.318 41.263 149.429 41.3058 149.546 41.3212C149.663 41.3365 149.782 41.3241 149.893 41.2848C149.946 41.2625 149.995 41.2299 150.036 41.1887C150.077 41.1475 150.11 41.0986 150.132 41.0448C150.154 40.991 150.166 40.9333 150.166 40.8751C150.165 40.8169 150.154 40.7593 150.131 40.7056" fill="#263238"/>
<path d="M148.093 47.3067C147.784 45.096 148.155 42.4432 149.76 40.5553C151.365 38.6673 154.203 37.5134 156.082 37.8715C157.546 38.15 160.729 38.265 161.892 41.329L161.729 38.8C161.729 38.8 160.314 35.9261 156.136 36.0145C151.957 36.1029 150.136 36.5893 148.115 39.0476C147.442 39.7967 146.98 40.7118 146.777 41.6986C146.574 42.6855 146.638 43.7086 146.961 44.6627C147.253 45.5783 147.632 46.4637 148.093 47.3067Z" fill="#9262F2"/>
<path d="M159.602 36.638C159.549 36.626 159.497 36.6082 159.447 36.5849C159.35 36.5495 159.208 36.4876 159.005 36.4257C158.473 36.2337 157.926 36.0858 157.369 35.9836C156.545 35.8461 155.709 35.7972 154.875 35.8377C153.855 35.8854 152.847 36.0866 151.887 36.4346C150.927 36.7989 150.031 37.3138 149.234 37.9599C148.888 38.2417 148.57 38.5556 148.283 38.8973C148.142 39.052 148.027 39.2156 147.907 39.3704C147.788 39.5251 147.686 39.6799 147.598 39.8346C147.303 40.3154 147.054 40.8232 146.855 41.3511C146.78 41.5324 146.736 41.6827 146.7 41.7933C146.686 41.8457 146.665 41.8962 146.638 41.9436L146.678 41.7888C146.714 41.6872 146.749 41.5368 146.82 41.3467C147.004 40.8103 147.244 40.2947 147.536 39.8081C147.624 39.6533 147.735 39.4986 147.841 39.335C147.947 39.1714 148.075 39.0078 148.217 38.8486C148.507 38.5036 148.829 38.1855 149.176 37.898C149.971 37.2425 150.867 36.72 151.829 36.3506C152.799 35.9981 153.818 35.7982 154.849 35.7581C155.69 35.7172 156.532 35.7735 157.36 35.9261C157.917 36.0258 158.465 36.1737 158.996 36.3682C159.186 36.439 159.323 36.5097 159.438 36.5495L159.602 36.638Z" fill="#263238"/>
<path d="M148.372 43.606C148.326 43.5938 148.283 43.5744 148.243 43.5485C148.133 43.4803 148.028 43.4035 147.929 43.3186C147.603 43.0357 147.354 42.6751 147.204 42.2701C147.054 41.8652 147.008 41.429 147.072 41.0018C147.092 40.8741 147.123 40.7483 147.165 40.626C147.196 40.5376 147.218 40.4934 147.222 40.4978C147.226 40.5022 147.173 40.6923 147.142 41.0107C147.103 41.4253 147.156 41.8436 147.297 42.2354C147.444 42.6255 147.677 42.9775 147.978 43.2656C148.208 43.4866 148.38 43.5928 148.372 43.606Z" fill="#263238"/>
<path d="M149.592 41.077C149.454 41.0167 149.33 40.9278 149.229 40.8161C148.967 40.5594 148.768 40.2443 148.65 39.8965C148.528 39.549 148.499 39.1754 148.566 38.8132C148.583 38.6571 148.632 38.5063 148.712 38.3711C148.712 38.3711 148.672 38.5391 148.632 38.8132C148.592 39.1635 148.629 39.5184 148.743 39.8523C148.86 40.1802 149.042 40.481 149.278 40.7365C149.459 40.9664 149.601 41.0637 149.592 41.077Z" fill="#263238"/>
<path d="M151.568 39.2333C151.455 39.1812 151.351 39.1093 151.263 39.021C151.036 38.8193 150.847 38.5781 150.706 38.3092C150.567 38.034 150.487 37.7328 150.472 37.4249C150.456 37.3003 150.466 37.1737 150.503 37.0535C150.525 37.4676 150.624 37.8738 150.795 38.2517C151.006 38.6131 151.266 38.9434 151.568 39.2333Z" fill="#263238"/>
<path d="M153.474 35.9703C153.552 36.0504 153.613 36.145 153.655 36.2488C153.779 36.4848 153.875 36.734 153.943 36.9916C154.008 37.2507 154.047 37.5159 154.057 37.783C154.068 37.8943 154.059 38.0064 154.031 38.1146C154 38.1146 154 37.6106 153.845 37.0181C153.691 36.4257 153.447 35.9835 153.474 35.9703Z" fill="#263238"/>
<path d="M157.144 35.8995C157.212 35.987 157.262 36.0879 157.29 36.1958C157.373 36.4509 157.407 36.7193 157.391 36.9872C157.378 37.2549 157.313 37.5175 157.201 37.7609C157.162 37.8663 157.1 37.9615 157.02 38.0395C157.165 37.7035 157.258 37.3471 157.294 36.9828C157.298 36.6162 157.248 36.2511 157.144 35.8995Z" fill="#263238"/>
<path d="M159.5 36.5627C159.584 36.6496 159.65 36.7517 159.695 36.8634C159.817 37.1304 159.884 37.4189 159.894 37.7123C159.902 38.0044 159.85 38.2952 159.739 38.5656C159.702 38.6813 159.642 38.7881 159.562 38.8795C159.707 38.5071 159.785 38.1119 159.792 37.7123C159.764 37.3148 159.665 36.9254 159.5 36.5627Z" fill="#263238"/>
<path d="M161.768 38.548C161.806 38.6372 161.823 38.7341 161.817 38.8309C161.834 39.3038 161.676 39.7663 161.375 40.1308C161.255 40.2679 161.163 40.3298 161.158 40.3209C161.349 40.0643 161.508 39.7851 161.631 39.4897C161.716 39.1828 161.763 38.8664 161.768 38.548Z" fill="#263238"/>
<path d="M162.913 41.0195C162.913 41.2655 162.832 41.5046 162.684 41.7004C162.564 41.914 162.375 42.0808 162.149 42.1735C162.307 42.006 162.455 41.8288 162.591 41.6429C162.816 41.3467 162.883 41.0151 162.913 41.0195Z" fill="#263238"/>
<path d="M163.068 43.8006C163.09 43.8006 163.068 43.973 162.913 44.1056C162.759 44.2383 162.595 44.2515 162.595 44.225C162.595 44.1985 162.723 44.1454 162.847 44.0305C162.971 43.9155 163.037 43.7917 163.068 43.8006Z" fill="#263238"/>
<path d="M148.062 46.0952C147.734 46.0494 147.42 45.9282 147.146 45.741C146.872 45.5539 146.646 45.3059 146.484 45.0164C146.909 45.505 147.452 45.8765 148.062 46.0952Z" fill="#263238"/>
<path d="M148.305 47.4879C148.305 47.51 148.164 47.6559 147.907 47.6692C147.651 47.6825 147.465 47.5587 147.492 47.5366C147.518 47.5145 147.677 47.5852 147.903 47.5675C148.128 47.5498 148.292 47.4658 148.305 47.4879Z" fill="#263238"/>
<g opacity="0.3">
<path opacity="0.3" d="M159.257 36.5406C158.353 35.9477 157.34 35.5424 156.276 35.3487C155.213 35.1551 154.122 35.177 153.067 35.4132C152.003 35.6849 151.004 36.1653 150.127 36.8264C149.251 37.4875 148.514 38.3161 147.96 39.2642C147.96 39.2642 150.565 35.9703 154.296 35.8553C158.028 35.7404 159.257 36.5406 159.257 36.5406Z" fill="black"/>
</g>
<path d="M156.374 47.6427C156.357 47.4687 156.329 47.2959 156.29 47.1254C156.166 46.6626 155.891 46.2546 155.508 45.967C155.247 45.7701 154.944 45.6368 154.623 45.5779C154.253 45.5106 153.872 45.5426 153.518 45.6708C153.129 45.8142 152.79 46.0695 152.545 46.4047C152.281 46.7643 152.139 47.1988 152.139 47.6449C152.139 48.091 152.281 48.5255 152.545 48.8851C152.79 49.2203 153.129 49.4757 153.518 49.6191C153.849 49.7393 154.204 49.7751 154.553 49.7234C154.901 49.6717 155.231 49.534 155.512 49.3228C155.895 49.0345 156.17 48.6269 156.295 48.1644C156.334 47.9925 156.362 47.8183 156.379 47.6427C156.391 47.821 156.375 48.0002 156.33 48.1733C156.219 48.6529 155.946 49.0794 155.556 49.3803C155.286 49.5863 154.971 49.727 154.637 49.7915C154.253 49.8671 153.855 49.8365 153.487 49.7031C153.287 49.6336 153.099 49.5337 152.93 49.4068C152.754 49.2841 152.597 49.135 152.466 48.9647C152.188 48.5892 152.037 48.1343 152.037 47.667C152.037 47.1997 152.188 46.7448 152.466 46.3694C152.595 46.1912 152.752 46.0346 152.93 45.9051C153.099 45.7782 153.287 45.6783 153.487 45.6089C153.831 45.483 154.201 45.4465 154.563 45.503C154.925 45.5595 155.267 45.707 155.556 45.9316C155.946 46.2325 156.219 46.659 156.33 47.1387C156.371 47.3034 156.386 47.4734 156.374 47.6427Z" fill="#455A64"/>
<path d="M162.794 47.3907C162.794 47.3907 162.794 47.2006 162.706 46.8734C162.582 46.4105 162.306 46.0026 161.923 45.715C161.663 45.5172 161.36 45.3839 161.039 45.3259C160.669 45.2585 160.287 45.2906 159.933 45.4188C159.744 45.4881 159.565 45.585 159.403 45.7062C159.14 45.9021 158.927 46.1566 158.78 46.4494C158.633 46.7422 158.557 47.0653 158.557 47.3929C158.557 47.7205 158.633 48.0436 158.78 48.3364C158.927 48.6292 159.14 48.8838 159.403 49.0797C159.565 49.2009 159.744 49.2977 159.933 49.3671C160.264 49.4873 160.62 49.5231 160.968 49.4714C161.316 49.4197 161.646 49.282 161.928 49.0708C162.31 48.7825 162.585 48.3749 162.71 47.9124C162.794 47.5852 162.781 47.3907 162.799 47.3907C162.808 47.569 162.792 47.7477 162.75 47.9213C162.635 48.4004 162.361 48.8261 161.972 49.1283C161.701 49.3343 161.386 49.475 161.052 49.5395C160.668 49.6151 160.271 49.5845 159.903 49.4511C159.703 49.3807 159.515 49.2808 159.345 49.1548C159.113 48.9851 158.917 48.7711 158.768 48.5252C158.618 48.2792 158.519 48.0061 158.476 47.7217C158.433 47.4373 158.447 47.1471 158.516 46.868C158.586 46.5888 158.71 46.3262 158.881 46.0952C159.138 45.7457 159.494 45.481 159.903 45.3348C160.247 45.2089 160.617 45.1724 160.979 45.2289C161.341 45.2854 161.682 45.4328 161.972 45.6575C162.361 45.9597 162.635 46.3854 162.75 46.8646C162.79 47.0369 162.805 47.2141 162.794 47.3907Z" fill="#455A64"/>
<path d="M158.572 46.5728C158.572 46.5728 158.448 46.4888 158.236 46.3871C157.958 46.247 157.648 46.1827 157.338 46.2005C157.027 46.2184 156.727 46.3178 156.467 46.4888C156.264 46.617 156.162 46.7275 156.153 46.7142C156.22 46.5988 156.314 46.5016 156.427 46.4313C156.684 46.2387 156.991 46.125 157.312 46.1041C157.636 46.0867 157.958 46.1635 158.24 46.3252C158.369 46.3803 158.482 46.4652 158.572 46.5728Z" fill="#455A64"/>
<path d="M152.227 47.2447C152.227 47.2713 151.374 47.5631 150.299 47.8991C149.225 48.2351 148.35 48.4783 148.345 48.4562C148.341 48.4341 149.198 48.1379 150.268 47.8018C151.338 47.4658 152.218 47.2182 152.227 47.2447Z" fill="#455A64"/>
<path d="M154.15 49.4245C154.023 49.4343 153.895 49.4178 153.775 49.3759C153.48 49.2918 153.209 49.1405 152.983 48.9337C152.756 48.7229 152.581 48.4627 152.47 48.1733C152.419 48.0564 152.393 47.9297 152.395 47.8019C152.449 47.9141 152.496 48.0293 152.537 48.1467C152.792 48.6855 153.249 49.1018 153.81 49.3051C153.925 49.3389 154.039 49.3787 154.15 49.4245Z" fill="white"/>
<path d="M159.412 48.7215C159.412 48.7215 159.275 48.695 159.124 48.5314C158.942 48.3156 158.821 48.0543 158.775 47.7753C158.718 47.4997 158.718 47.2153 158.775 46.9397C158.792 46.8247 158.839 46.7163 158.912 46.6258C158.912 46.6258 158.877 46.7496 158.841 46.9574C158.8 47.2225 158.8 47.4925 158.841 47.7577C158.887 48.0207 158.991 48.2702 159.146 48.4872C159.229 48.5719 159.318 48.6502 159.412 48.7215Z" fill="white"/>
<path d="M156.304 51.7899C156.304 51.7678 156.365 51.6573 156.489 51.5379C156.613 51.4185 156.719 51.3345 156.741 51.3566C156.763 51.3787 156.679 51.4893 156.556 51.6086C156.432 51.728 156.326 51.8076 156.304 51.7899Z" fill="#263238"/>
<path d="M156.613 51.9801C156.613 51.9801 156.675 51.8253 156.794 51.675C156.914 51.5247 157.029 51.4097 157.046 51.4274C157.064 51.4451 156.989 51.5821 156.869 51.7325C156.75 51.8828 156.635 51.9978 156.613 51.9801Z" fill="#263238"/>
<path d="M156.931 52.2144C156.905 52.2144 156.958 52.0596 157.042 51.896C157.126 51.7325 157.219 51.6131 157.245 51.6219C157.272 51.6308 157.219 51.7811 157.13 51.9447C157.042 52.1083 156.953 52.2276 156.931 52.2144Z" fill="#263238"/>
<path d="M157.413 52.2188C157.387 52.2188 157.374 52.1171 157.382 51.9978C157.391 51.8784 157.422 51.7811 157.449 51.7811C157.475 51.7811 157.488 51.8828 157.48 52.0022C157.471 52.1216 157.444 52.2188 157.413 52.2188Z" fill="#263238"/>
<path d="M157.878 52.294C157.847 52.294 157.824 52.2056 157.824 52.0995C157.824 51.9934 157.847 51.9005 157.878 51.9005C157.909 51.9005 157.926 51.9889 157.926 52.0995C157.926 52.21 157.904 52.294 157.878 52.294Z" fill="#263238"/>
<path d="M158.311 52.3338C158.284 52.3338 158.236 52.2321 158.2 52.0906C158.165 51.9491 158.165 51.8254 158.2 51.8209C158.236 51.8165 158.275 51.927 158.306 52.0685C158.337 52.21 158.337 52.3294 158.311 52.3338Z" fill="#263238"/>
<path d="M148.345 52.8422C148.365 53.0161 148.32 53.1913 148.217 53.333C148.167 53.417 148.099 53.489 148.018 53.544C147.937 53.599 147.845 53.6356 147.748 53.6514C147.628 53.6671 147.507 53.6499 147.396 53.6016C147.285 53.5533 147.19 53.4757 147.12 53.3772C147.052 53.281 147.003 53.1719 146.977 53.0564C146.951 52.941 146.949 52.8216 146.97 52.7052C147.015 52.5153 147.13 52.3494 147.293 52.2409C147.361 52.1874 147.441 52.1491 147.525 52.1285C147.61 52.1079 147.698 52.1055 147.784 52.1216C147.625 52.1482 147.474 52.2085 147.341 52.2984C147.199 52.4077 147.102 52.5648 147.067 52.7405C147.037 52.9503 147.087 53.1638 147.209 53.3374C147.269 53.4216 147.351 53.488 147.446 53.53C147.541 53.5719 147.645 53.5879 147.748 53.5762C147.832 53.5644 147.913 53.5346 147.985 53.4888C148.057 53.4431 148.118 53.3824 148.164 53.3109C148.254 53.1677 148.315 53.0086 148.345 52.8422Z" fill="#263238"/>
<path d="M142.389 117.836C142.924 117.836 165.014 140.827 165.014 142.424C165.014 144.02 168.294 160.215 169.877 162.709C171.46 165.202 172.411 164.619 172.411 164.619L179.754 161.197C179.754 161.197 175.687 135.995 174.794 133.161C173.901 130.327 157.055 108.039 157.055 108.039L141.138 111.067L142.389 117.836Z" fill="#263238"/>
<path d="M134.232 106.341L129.643 134.682C129.643 134.682 115.287 149.056 114.393 150.656C114.393 150.656 112.793 150.121 112.258 151.54C111.831 152.876 111.499 154.239 111.263 155.621L118.39 161.608C118.39 161.608 137.221 145.996 139.003 143.679C140.785 141.362 148.248 126.087 149.676 122.169C151.104 118.252 152.771 109.564 152.771 109.564L134.232 106.341Z" fill="#263238"/>
<path d="M168.714 137.29C168.652 137.599 168.545 137.897 168.396 138.175C168.08 138.865 167.701 139.526 167.264 140.147C166.832 140.774 166.334 141.354 165.779 141.875C165.56 142.106 165.3 142.295 165.014 142.432C165.216 142.195 165.433 141.97 165.664 141.76C166.176 141.206 166.647 140.615 167.074 139.992C168.091 138.577 168.648 137.251 168.714 137.29Z" fill="#455A64"/>
<path d="M132.216 136.645C131.652 136.606 131.118 136.375 130.704 135.99C130.247 135.667 129.911 135.2 129.749 134.664C130.092 135.074 130.459 135.462 130.85 135.827C131.288 136.127 131.744 136.401 132.216 136.645Z" fill="#455A64"/>
<path d="M117.4 154.357C116.68 153.99 116.058 153.456 115.587 152.8C115.115 152.144 114.808 151.385 114.69 150.585C114.988 151.31 115.352 152.005 115.777 152.663C116.262 153.279 116.806 153.846 117.4 154.357Z" fill="#455A64"/>
<path d="M140.157 110.532C140.142 110.642 140.111 110.75 140.064 110.851C139.96 111.133 139.836 111.408 139.692 111.673C138.74 113.446 137.232 114.856 135.399 115.688C135.126 115.814 134.844 115.92 134.555 116.006C134.452 116.049 134.343 116.073 134.232 116.077C134.232 116.037 134.674 115.882 135.329 115.542C136.197 115.095 137.001 114.531 137.716 113.866C138.428 113.195 139.045 112.431 139.551 111.593C139.936 110.948 140.104 110.515 140.157 110.532Z" fill="#455A64"/>
<path d="M151.413 117.774C151.349 118.022 151.266 118.264 151.166 118.5C150.971 118.995 150.724 119.649 150.41 120.445C149.755 122.076 148.836 124.331 147.735 126.785C146.634 129.239 145.56 131.428 144.773 133.002L143.826 134.859C143.719 135.09 143.593 135.314 143.451 135.526C143.532 135.283 143.631 135.047 143.747 134.819L144.631 132.931C145.383 131.335 146.431 129.142 147.527 126.692C148.624 124.243 149.57 122.001 150.26 120.379C150.6 119.6 150.879 118.955 151.086 118.464C151.178 118.226 151.287 117.996 151.413 117.774Z" fill="#455A64"/>
<path d="M147.54 60.3144C147.54 60.3144 142.677 62.273 141.549 65.6907C140.975 67.4195 137.623 80.0602 137.623 80.0602C137.623 80.0602 133.202 104.333 133.812 106.646L159.116 110.532C159.742 109.773 160.058 108.805 160 107.822L159.589 100.549L159.885 69.3737C159.889 69.1414 159.872 68.9092 159.836 68.6796L158.952 62.9318L159.235 60.4514L147.894 57.4537L147.54 60.3144Z" fill="#9262F2"/>
<path d="M146.86 58.3601C146.89 58.1665 146.961 57.9815 147.068 57.817C147.174 57.6525 147.314 57.5122 147.478 57.4051C147.642 57.298 147.827 57.2265 148.021 57.1953C148.214 57.1641 148.412 57.1738 148.602 57.2238L158.97 59.9607C159.282 60.0434 159.555 60.231 159.745 60.4918C159.935 60.7527 160.03 61.0709 160.013 61.3932L159.987 61.8353C159.974 62.0473 159.913 62.2537 159.809 62.4389C159.705 62.624 159.56 62.7831 159.386 62.904C159.211 63.025 159.011 63.1046 158.801 63.137C158.591 63.1694 158.377 63.1537 158.174 63.091L147.832 59.9164C147.51 59.8182 147.233 59.6064 147.054 59.3204C146.876 59.0343 146.806 58.6932 146.86 58.3601Z" fill="#9262F2"/>
<path d="M159.116 62.9672C158.933 62.9513 158.752 62.9173 158.576 62.8655L157.139 62.5029C155.923 62.1846 154.252 61.7336 152.413 61.2207L149.946 60.5222C149.636 60.4738 149.33 60.4029 149.03 60.3099C148.888 60.2647 148.75 60.2055 148.619 60.1331C148.548 60.0969 148.484 60.0491 148.429 59.9916C148.382 59.9324 148.34 59.8687 148.305 59.8015C148.199 59.5583 148.165 59.2896 148.208 59.0277C148.237 58.8103 148.295 58.5977 148.38 58.3955C148.496 58.1115 148.657 57.8485 148.858 57.6173C149.004 57.4626 149.101 57.4007 149.106 57.4095C148.848 57.7185 148.643 58.0681 148.5 58.4441C148.329 58.8507 148.317 59.3064 148.464 59.7219C148.562 59.943 148.818 60.027 149.092 60.1198C149.382 60.2058 149.677 60.2693 149.977 60.3099L152.448 60.9908C154.287 61.5037 155.954 61.9812 157.157 62.3172L158.576 62.7594C158.762 62.8112 158.943 62.8808 159.116 62.9672Z" fill="#263238"/>
<path d="M159.217 64.7357C159.242 64.8102 159.257 64.8874 159.261 64.9656C159.284 65.1425 159.31 65.3591 159.341 65.6244C159.403 66.1992 159.482 67.0304 159.558 68.0606C159.721 70.1209 159.885 72.9683 159.978 76.1163C160.071 79.2643 160.062 82.1205 159.978 84.1853C159.947 85.2155 159.903 86.0511 159.863 86.6259C159.841 86.8956 159.819 87.1123 159.805 87.2891C159.805 87.3671 159.793 87.4447 159.77 87.519C159.76 87.4427 159.76 87.3655 159.77 87.2891C159.77 87.1078 159.77 86.8912 159.77 86.6215C159.77 86.0467 159.805 85.2111 159.814 84.1809C159.845 82.1205 159.814 79.2688 159.735 76.1207C159.655 72.9727 159.505 70.1298 159.385 68.0739C159.323 67.0658 159.275 66.2434 159.235 65.6333C159.235 65.368 159.213 65.1469 159.204 64.97C159.2 64.8917 159.204 64.8131 159.217 64.7357Z" fill="#263238"/>
<path d="M151.86 58.2407C151.689 58.6565 151.552 59.0853 151.449 59.5229C151.417 59.9645 151.417 60.4078 151.449 60.8493C151.319 60.6471 151.231 60.4205 151.192 60.1833C151.152 59.9461 151.162 59.7033 151.219 59.4699C151.239 59.2327 151.306 59.0019 151.416 58.7909C151.526 58.5799 151.677 58.3929 151.86 58.2407Z" fill="#263238"/>
<path d="M154.805 58.9172C154.827 58.9172 154.933 59.041 155.021 59.2974C155.129 59.6392 155.149 60.0026 155.079 60.354C155.01 60.7055 154.853 61.0339 154.623 61.3091C154.447 61.5125 154.296 61.5965 154.279 61.5744C154.536 61.1858 154.73 60.7591 154.853 60.3099C154.907 59.8459 154.891 59.3763 154.805 58.9172Z" fill="#263238"/>
<path d="M157.674 59.713C157.696 59.713 157.816 59.8191 157.922 60.0667C158.06 60.396 158.103 60.7574 158.046 61.1099C157.989 61.4624 157.834 61.7918 157.599 62.0608C157.418 62.2641 157.267 62.3393 157.25 62.3172C157.551 61.9634 157.752 61.5345 157.83 61.076C157.908 60.6176 157.86 60.1466 157.692 59.713H157.674Z" fill="#263238"/>
<path d="M156.18 66.7297C155.225 63.9089 152.908 61.4462 149.99 60.867C147.072 60.2878 144.33 60.9068 142.248 63.3341L139.595 68.9714C140.771 68.317 142.655 64.4925 144.848 63.1926C147.041 61.8928 149.481 61.8662 151.285 63.6746C152.612 65.001 153.606 66.9287 153.576 68.821C153.514 72.5261 151.971 76.0013 150.848 79.5384C149.406 84.0748 148.265 88.9117 144.936 92.3206C142.261 95.0574 138.68 96.6889 135.209 98.2585C134.387 98.935 132.486 101.393 133.467 101.796C134.449 102.198 138.017 100.911 139.029 100.597C141.554 99.8281 144.176 99.0013 146.103 97.1885C147.872 95.504 148.854 93.1562 149.773 90.8837C151.542 86.4977 152.7 81.926 154.473 77.5356C155.976 73.7995 157.471 70.5498 156.18 66.7297Z" fill="#455A64"/>
<path d="M152.143 113.937L150.127 110.532L143.38 112.884C143.38 112.884 143.822 118.88 144.706 119.052C144.972 119.098 145.245 119.086 145.505 119.015C145.766 118.945 146.007 118.819 146.214 118.645C146.214 118.645 146.718 120.211 147.726 120.277L148.288 120.303C148.469 120.445 149.495 121.188 150.344 120.914C150.344 120.914 151.122 122.603 151.75 122.426C152.377 122.249 152.784 120.215 152.784 120.215L152.143 113.937Z" fill="#FFBE9D"/>
<path d="M146.05 62.3791C144.899 62.782 143.871 63.4757 143.067 64.393C142.263 65.3102 141.71 66.4198 141.461 67.614C140.135 73.9675 136.969 90.6051 137.097 92.9485C137.261 95.9285 142.942 113.587 142.942 113.587L150.901 111.191L147.288 91.2949C147.288 91.2949 152.926 72.6809 153.368 69.8512C153.854 66.7607 151.157 60.6106 146.05 62.3791Z" fill="#9262F2"/>
<path d="M146.05 62.3924C146.252 62.3123 146.459 62.2459 146.669 62.1934C147.283 62.0259 147.925 61.9927 148.553 62.0961C149.565 62.2842 150.488 62.7963 151.184 63.5552C152.654 65.1958 153.477 67.3164 153.496 69.5196C153.487 69.956 153.432 70.3902 153.332 70.8151C153.244 71.2572 153.133 71.6994 153.027 72.1415C152.585 73.91 152.037 75.8245 151.453 77.8495C150.282 81.8994 148.92 86.4313 147.408 91.3258V91.2772L151.029 111.173V111.275L150.932 111.306L147.2 112.425L142.955 113.702L142.845 113.733L142.814 113.627C141.633 110.006 140.519 106.469 139.494 103.047C138.985 101.336 138.49 99.6557 138.043 97.9977C137.822 97.1709 137.601 96.3529 137.411 95.5349C137.309 95.1282 137.225 94.717 137.146 94.3102C137.071 93.9027 137.026 93.4905 137.009 93.0767C137.031 92.2653 137.103 91.4561 137.225 90.6538C137.336 89.8668 137.446 89.093 137.57 88.3281C137.809 86.8027 138.07 85.3304 138.322 83.9067C138.83 81.0594 139.334 78.4198 139.799 76.019L141.076 69.5461C141.228 68.6514 141.428 67.7658 141.678 66.8933C141.924 66.1735 142.276 65.494 142.721 64.8772C143.337 64.0234 144.136 63.318 145.06 62.8124C145.377 62.631 145.712 62.4829 146.059 62.3703C146.059 62.3703 145.975 62.4145 145.807 62.4852C145.558 62.5887 145.316 62.7083 145.082 62.8434C144.176 63.3587 143.394 64.0665 142.792 64.917C142.358 65.5304 142.015 66.2036 141.775 66.9154C141.537 67.7804 141.344 68.657 141.196 69.5417C140.829 71.4473 140.413 73.6182 139.949 76.019C139.485 78.4198 139.003 81.0682 138.503 83.9112C138.256 85.3349 138.004 86.8072 137.765 88.3325C137.641 89.093 137.53 89.8668 137.424 90.6538C137.308 91.4449 137.239 92.2421 137.217 93.0413C137.245 93.4456 137.301 93.8474 137.385 94.2439C137.46 94.6507 137.548 95.053 137.65 95.4598C137.835 96.2733 138.061 97.0913 138.282 97.9136C138.724 99.5672 139.228 101.247 139.737 102.954C140.767 106.372 141.881 109.909 143.062 113.53L142.92 113.455L147.165 112.181L150.896 111.058L150.817 111.191C149.534 104.117 148.319 97.3831 147.213 91.2949V91.2683V91.2418C148.73 86.3473 150.105 81.8243 151.29 77.7787C151.878 75.7582 152.426 73.857 152.881 72.084C153.13 71.2452 153.292 70.3829 153.363 69.5108C153.347 67.3388 152.55 65.2451 151.117 63.6127C150.439 62.8625 149.536 62.3509 148.544 62.1536C147.924 62.044 147.289 62.0666 146.678 62.2199C146.521 62.2524 146.366 62.2938 146.214 62.3437C146.16 62.3629 146.106 62.3792 146.05 62.3924Z" fill="#263238"/>
<path d="M147.386 91.1888C146.12 90.2784 144.611 89.7686 143.053 89.7253C143.84 89.5953 144.646 89.6607 145.402 89.9159C146.158 90.1712 146.839 90.6083 147.386 91.1888Z" fill="#263238"/>
<g opacity="0.3">
<path opacity="0.3" d="M141.019 108.017C137.309 102.516 135.36 94.8276 137.482 89.3583C136.903 92.6346 137.455 95.6278 138.432 98.8068C139.409 101.986 140.577 105.156 140.767 108.476" fill="black"/>
</g>
<path d="M129.603 186.354L118.62 174.766L109.618 175.274L103.243 177.794L99.1971 186.354" fill="#F5F5F5"/>
<path d="M109.618 175.274L118.943 186.354H129.603L118.62 174.766L109.618 175.274Z" fill="#E0E0E0"/>
<path d="M99.1971 186.368C99.2119 186.311 99.2327 186.256 99.259 186.204L99.458 185.74C99.6525 185.32 99.9001 184.736 100.254 183.998L103.154 177.768V177.733H103.194L109.561 175.195H109.596L113.92 174.947L118.603 174.686H118.656L118.691 174.726L126.517 183.038L128.789 185.488C129.041 185.762 129.231 185.983 129.391 186.151C129.466 186.222 129.533 186.303 129.59 186.39C129.51 186.323 129.435 186.253 129.364 186.177L128.732 185.541L126.411 183.136C124.43 181.066 121.68 178.184 118.527 174.881L118.616 174.916L113.934 175.181L109.609 175.42H109.645L103.265 177.923L103.313 177.874C102.089 180.434 101.067 182.565 100.342 184.064L99.4978 185.784L99.2723 186.226C99.252 186.276 99.2268 186.323 99.1971 186.368Z" fill="#263238"/>
<path d="M49.5894 186.354L53.7809 179.077L61.4254 176.946L68.5748 183.025V186.354" fill="#EBEBEB"/>
<path d="M53.7809 179.077L68.5748 183.025L61.4254 176.946L53.7809 179.077Z" fill="#E0E0E0"/>
<path d="M68.5748 186.368C68.5581 186.292 68.5506 186.215 68.5527 186.138C68.5527 185.97 68.5527 185.753 68.5527 185.488C68.5527 184.886 68.5527 184.064 68.5217 183.038L68.5438 183.091L61.3679 177.043L61.474 177.065L59.7143 177.525L53.8074 179.161L53.8693 179.112L50.792 184.36C50.4206 184.979 50.1244 185.474 49.9077 185.837L49.669 186.226C49.6414 186.271 49.6103 186.314 49.5761 186.354C49.5906 186.303 49.6114 186.254 49.638 186.208L49.8503 185.806L50.6859 184.298L53.6748 179.028V178.988H53.719L59.6348 177.317L61.3768 176.835H61.4343L61.4785 176.875L68.6057 182.985L68.6322 183.007V183.043C68.6322 184.068 68.6057 184.891 68.5969 185.492C68.5969 185.757 68.5969 185.974 68.5969 186.142C68.5985 186.218 68.5911 186.294 68.5748 186.368Z" fill="#263238"/>
<path d="M201.366 173.271L190.755 167.227L172.123 174.014L157.073 186.354L210.315 186.08L201.366 173.271Z" fill="#F5F5F5"/>
<path d="M157.073 186.354L176.164 175.274L201.366 173.271L190.33 166.741L172.123 174.014L157.073 186.354Z" fill="#E0E0E0"/>
<path d="M184.503 186.213L194.04 179.678L202.737 179.059L195.459 180.677L191.692 186.177L184.503 186.213Z" fill="#E0E0E0"/>
<path d="M157.073 186.368C157.073 186.368 157.073 186.341 157.139 186.301L157.343 186.12L158.147 185.439L161.216 182.888L172.057 173.948L185.321 168.554L190.22 166.573L190.273 166.551L190.322 166.582L201.375 173.214L207.839 182.534L209.63 185.143L210.072 185.837C210.126 185.914 210.176 185.994 210.222 186.076C210.222 186.076 210.16 186.005 210.05 185.85L209.559 185.178C209.117 184.572 208.511 183.701 207.724 182.601L201.194 173.316L201.225 173.342L190.171 166.732H190.268L185.374 168.717L172.083 174.089H172.11L161.216 182.968L158.121 185.474L157.347 186.133L157.13 186.301L157.073 186.368Z" fill="#263238"/>
<path d="M203.033 179.037C202.806 179.089 202.576 179.12 202.343 179.13L200.446 179.298L194.044 179.793H194.102L193.054 180.509C190.711 182.114 188.584 183.56 187.036 184.595L185.202 185.793L184.693 186.116C184.578 186.186 184.512 186.222 184.507 186.213C184.555 186.161 184.609 186.115 184.667 186.076L185.149 185.718L186.948 184.444C188.473 183.374 190.587 181.906 192.93 180.301L193.978 179.585H194.005H194.044L200.446 179.17L202.352 179.068C202.578 179.042 202.806 179.031 203.033 179.037Z" fill="#263238"/>
<path d="M251.535 180.001L245.16 177.476L234.531 179.408L229.38 186.332L254.604 186.354L251.535 180.001Z" fill="#F5F5F5"/>
<path d="M234.531 179.408C234.84 179.351 251.535 180.001 251.535 180.001L245.16 177.481L234.531 179.408Z" fill="#E0E0E0"/>
<path d="M229.384 186.332C229.404 186.283 229.431 186.237 229.464 186.195L229.729 185.815L230.755 184.387L234.451 179.346L234.473 179.315H234.513L242.423 177.865L245.142 177.37H245.173H245.204L251.571 179.908H251.606V179.939L253.817 184.581L254.409 185.872L254.56 186.213C254.579 186.252 254.594 186.294 254.604 186.337C254.575 186.303 254.551 186.266 254.533 186.226L254.361 185.894C254.201 185.585 253.985 185.156 253.72 184.626C253.162 183.502 252.393 181.924 251.451 180.023L251.5 180.067L245.12 177.565H245.182L242.463 178.06L234.553 179.479L234.615 179.444C233.067 181.491 231.776 183.206 230.848 184.431L229.778 185.824L229.49 186.186C229.423 186.286 229.387 186.335 229.384 186.332Z" fill="#263238"/>
<path d="M298.875 186.368C298.875 186.429 232.554 186.482 150.724 186.482C68.8931 186.482 2.5549 186.416 2.5549 186.368C2.5549 186.319 68.8754 186.253 150.724 186.253C232.572 186.253 298.875 186.288 298.875 186.368Z" fill="#263238"/>
<path d="M116.936 189.865C116.936 189.931 107.434 189.98 95.7131 189.98C83.9921 189.98 74.4905 189.931 74.4905 189.865C74.4905 189.799 83.9876 189.75 95.7131 189.75C107.439 189.75 116.936 189.803 116.936 189.865Z" fill="#263238"/>
<path d="M101.196 192.633C101.196 192.694 98.1935 192.748 94.4972 192.748C90.801 192.748 87.7944 192.694 87.7944 192.633C87.7944 192.571 90.7965 192.518 94.4972 192.518C98.1979 192.518 101.196 192.557 101.196 192.633Z" fill="#263238"/>
</svg>
