<svg width="56" height="56" viewBox="0 0 56 56" fill="none" xmlns="http://www.w3.org/2000/svg">
<path d="M4 28C4 14.7452 14.7452 4 28 4C41.2548 4 52 14.7452 52 28C52 41.2548 41.2548 52 28 52C14.7452 52 4 41.2548 4 28Z" fill="#F4EBFF"/>
<path d="M37 26C37 33 28 39 28 39C28 39 19 33 19 26C19 23.6131 19.9482 21.3239 21.636 19.636C23.3239 17.9482 25.6131 17 28 17C30.3869 17 32.6761 17.9482 34.364 19.636C36.0518 21.3239 37 23.6131 37 26Z" stroke="url(#paint0_linear_667_14606)" stroke-width="2" stroke-linecap="round" stroke-linejoin="round"/>
<path d="M28 29C29.6569 29 31 27.6569 31 26C31 24.3431 29.6569 23 28 23C26.3431 23 25 24.3431 25 26C25 27.6569 26.3431 29 28 29Z" stroke="url(#paint1_linear_667_14606)" stroke-width="2" stroke-linecap="round" stroke-linejoin="round"/>
<path d="M28 48C16.9543 48 8 39.0457 8 28H0C0 43.464 12.536 56 28 56V48ZM48 28C48 39.0457 39.0457 48 28 48V56C43.464 56 56 43.464 56 28H48ZM28 8C39.0457 8 48 16.9543 48 28H56C56 12.536 43.464 0 28 0V8ZM28 0C12.536 0 0 12.536 0 28H8C8 16.9543 16.9543 8 28 8V0Z" fill="#F9F5FF"/>
<defs>
<linearGradient id="paint0_linear_667_14606" x1="19" y1="27.6207" x2="37" y2="27.6207" gradientUnits="userSpaceOnUse">
<stop stop-color="#8E2DE2"/>
<stop offset="1" stop-color="#4A00E0"/>
</linearGradient>
<linearGradient id="paint1_linear_667_14606" x1="19" y1="27.6207" x2="37" y2="27.6207" gradientUnits="userSpaceOnUse">
<stop stop-color="#8E2DE2"/>
<stop offset="1" stop-color="#4A00E0"/>
</linearGradient>
</defs>
</svg>
