<svg width="16" height="16" viewBox="0 0 16 16" fill="none" xmlns="http://www.w3.org/2000/svg">
<path d="M8.00001 9.44667C6.58001 9.44667 5.42001 8.29334 5.42001 6.86667C5.42001 5.44 6.58001 4.29333 8.00001 4.29333C9.42001 4.29333 10.58 5.44667 10.58 6.87334C10.58 8.3 9.42001 9.44667 8.00001 9.44667ZM8.00001 5.29333C7.13335 5.29333 6.42001 6 6.42001 6.87334C6.42001 7.74667 7.12668 8.45334 8.00001 8.45334C8.87335 8.45334 9.58001 7.74667 9.58001 6.87334C9.58001 6 8.86668 5.29333 8.00001 5.29333Z" fill="#545455"/>
<path d="M8 15.1733C7.01333 15.1733 6.01999 14.8 5.24666 14.06C3.28 12.1667 1.10666 9.14668 1.92666 5.55334C2.66666 2.29334 5.51333 0.833344 8 0.833344C8 0.833344 8 0.833344 8.00666 0.833344C10.4933 0.833344 13.34 2.29334 14.08 5.56001C14.8933 9.15334 12.72 12.1667 10.7533 14.06C9.97999 14.8 8.98666 15.1733 8 15.1733ZM8 1.83334C6.06 1.83334 3.56666 2.86668 2.90666 5.77334C2.18666 8.91334 4.16 11.62 5.94666 13.3333C7.1 14.4467 8.90666 14.4467 10.06 13.3333C11.84 11.62 13.8133 8.91334 13.1067 5.77334C12.44 2.86668 9.93999 1.83334 8 1.83334Z" fill="#545455"/>
</svg>
