<svg width="21" height="20" viewBox="0 0 21 20" fill="none" xmlns="http://www.w3.org/2000/svg">
<path d="M15.5 8.95835C15.1583 8.95835 14.875 8.67502 14.875 8.33335V6.66669C14.875 4.04169 14.1333 2.29169 10.5 2.29169C6.86667 2.29169 6.125 4.04169 6.125 6.66669V8.33335C6.125 8.67502 5.84167 8.95835 5.5 8.95835C5.15833 8.95835 4.875 8.67502 4.875 8.33335V6.66669C4.875 4.25002 5.45833 1.04169 10.5 1.04169C15.5417 1.04169 16.125 4.25002 16.125 6.66669V8.33335C16.125 8.67502 15.8417 8.95835 15.5 8.95835Z" fill="white"/>
<path d="M14.667 18.9583H6.33366C2.65866 18.9583 1.54199 17.8416 1.54199 14.1666V12.5C1.54199 8.82498 2.65866 7.70831 6.33366 7.70831H14.667C18.342 7.70831 19.4587 8.82498 19.4587 12.5V14.1666C19.4587 17.8416 18.342 18.9583 14.667 18.9583ZM6.33366 8.95831C3.35033 8.95831 2.79199 9.52498 2.79199 12.5V14.1666C2.79199 17.1416 3.35033 17.7083 6.33366 17.7083H14.667C17.6503 17.7083 18.2087 17.1416 18.2087 14.1666V12.5C18.2087 9.52498 17.6503 8.95831 14.667 8.95831H6.33366Z" fill="white"/>
<path d="M7.16634 14.1667C7.05801 14.1667 6.94967 14.1417 6.84967 14.1C6.74134 14.0583 6.65801 14 6.57468 13.925C6.42468 13.7667 6.33301 13.5583 6.33301 13.3333C6.33301 13.225 6.358 13.1167 6.39966 13.0167C6.44133 12.9083 6.49968 12.825 6.57468 12.7417C6.65801 12.6667 6.74134 12.6083 6.84967 12.5667C7.14967 12.4333 7.52467 12.5083 7.758 12.7417C7.833 12.825 7.89135 12.9167 7.93302 13.0167C7.97469 13.1167 7.99967 13.225 7.99967 13.3333C7.99967 13.55 7.908 13.7667 7.758 13.925C7.59967 14.075 7.38301 14.1667 7.16634 14.1667Z" fill="white"/>
<path d="M10.5003 14.1667C10.2837 14.1667 10.067 14.075 9.90867 13.925C9.75867 13.7667 9.66699 13.5583 9.66699 13.3333C9.66699 13.225 9.68365 13.1167 9.73365 13.0167C9.77531 12.9167 9.83367 12.825 9.90867 12.7417C10.1003 12.55 10.392 12.4583 10.6587 12.5167C10.717 12.525 10.767 12.5417 10.817 12.5667C10.867 12.5833 10.917 12.6084 10.967 12.6417C11.0087 12.6667 11.0503 12.7083 11.092 12.7417C11.167 12.825 11.2253 12.9167 11.267 13.0167C11.3087 13.1167 11.3337 13.225 11.3337 13.3333C11.3337 13.5583 11.242 13.7667 11.092 13.925C11.0503 13.9583 11.0087 13.9917 10.967 14.025C10.917 14.0583 10.867 14.0834 10.817 14.1C10.767 14.125 10.717 14.1417 10.6587 14.15C10.6087 14.1584 10.5503 14.1667 10.5003 14.1667Z" fill="white"/>
<path d="M13.8333 14.1667C13.6083 14.1667 13.4 14.075 13.2417 13.925C13.1667 13.8417 13.1083 13.75 13.0667 13.65C13.025 13.55 13 13.4417 13 13.3333C13 13.1167 13.0917 12.9 13.2417 12.7417C13.2833 12.7083 13.325 12.675 13.3667 12.6417C13.4167 12.6084 13.4667 12.5833 13.5167 12.5667C13.5667 12.5417 13.6167 12.525 13.6667 12.5167C13.9417 12.4583 14.225 12.55 14.425 12.7417C14.575 12.9 14.6667 13.1083 14.6667 13.3333C14.6667 13.4417 14.6417 13.55 14.6 13.65C14.5583 13.7583 14.5 13.8417 14.425 13.925C14.2667 14.075 14.05 14.1667 13.8333 14.1667Z" fill="white"/>
</svg>
