<svg width="34" height="25" viewBox="0 0 34 25" fill="none" xmlns="http://www.w3.org/2000/svg">
<rect x="0.5" y="1" width="33" height="23" rx="3.5" fill="white" stroke="#D9D9D9"/>
<path fill-rule="evenodd" clip-rule="evenodd" d="M17.1791 17.3294C15.9951 18.3275 14.4591 18.93 12.7807 18.93C9.03582 18.93 6 15.9303 6 12.23C6 8.52972 9.03582 5.53003 12.7807 5.53003C14.4591 5.53003 15.9951 6.13258 17.1791 7.1307C18.3632 6.13258 19.8992 5.53003 21.5776 5.53003C25.3224 5.53003 28.3583 8.52972 28.3583 12.23C28.3583 15.9303 25.3224 18.93 21.5776 18.93C19.8992 18.93 18.3632 18.3275 17.1791 17.3294Z" fill="#ED0006"/>
<path fill-rule="evenodd" clip-rule="evenodd" d="M17.1797 17.3289C18.6373 16.1 19.5615 14.2717 19.5615 12.23C19.5615 10.1884 18.6373 8.36001 17.1797 7.13111C18.3638 6.13274 19.9 5.53003 21.5786 5.53003C25.3235 5.53003 28.3593 8.52972 28.3593 12.23C28.3593 15.9303 25.3235 18.93 21.5786 18.93C19.9 18.93 18.3638 18.3273 17.1797 17.3289Z" fill="#F9A000"/>
<path fill-rule="evenodd" clip-rule="evenodd" d="M17.1791 17.3294C18.637 16.1005 19.5614 14.272 19.5614 12.2301C19.5614 10.1882 18.637 8.35964 17.1791 7.13074C15.7213 8.35964 14.7969 10.1882 14.7969 12.2301C14.7969 14.272 15.7213 16.1005 17.1791 17.3294Z" fill="#FF5E00"/>
</svg>
