<svg width="27" height="25" viewBox="0 0 27 25" fill="none" xmlns="http://www.w3.org/2000/svg">
<path d="M25.8422 12.7C25.8422 14.4837 25.4534 16.1771 24.7554 17.6995C22.8587 21.8394 18.6791 24.7146 13.8271 24.7146C11.9561 24.7146 10.1854 24.2874 8.60641 23.5245C8.39241 23.4207 8.18181 23.3111 7.97481 23.1954C6.47391 22.3572 5.17171 21.2059 4.15571 19.8301C3.92031 19.511 3.69981 19.1799 3.49661 18.8381C2.42681 17.0417 1.81201 14.9428 1.81201 12.7C1.81201 11.793 1.91271 10.9097 2.10381 10.0603C2.47461 8.40556 3.18681 6.87996 4.16221 5.56116C4.62471 4.93676 5.14561 4.35786 5.71771 3.83476C7.85521 1.87866 10.7021 0.685059 13.8273 0.685059C17.5599 0.685059 20.8948 2.38676 23.0982 5.05676C24.2772 6.48446 25.1319 8.19006 25.5513 10.0599C25.7419 10.9095 25.8422 11.793 25.8422 12.7Z" fill="url(#paint0_linear_635_23792)"/>
<path opacity="0.07" d="M25.6705 10.0599C25.6601 16.526 20.415 21.7638 13.9465 21.7638C7.47821 21.7638 2.23361 16.526 2.22241 10.0603C2.59341 8.40555 3.30541 6.87996 4.28101 5.56116C4.74351 4.93676 5.26481 4.35786 5.83661 3.83476C7.97421 1.87866 10.8213 0.685059 13.9465 0.685059C17.6789 0.685059 21.0139 2.38676 23.2174 5.05676C24.3963 6.48486 25.2511 8.18995 25.6705 10.0599Z" fill="#CBA5F1"/>
<path opacity="0.33" d="M25.8422 12.7001C25.8422 14.4838 25.4534 16.1772 24.7554 17.6996C22.8587 21.8395 18.6791 24.7147 13.8271 24.7147C11.9561 24.7147 10.1854 24.2875 8.60641 23.5246C8.39241 23.4208 8.18181 23.3112 7.97481 23.1955C6.47391 22.3573 5.17171 21.206 4.15571 19.8302C3.92031 19.5111 3.69981 19.18 3.49661 18.8382C2.42681 17.0418 1.81201 14.9429 1.81201 12.7001C1.81201 10.0268 2.68601 7.55774 4.16221 5.56164C6.80601 3.33544 10.2198 1.99414 13.9464 1.99414C17.3825 1.99414 20.553 3.13434 23.0983 5.05684C24.8126 7.13424 25.8422 9.79654 25.8422 12.7001Z" fill="url(#paint1_linear_635_23792)"/>
<path opacity="0.18" d="M25.8422 12.7003C25.8422 14.484 25.4534 16.1782 24.7554 17.6998C22.8587 21.8397 18.679 24.7149 13.827 24.7149C11.956 24.7149 10.1853 24.2877 8.60635 23.5248C8.39234 23.4221 8.18174 23.3114 7.97474 23.1957C7.94694 23.1804 7.91874 23.164 7.89094 23.1484C7.88504 23.1448 7.87894 23.1421 7.87264 23.1381C7.85554 23.1285 7.83814 23.1187 7.82144 23.1082C7.80244 23.0987 7.78394 23.0868 7.76524 23.0755C7.71854 23.0488 7.67134 23.0208 7.62524 22.9923C10.1062 24.2794 18.0821 22.7682 21.494 16.8692C23.7431 12.9812 24.8254 8.01652 23.1255 5.09082C23.1679 5.16252 23.2179 5.22412 23.2752 5.27582C24.8831 7.32002 25.8422 9.89812 25.8422 12.7003Z" fill="url(#paint2_linear_635_23792)"/>
<path opacity="0.17" d="M4.02631 14.5742C4.02631 18.6636 4.57801 20.8794 7.70551 23.0403C6.31831 22.2184 5.11041 21.1237 4.15581 19.8307C3.92041 19.5111 3.69991 19.18 3.49671 18.8382C2.42691 17.0427 1.81201 14.9432 1.81201 12.7006C1.81201 11.7931 1.91271 10.9102 2.10381 10.0604C2.47461 8.40586 3.18681 6.88066 4.16221 5.56156C4.62471 4.93676 5.14561 4.35816 5.71771 3.83506C7.85521 1.87896 10.7021 0.685059 13.8273 0.685059C16.7416 0.685059 19.4139 1.72246 21.494 3.44836C21.494 3.44836 18.6132 2.59566 16.005 2.59566C9.38941 2.59576 4.02631 7.95846 4.02631 14.5742Z" fill="url(#paint3_linear_635_23792)"/>
<path opacity="0.3" d="M4.76387 20.5879C4.76387 20.5879 5.83077 21.3381 7.45947 20.9086L9.20547 20.8886L7.85747 21.8874L4.92237 22.2567L4.59277 21.5472L4.76387 20.5879Z" fill="#2B013A"/>
<path opacity="0.3" d="M16.576 14.9233C16.576 14.9233 16.7931 15.6627 16.4968 16.0384C16.0857 16.5609 14.3259 17.7488 13.4089 18.1575L13.8271 18.3122L15.3474 18.0676L17.2624 16.8542L17.7215 15.8954L16.576 14.9233Z" fill="#2B013A"/>
<path opacity="0.3" d="M18.724 18.8106C18.7156 18.803 18.3086 18.4474 17.6264 18.8106C17.6264 18.8106 10.6531 22.9464 8.60632 23.525C8.39232 23.4212 8.18172 23.3116 7.97472 23.1959L7.85742 22.9251L11.3718 20.9882L18.2134 17.5337L18.724 18.8106Z" fill="#2B013A"/>
<path opacity="0.3" d="M19.4089 6.22168C19.4089 6.22168 19.7788 7.43968 18.7787 8.27618C18.2035 8.75748 17.2177 9.35648 15.3474 10.5418L17.1226 10.7645L18.5404 10.1257L20.8167 8.16898L19.4089 6.22168Z" fill="#2B013A"/>
<path opacity="0.3" d="M22.4951 11.8065C22.4951 11.8065 22.0637 11.2122 20.556 12.0208C20.556 12.0208 10.3735 18.232 4.15593 19.8302C3.92023 19.5111 3.70003 19.18 3.49683 18.8382L21.8953 9.95312L22.4951 11.8065Z" fill="#2B013A"/>
<path opacity="0.3" d="M2.1643 9.80127C2.1643 9.80127 2.735 10.4574 3.9191 10.2721C6.2003 9.91537 5.2268 10.3655 5.2268 10.3655L4.4436 11.1038L3.3399 11.3587C3.3399 11.3587 3.0159 11.5781 2.6911 11.4334C2.3667 11.2889 2.5959 11.9377 2.3771 11.3336C2.157 10.7301 2.1647 10.7697 2.1647 10.7697L2.0022 10.0822L2.1643 9.80127Z" fill="#2B013A"/>
<path opacity="0.3" d="M13.7553 3.99121C13.7553 3.99121 13.9465 4.84941 13.2957 5.39341C12.8768 5.74381 11.66 6.59441 11.0534 6.97761C9.93741 7.68252 14.3373 6.12911 14.3373 6.12911L14.8063 4.95061L14.2574 4.43151L13.7553 3.99121Z" fill="#2B013A"/>
<path opacity="0.3" d="M15.9013 6.50635V7.87795C15.8539 7.81915 15.7962 7.77215 15.7367 7.72845C15.346 7.43975 14.7896 7.85345 14.3755 8.12375C12.8389 9.12705 9.88432 10.8641 5.40622 12.7463C3.74032 13.4461 2.53602 13.64 1.84042 13.5549C1.82702 13.3655 1.81802 13.1753 1.81372 12.9838L5.25692 11.6376L9.56812 9.95265L15.9013 6.50635Z" fill="#2B013A"/>
<path d="M18.2135 4.00586L17.9644 4.19576C17.881 4.25926 17.7986 4.32296 17.7138 4.38406C17.5452 4.50686 17.3782 4.63226 17.2062 4.75096L16.9497 4.93126C16.8643 4.99116 16.7772 5.04936 16.6912 5.10826C16.6045 5.16686 16.5188 5.22596 16.4318 5.28416L16.1706 5.45666C15.4709 5.91396 14.7576 6.35046 14.0355 6.77136C12.5911 7.61176 11.1092 8.38806 9.60753 9.12156L9.32593 9.25876L9.04343 9.39376C8.85503 9.48466 8.66543 9.57266 8.47673 9.66126C8.28743 9.75066 8.09783 9.83716 7.90833 9.92546L7.62283 10.0554C7.52803 10.0985 7.43303 10.1416 7.33743 10.1842C6.57403 10.5252 5.80713 10.8566 5.03093 11.1676C4.64343 11.3229 4.25383 11.4743 3.86083 11.6171C3.76263 11.6521 3.66473 11.6891 3.56473 11.7213C3.46493 11.7537 3.36353 11.781 3.26033 11.8026C3.15753 11.8238 3.05313 11.839 2.94783 11.8448C2.84273 11.8505 2.73643 11.8485 2.63213 11.8316C2.58003 11.8245 2.52813 11.8123 2.47743 11.7971C2.42673 11.7824 2.37763 11.763 2.32933 11.7404C2.23413 11.695 2.14663 11.6313 2.07423 11.5547C2.00153 11.4771 1.94493 11.3861 1.90343 11.2888C1.86283 11.1921 1.83813 11.0883 1.82593 10.9838C1.82073 10.9319 1.81763 10.8795 1.81763 10.8269C1.81803 10.7748 1.82153 10.722 1.82663 10.6701C1.83813 10.5662 1.85993 10.4631 1.89003 10.3626C1.95023 10.1623 2.04493 9.97236 2.16413 9.80146C2.04713 9.97436 1.95543 10.1645 1.89843 10.3653C1.84113 10.5651 1.81603 10.7762 1.84183 10.9825C1.85443 11.0854 1.88053 11.1864 1.92123 11.2816C1.96253 11.3762 2.01913 11.4647 2.09033 11.5388C2.16143 11.6129 2.24673 11.674 2.34053 11.7169C2.38733 11.7386 2.43513 11.7572 2.48493 11.7711C2.53443 11.7847 2.58493 11.7958 2.63603 11.8028C2.73833 11.8182 2.84203 11.8192 2.94523 11.8128C3.04873 11.8065 3.15123 11.791 3.25313 11.7697C3.35443 11.7476 3.45463 11.7202 3.55313 11.6874C3.65183 11.6554 3.74943 11.6177 3.84693 11.582C4.23853 11.437 4.62653 11.2828 5.01363 11.1249L5.30303 11.006L5.59163 10.885C5.68843 10.8447 5.78383 10.8031 5.88033 10.762C5.97623 10.7214 6.07243 10.6808 6.16773 10.6392L6.45503 10.5146C6.55073 10.4727 6.64623 10.43 6.74153 10.3884C6.93283 10.3041 7.12293 10.2183 7.31353 10.1329C8.07453 9.79006 8.83043 9.43416 9.58113 9.06816C10.3317 8.70226 11.0769 8.32586 11.8163 7.93676C12.5559 7.54896 13.2879 7.14716 14.0122 6.73186C14.7364 6.31616 15.4518 5.88426 16.1539 5.43226L16.4172 5.26296C16.5048 5.20606 16.5915 5.14776 16.6783 5.08956C16.7652 5.03196 16.8527 4.97466 16.939 4.91576L17.1968 4.73826C17.3704 4.62156 17.5382 4.49776 17.7091 4.37716C17.7945 4.31746 17.8778 4.25466 17.9619 4.19236L18.2135 4.00586Z" fill="url(#paint4_linear_635_23792)"/>
<path opacity="0.3" d="M1.95629 14.5678C1.95629 14.5678 3.11509 16.0607 5.30239 15.1491C8.73319 13.718 10.3337 14.5252 10.3337 14.5252L7.09879 16.2704L2.51649 18.0678L1.88729 17.4688L1.73779 15.9857" fill="#2B013A"/>
<path d="M19.4089 6.22192L20.1999 7.65292C20.1999 7.65292 19.3124 8.73852 9.45464 13.4837L3.90504 15.7093C3.03824 16.0571 2.07504 15.4939 1.95624 14.5677C1.95534 14.56 1.95464 14.5531 1.95334 14.546C1.95334 14.546 1.48104 14.7001 1.04494 15.266C0.915043 15.4342 0.809943 15.6206 0.727543 15.8159C0.335843 16.7502 0.438043 17.9561 1.07544 18.7591C1.67744 19.5198 2.60824 19.606 3.49674 19.4547C5.40074 19.1242 7.18584 18.3165 8.94244 17.5405C15.6556 14.5717 20.2483 11.5897 21.7506 10.4602L22.4948 11.8062L26.3206 5.58252L19.4089 6.22192Z" fill="#F757A1"/>
<path d="M18.2136 4.00591L15.9032 7.87781L15.3918 6.95221C14.3585 7.72921 11.2011 9.77881 6.58588 11.82C5.37798 12.354 4.15098 12.9088 2.84177 13.1361C2.23127 13.2396 1.59137 13.1814 1.17707 12.6587C0.738874 12.1054 0.668774 11.2765 0.937974 10.635C0.994874 10.5005 1.06707 10.3721 1.15607 10.2565C1.45607 9.86781 2.16547 9.79641 2.16407 9.80141C2.04427 10.328 2.96467 10.6644 3.49098 10.4486L6.93778 9.03081C13.2885 6.04571 14.2786 4.93971 14.2786 4.93971L13.7546 3.99121L18.2136 4.00591Z" fill="#F757A1"/>
<path d="M18.2136 4.00612C13.8539 7.35512 6.50231 10.6554 3.66281 11.6695C1.81271 12.3303 1.46081 10.8346 2.15651 9.81332C2.16171 9.80572 2.16431 9.80122 2.16431 9.80122C2.04511 10.3275 2.96541 10.6643 3.49131 10.448L6.93821 9.03072C10.0125 7.58512 11.831 6.58052 12.8887 5.92862C14.0159 5.23392 14.2793 4.93962 14.2793 4.93962L13.755 3.99072L18.2136 4.00612Z" fill="url(#paint5_linear_635_23792)"/>
<path d="M26.3213 5.58252C25.8772 5.96442 25.416 6.32692 24.9463 6.67742C24.4247 7.06752 23.8912 7.44132 23.351 7.80522C22.7688 8.19772 22.1777 8.57742 21.582 8.94892C20.9549 9.33872 20.3226 9.71842 19.6846 10.0906C19.0299 10.4732 18.3707 10.8472 17.7075 11.2148C17.0404 11.5843 16.37 11.947 15.6955 12.304C15.0322 12.6547 14.3659 13.001 13.6963 13.3404C13.0524 13.6684 12.4059 13.9919 11.7571 14.3099C11.1476 14.6088 10.5367 14.9024 9.92371 15.1933C9.36541 15.4572 8.80501 15.718 8.24331 15.9732C7.75092 16.1981 7.25772 16.4188 6.76192 16.6357C6.35172 16.8135 5.94072 16.9904 5.52682 17.1613C5.21442 17.2889 4.90112 17.4148 4.58522 17.5332C4.24562 17.6593 3.89872 17.7784 3.53842 17.8268C3.21282 17.8711 2.85772 17.8567 2.55082 17.7336C0.77652 17.0199 1.95592 14.5678 1.95592 14.5678C2.07432 15.494 3.03812 16.0567 3.90472 15.7094L9.45391 13.4838C16.4102 10.1353 18.8997 8.60912 19.7627 8.00082C20.1223 7.74702 20.1993 7.65292 20.1993 7.65292L19.4084 6.22152L26.3213 5.58252Z" fill="url(#paint6_linear_635_23792)"/>
<path d="M21.0344 14.9382L18.7243 18.8102L18.2127 17.8838C17.18 18.6617 14.0224 20.711 9.40766 22.7527C8.19936 23.2864 7.30066 23.8345 5.99126 24.0614C5.38056 24.166 4.41286 24.1131 3.99885 23.5905C3.56055 23.0374 3.49045 22.2088 3.76005 21.5669C3.81625 21.4322 3.88905 21.3033 3.97805 21.189C4.27806 20.7991 4.76046 20.584 4.76426 20.5875C5.33856 21.1443 5.77406 21.4604 6.83786 21.1634L9.75886 19.9628C16.1099 16.9774 17.1009 15.8714 17.1009 15.8714L16.5764 14.9229L21.0344 14.9382Z" fill="#F757A1"/>
<path d="M21.0341 14.9383C20.5307 15.2987 20.0163 15.6452 19.4971 15.9824C18.9536 16.3342 18.403 16.6747 17.8475 17.0065C17.2823 17.3443 16.7112 17.6729 16.1362 17.9948C15.5653 18.3149 14.9901 18.626 14.412 18.9324C13.8519 19.228 13.2891 19.5178 12.7237 19.8022C12.1915 20.0689 11.6574 20.3317 11.1208 20.5885C10.6327 20.8225 10.1433 21.0518 9.65153 21.2771C9.22513 21.4713 8.79673 21.6624 8.36633 21.8489C8.01753 22.001 7.66693 22.1495 7.31433 22.2927C7.03623 22.4049 6.75593 22.5155 6.47293 22.6159C6.30213 22.6764 6.12393 22.7168 5.94353 22.7348C5.78223 22.7507 5.57353 22.7725 5.41783 22.7207C4.22983 22.326 4.76363 20.5874 4.76363 20.5874C5.33823 21.1448 5.77373 21.4612 6.83743 21.1642L9.75883 19.9627C13.107 18.3895 14.9653 17.3378 15.9742 16.695C16.8787 16.1191 17.1003 15.8719 17.1003 15.8719L16.5758 14.9233L21.0341 14.9383Z" fill="url(#paint7_linear_635_23792)"/>
<defs>
<linearGradient id="paint0_linear_635_23792" x1="5.40968" y1="-6.39087" x2="25.4025" y2="38.9514" gradientUnits="userSpaceOnUse">
<stop offset="0.156" stop-color="#AB5CE9"/>
<stop offset="0.7258" stop-color="#5106D0"/>
</linearGradient>
<linearGradient id="paint1_linear_635_23792" x1="6.4671" y1="-4.85914" x2="18.3498" y2="23.4896" gradientUnits="userSpaceOnUse">
<stop offset="0.2419" stop-color="#DE6BF0"/>
<stop offset="1" stop-color="#341A5A"/>
</linearGradient>
<linearGradient id="paint2_linear_635_23792" x1="8.87343" y1="0.21457" x2="21.2998" y2="25.907" gradientUnits="userSpaceOnUse">
<stop offset="0.2419" stop-color="#DE6BF0"/>
<stop offset="1" stop-color="#341A5A"/>
</linearGradient>
<linearGradient id="paint3_linear_635_23792" x1="16.1218" y1="15.0314" x2="-29.3761" y2="-30.4665" gradientUnits="userSpaceOnUse">
<stop offset="0.156" stop-color="#E09DE9"/>
<stop offset="0.7258" stop-color="#5106D0"/>
</linearGradient>
<linearGradient id="paint4_linear_635_23792" x1="10.104" y1="7.18872" x2="-9.67443" y2="18.1042" gradientUnits="userSpaceOnUse">
<stop offset="0.0822" stop-color="#31B5ED"/>
<stop offset="0.7448" stop-color="#5045DD"/>
</linearGradient>
<linearGradient id="paint5_linear_635_23792" x1="-1.92997" y1="12.1305" x2="24.3257" y2="1.54899" gradientUnits="userSpaceOnUse">
<stop stop-color="#ED1E79"/>
<stop offset="0.3082" stop-color="#F02D94"/>
<stop offset="0.9664" stop-color="#F755D7"/>
<stop offset="1" stop-color="#F757DB"/>
</linearGradient>
<linearGradient id="paint6_linear_635_23792" x1="-12.4236" y1="22.1107" x2="44.2184" y2="-1.59854" gradientUnits="userSpaceOnUse">
<stop stop-color="#ED1E79"/>
<stop offset="0.3082" stop-color="#F02D94"/>
<stop offset="0.9664" stop-color="#F755D7"/>
<stop offset="1" stop-color="#F757DB"/>
</linearGradient>
<linearGradient id="paint7_linear_635_23792" x1="-6.00775" y1="24.2541" x2="33.4312" y2="11.9188" gradientUnits="userSpaceOnUse">
<stop stop-color="#ED1E79"/>
<stop offset="0.3082" stop-color="#F02D94"/>
<stop offset="0.9664" stop-color="#F755D7"/>
<stop offset="1" stop-color="#F757DB"/>
</linearGradient>
</defs>
</svg>
