<svg width="120" height="120" viewBox="0 0 120 120" fill="none" xmlns="http://www.w3.org/2000/svg">
<circle cx="60" cy="60" r="60" fill="#D4C0FD"/>
<path d="M58.5597 66.6132C53.3331 66.6132 49.0664 62.3466 49.0664 57.1199C49.0664 51.8932 53.3331 47.6266 58.5597 47.6266C63.7864 47.6266 68.0531 51.8932 68.0531 57.1199C68.0531 62.3466 63.7864 66.6132 58.5597 66.6132ZM58.5597 51.6533C55.5464 51.6533 53.0664 54.1066 53.0664 57.1466C53.0664 60.1866 55.5197 62.6399 58.5597 62.6399C61.5997 62.6399 64.0531 60.1866 64.0531 57.1466C64.0531 54.1066 61.5997 51.6533 58.5597 51.6533Z" fill="#3703A0"/>
<path d="M72.4007 83.8667C71.3074 83.8667 70.4007 82.96 70.4007 81.8667C70.4007 76.7467 65.094 72.5865 58.5607 72.5865C52.0274 72.5865 46.7207 76.7467 46.7207 81.8667C46.7207 82.96 45.814 83.8667 44.7207 83.8667C43.6274 83.8667 42.7207 82.96 42.7207 81.8667C42.7207 74.56 49.814 68.5865 58.5607 68.5865C67.3074 68.5865 74.4007 74.5333 74.4007 81.8667C74.4007 82.96 73.494 83.8667 72.4007 83.8667Z" fill="#3703A0"/>
<path d="M58.6673 88.6667C43.6007 88.6667 31.334 76.4 31.334 61.3333C31.334 46.2667 43.6007 34 58.6673 34C62.374 34 65.9473 34.72 69.3073 36.1333C70.2673 36.5333 70.7473 37.5999 70.4273 38.5866C70.134 39.4666 70.0007 40.4 70.0007 41.3333C70.0007 42.9067 70.4273 44.4533 71.254 45.7866C71.6807 46.5333 72.2407 47.1999 72.8807 47.7599C75.2007 49.8666 78.6407 50.5334 81.334 49.5734C82.3207 49.2001 83.4407 49.7067 83.8407 50.6934C85.2807 54.08 86.0007 57.68 86.0007 61.36C86.0007 76.4 73.734 88.6667 58.6673 88.6667ZM58.6673 38C45.814 38 35.334 48.4533 35.334 61.3333C35.334 74.2133 45.814 84.6667 58.6673 84.6667C71.5207 84.6667 82.0007 74.2133 82.0007 61.3333C82.0007 58.7733 81.574 56.24 80.774 53.8133C77.094 54.4533 73.0673 53.3067 70.2407 50.7201C69.3073 49.9201 68.4806 48.9333 67.8406 47.84C66.6673 45.92 66.0273 43.6533 66.0273 41.3333C66.0273 40.6133 66.0807 39.9201 66.214 39.2267C63.7873 38.4001 61.254 38 58.6673 38Z" fill="#3703A0"/>
<path d="M78.6667 54C75.52 54 72.5333 52.8267 70.2133 50.72C69.28 49.92 68.4533 48.9333 67.8133 47.84C66.64 45.92 66 43.6533 66 41.3333C66 39.9733 66.2133 38.64 66.64 37.36C67.2267 35.5467 68.24 33.8666 69.6 32.5066C72 30.0533 75.2267 28.6666 78.6933 28.6666C82.32 28.6666 85.76 30.2133 88.1067 32.88C90.1867 35.2 91.36 38.1866 91.36 41.3333C91.36 42.3466 91.2267 43.3599 90.96 44.3199C90.6933 45.5199 90.1867 46.7733 89.4933 47.8667C87.9467 50.48 85.4933 52.4266 82.6133 53.3333C81.4133 53.7866 80.08 54 78.6667 54ZM78.6667 32.6666C76.2933 32.6666 74.08 33.5999 72.4533 35.2799C71.52 36.2399 70.8533 37.3332 70.4533 38.5865C70.16 39.4665 70.0267 40.4 70.0267 41.3333C70.0267 42.9066 70.4533 44.4532 71.28 45.7866C71.7067 46.5332 72.2667 47.1999 72.9067 47.7599C75.2267 49.8666 78.6667 50.5334 81.36 49.5734C83.3867 48.9334 85.04 47.5999 86.1067 45.8133C86.5867 45.0399 86.9067 44.2133 87.0933 43.3867C87.28 42.6933 87.36 42.0266 87.36 41.3333C87.36 39.2 86.56 37.1467 85.12 35.5467C83.4933 33.7067 81.1467 32.6666 78.6667 32.6666Z" fill="#3703A0"/>
<path d="M82.6393 43.2799H74.666C73.5727 43.2799 72.666 42.3732 72.666 41.2799C72.666 40.1866 73.5727 39.2799 74.666 39.2799H82.6393C83.7327 39.2799 84.6393 40.1866 84.6393 41.2799C84.6393 42.3732 83.7593 43.2799 82.6393 43.2799Z" fill="#3703A0"/>
<path d="M78.666 47.36C77.5727 47.36 76.666 46.4534 76.666 45.36V37.3867C76.666 36.2934 77.5727 35.3867 78.666 35.3867C79.7593 35.3867 80.666 36.2934 80.666 37.3867V45.36C80.666 46.48 79.7593 47.36 78.666 47.36Z" fill="#3703A0"/>
</svg>
