<svg width="231" height="39" viewBox="0 0 231 39" fill="none" xmlns="http://www.w3.org/2000/svg">
<path fill-rule="evenodd" clip-rule="evenodd" d="M70.7897 33.0932L70.7896 33.0932L70.7895 33.0932C70.121 33.1617 69.4423 33.2313 68.7473 33.3168L63.1716 17.1864V34.0032C61.4292 34.1748 59.8611 34.4036 58.1768 34.6896V3.85883H62.8232L69.1539 21.362V3.85883H74.0907V32.6876C72.9999 32.8667 71.9091 32.9785 70.7898 33.0932L70.7898 33.0932L70.7897 33.0932L70.7897 33.0932ZM87.1636 15.1252H87.1636L87.1638 15.1252C88.3177 15.0973 89.4449 15.07 90.2953 15.07V19.8748C88.1463 19.8748 85.5908 19.8748 83.7322 19.9892V27.1392C84.6373 27.0847 85.5483 27.0243 86.4632 26.9637L86.4633 26.9637L86.4636 26.9636H86.4636H86.4636H86.4637C88.4255 26.8337 90.4058 26.7024 92.3862 26.6244V31.2576L78.8535 32.2872V3.85883H92.3862V8.66363H83.7322V15.1844C84.7133 15.1844 85.9532 15.1544 87.1635 15.1252H87.1635H87.1635H87.1636H87.1636ZM105.454 8.72083H110.507C110.507 8.72083 110.507 3.85883 110.565 3.85883H95.5225V8.72083H100.575V30.9144C102.144 30.8572 103.828 30.8572 105.454 30.8572V8.72083ZM118.464 14.8412H125.143V19.646H118.464V30.5712H113.644V3.85883H127.292V8.66363H118.464V14.8412ZM140.314 26.5684C138.634 26.4711 136.942 26.3732 135.249 26.3384V3.85883H130.37V30.8572C134.842 30.9716 139.198 31.2004 143.554 31.4864V26.7388C142.482 26.6939 141.401 26.6313 140.314 26.5684ZM149.326 31.9351L149.326 31.9351C150.373 31.9974 151.436 32.0607 152.498 32.1728V3.85883H147.678V31.8296C148.221 31.8693 148.771 31.902 149.326 31.9351ZM167.658 18.502L173.873 3.85883H168.471L165.044 11.924L161.85 3.85883H156.623L162.315 18.3304L156.042 32.4016C156.739 32.4931 157.436 32.5664 158.133 32.6396C159.178 32.7494 160.224 32.8592 161.269 33.0308L164.87 24.8512L168.355 33.7744C169.006 33.8746 169.65 33.9818 170.291 34.0886C171.482 34.2868 172.665 34.4838 173.873 34.6324L167.658 18.502Z" fill="#DFDFDF"/>
</svg>
