<svg width="34" height="24" viewBox="0 0 34 24" fill="none" xmlns="http://www.w3.org/2000/svg">
<rect x="0.5" y="0.5" width="33" height="23" rx="3.5" fill="white" stroke="#D9D9D9"/>
<path fill-rule="evenodd" clip-rule="evenodd" d="M17.1791 16.8293C15.9951 17.8274 14.4591 18.43 12.7807 18.43C9.03582 18.43 6 15.4303 6 11.73C6 8.02966 9.03582 5.02997 12.7807 5.02997C14.4591 5.02997 15.9951 5.63252 17.1791 6.63064C18.3632 5.63252 19.8992 5.02997 21.5776 5.02997C25.3224 5.02997 28.3583 8.02966 28.3583 11.73C28.3583 15.4303 25.3224 18.43 21.5776 18.43C19.8992 18.43 18.3632 17.8274 17.1791 16.8293Z" fill="#ED0006"/>
<path fill-rule="evenodd" clip-rule="evenodd" d="M17.1797 16.8289C18.6373 15.6 19.5615 13.7716 19.5615 11.73C19.5615 9.68831 18.6373 7.85995 17.1797 6.63105C18.3638 5.63268 19.9 5.02997 21.5786 5.02997C25.3235 5.02997 28.3593 8.02966 28.3593 11.73C28.3593 15.4303 25.3235 18.43 21.5786 18.43C19.9 18.43 18.3638 17.8273 17.1797 16.8289Z" fill="#F9A000"/>
<path fill-rule="evenodd" clip-rule="evenodd" d="M17.1791 16.8293C18.637 15.6004 19.5614 13.7718 19.5614 11.73C19.5614 9.68807 18.637 7.85953 17.1791 6.63062C15.7213 7.85953 14.7969 9.68807 14.7969 11.73C14.7969 13.7718 15.7213 15.6004 17.1791 16.8293Z" fill="#FF5E00"/>
</svg>
