<svg width="40" height="41" viewBox="0 0 40 41" fill="none" xmlns="http://www.w3.org/2000/svg">
<path d="M11.8832 35.0833H8.63321C7.76654 35.0833 6.96655 34.7167 6.39988 34.05C5.84988 33.4 5.5999 32.5333 5.7499 31.7L9.73321 7.8167C10.2332 4.78337 12.8332 2.58334 15.8999 2.58334H23.3332C28.6166 2.58334 32.9166 6.88334 32.9166 12.1667C32.9166 12.5167 32.8999 12.85 32.8499 13.1833C32.6332 15.7833 31.4832 18.2667 29.5999 20.1333C27.4999 22.25 24.6665 23.4334 21.6499 23.4334H16.4332C16.2332 23.4334 16.0499 23.5834 16.0165 23.8L14.7499 32.6C14.5832 33.7167 13.7999 34.6334 12.7499 34.95C12.4165 35.0667 12.0999 35.0833 11.8832 35.0833ZM15.8999 5.08334C14.0499 5.08334 12.4999 6.40002 12.1999 8.21668L8.21654 32.1C8.18321 32.2667 8.26654 32.3833 8.31653 32.4333C8.36653 32.4833 8.46654 32.5833 8.63321 32.5833H11.8832C12.1666 32.5 12.2666 32.3667 12.2999 32.2167L13.5666 23.4334C13.7666 22 15.0165 20.9334 16.4499 20.9334H21.6666C24.0166 20.9334 26.1999 20.0167 27.8499 18.3667C29.3165 16.9167 30.1999 15 30.3832 12.95C30.4166 12.6667 30.4332 12.4334 30.4332 12.1834C30.4332 8.28336 27.2499 5.10003 23.3499 5.10003H15.8999V5.08334Z" fill="black"/>
<path d="M18.5835 38.4167H13.7002C12.8335 38.4167 12.0168 38.0333 11.4502 37.35C10.8835 36.6666 10.6668 35.7833 10.8335 34.9166L11.2669 32.7333L12.0168 32.5333C12.1502 32.5 12.2668 32.3666 12.3002 32.2L13.5669 23.4167C13.7669 21.9833 15.0168 20.9167 16.4502 20.9167H21.6668C24.0168 20.9167 26.2002 20 27.8502 18.35C29.3168 16.9 30.2002 14.9833 30.3835 12.9333L30.5501 10.9833L32.2502 11.95C34.7335 13.3666 36.2669 16 36.2669 18.8333C36.2669 21.3833 35.2668 23.7833 33.4668 25.6167C31.6335 27.4333 29.2335 28.4167 26.6835 28.4167H23.1001C22.8835 28.4167 22.7168 28.5666 22.6835 28.7666L21.4835 35.9667C21.2335 37.3833 20.0168 38.4167 18.5835 38.4167ZM13.4502 34.6167L13.2835 35.4167C13.2502 35.5833 13.3335 35.7167 13.3835 35.7667C13.4335 35.8333 13.5335 35.9167 13.7002 35.9167H18.5835C18.8002 35.9167 18.9668 35.7667 19.0002 35.5667L20.2002 28.3667C20.4335 26.95 21.6502 25.9167 23.0835 25.9167H26.6668C28.5502 25.9167 30.3335 25.1833 31.6835 23.85C33.0169 22.5167 33.7502 20.7167 33.7502 18.8333C33.7502 17.5333 33.2835 16.3 32.4502 15.3333C31.9335 17.1333 30.9502 18.8 29.6002 20.1333C27.5002 22.25 24.6668 23.4333 21.6502 23.4333H16.4335C16.2335 23.4333 16.0501 23.5833 16.0168 23.8L14.7502 32.6C14.6335 33.4333 14.1502 34.1667 13.4502 34.6167Z" fill="black"/>
</svg>
