<svg width="20" height="20" viewBox="0 0 20 20" fill="none" xmlns="http://www.w3.org/2000/svg">
<path d="M19.3281 5.38271C19.2803 5.26896 19.1999 5.17191 19.097 5.10378C18.9941 5.03566 18.8734 4.99951 18.75 4.9999H16.375C16.09 4.50265 15.6943 4.07768 15.2187 3.75789C14.7431 3.4381 14.2002 3.23208 13.6322 3.15579C13.0641 3.0795 12.4862 3.13498 11.943 3.31793C11.3999 3.50089 10.9061 3.80641 10.5 4.21084C10.1444 4.55753 9.86174 4.9718 9.66854 5.42929C9.47535 5.88679 9.37554 6.37828 9.37499 6.8749V7.35146C6.19531 6.52334 3.59374 3.96084 3.57031 3.92959C3.48859 3.84919 3.38633 3.79281 3.27471 3.76663C3.1631 3.74045 3.04644 3.74548 2.93749 3.78115C2.82889 3.81571 2.73164 3.87896 2.65601 3.96422C2.58038 4.04948 2.52917 4.15358 2.50781 4.26552C1.82812 8.03115 2.96093 10.5546 4.03124 12.0077C4.56808 12.7425 5.21964 13.3861 5.96093 13.914C4.76562 15.2655 2.92187 15.9686 2.90624 15.9765C2.81808 16.0092 2.73842 16.0613 2.67322 16.1291C2.60802 16.1969 2.55894 16.2785 2.52966 16.3678C2.50037 16.4572 2.49163 16.552 2.50408 16.6452C2.51652 16.7384 2.54985 16.8276 2.60156 16.9061C2.66406 16.9999 2.89843 17.3046 3.46874 17.5936C4.17968 17.9452 5.11718 18.1249 6.24999 18.1249C11.7578 18.1249 16.3672 13.8827 16.8359 8.42178L19.1953 6.07021C19.2801 5.97985 19.3376 5.86732 19.3611 5.74566C19.3846 5.62399 19.3731 5.49816 19.3281 5.38271V5.38271ZM15.7891 7.70302C15.6802 7.81101 15.616 7.95607 15.6094 8.10928C15.2891 13.0233 11.1797 16.8749 6.24999 16.8749C5.42187 16.8749 4.84374 16.7655 4.43749 16.6327C5.33593 16.1483 6.58593 15.3046 7.39843 14.0936C7.4456 14.0204 7.47691 13.938 7.49036 13.8519C7.50382 13.7658 7.49912 13.6778 7.47656 13.5936C7.45381 13.5086 7.41358 13.4293 7.35843 13.3606C7.30327 13.292 7.23441 13.2357 7.15624 13.1952C7.14843 13.1874 5.99218 12.5858 4.99999 11.2187C3.87499 9.67178 3.39843 7.78896 3.58593 5.61709C4.82031 6.63271 7.17968 8.28896 9.89843 8.74209C9.98821 8.75651 10.08 8.75141 10.1677 8.72714C10.2553 8.70288 10.3367 8.66001 10.4062 8.60146C10.4743 8.54195 10.5289 8.46872 10.5666 8.38659C10.6043 8.30445 10.6242 8.21527 10.625 8.1249V6.8749C10.6262 6.30146 10.8244 5.74585 11.1866 5.30122C11.5487 4.85659 12.0527 4.54996 12.614 4.43275C13.1753 4.31554 13.7599 4.39487 14.2697 4.65743C14.7795 4.92 15.1835 5.34984 15.4141 5.8749C15.4639 5.98658 15.545 6.08144 15.6476 6.14799C15.7502 6.21454 15.8699 6.24994 15.9922 6.2499H17.2422L15.7891 7.70302Z" fill="white"/>
</svg>
