<svg width="230" height="39" viewBox="0 0 230 39" fill="none" xmlns="http://www.w3.org/2000/svg">
<path d="M72.2385 3.87203C71.7088 2.13631 69.8547 1.20169 68.133 1.73575C66.4113 2.26982 65.4842 4.13907 66.014 5.87479L74.49 32.1777C75.086 33.7799 76.8076 34.7145 78.4631 34.2472C80.1848 33.7131 81.2443 31.9107 80.7146 30.1749C80.7146 30.1082 72.2385 3.87203 72.2385 3.87203Z" fill="#DFDFDF"/>
<path d="M59.1272 8.21132C58.5975 6.4756 56.7433 5.54098 55.0216 6.07505C53.2999 6.60912 52.3729 8.47836 52.9026 10.2141L61.3787 36.517C61.9746 38.1192 63.6963 39.0538 65.3518 38.5865C67.0735 38.0524 68.133 36.2499 67.6032 34.5142C67.6032 34.4475 59.1272 8.21132 59.1272 8.21132Z" fill="#DFDFDF"/>
<path d="M82.9667 25.7021C84.6884 25.168 85.6154 23.2988 85.0857 21.5631C84.5559 19.8273 82.7018 18.8927 80.9801 19.4268L54.8237 27.9051C53.2344 28.506 52.3073 30.2417 52.7709 31.9107C53.3006 33.6464 55.0885 34.7145 56.8102 34.1805C56.9427 34.1805 82.9667 25.7021 82.9667 25.7021Z" fill="#DFDFDF"/>
<path d="M60.253 33.1123C61.9747 32.5782 64.1599 31.8439 66.4776 31.0428C65.9478 29.307 65.2194 27.104 64.4248 24.7675L58.2002 26.837L60.253 33.1123Z" fill="#DFDFDF"/>
<path d="M73.4307 28.773C75.8146 27.9719 77.9998 27.3043 79.6553 26.7035C79.1255 24.9677 78.3971 22.7647 77.6025 20.4282L71.3779 22.4977L73.4307 28.773Z" fill="#DFDFDF"/>
<path d="M78.6622 12.4171C80.3839 11.8831 81.3109 10.0138 80.7812 8.2781C80.2514 6.54237 78.3973 5.60775 76.6756 6.14182L50.5854 14.6869C48.9961 15.2878 48.0691 17.0235 48.5326 18.6924C49.0623 20.4949 50.8502 21.5631 52.5719 20.9622C52.6382 20.9622 78.6622 12.4171 78.6622 12.4171Z" fill="#DFDFDF"/>
<path d="M56.0157 19.8273C57.7374 19.2932 59.9226 18.5589 62.2403 17.7578C61.4456 15.3545 60.7834 13.1514 60.1875 11.4825L53.9629 13.552L56.0157 19.8273Z" fill="#DFDFDF"/>
<path d="M69.127 15.5548C71.5109 14.7537 73.6961 14.0861 75.3516 13.4853C74.557 11.082 73.8948 8.87893 73.2988 7.20996L67.0742 9.27948L69.127 15.5548Z" fill="#DFDFDF"/>
<path d="M109.387 10.8149C110.513 11.349 110.646 11.6827 109.718 13.4185C108.791 15.221 108.593 15.2877 107.401 14.8204C105.944 14.2196 104.156 13.7523 102.964 13.7523C101.044 13.7523 99.7857 14.4199 99.7857 15.488C99.7857 18.9594 110.844 17.0902 110.844 24.5672C110.844 28.3056 107.666 30.7757 102.898 30.7757C100.382 30.7757 97.2693 29.9079 95.1503 28.8397C94.0908 28.3056 94.0246 27.9719 94.9517 26.1694C95.7463 24.6339 96.0112 24.4336 97.1369 24.901C98.991 25.7021 101.242 26.3029 102.832 26.3029C104.62 26.3029 105.745 25.5685 105.745 24.5004C105.745 21.0957 94.4881 22.6979 94.4881 15.488C94.4881 11.6827 97.6667 9.07916 102.368 9.07916C104.62 9.27944 107.467 9.94702 109.387 10.8149Z" fill="#DFDFDF"/>
<path d="M118.328 2.00277V29.7744C118.328 30.1749 117.864 30.6422 117.268 30.6422H114.354C113.692 30.6422 113.295 30.1749 113.295 29.7744V2.00277C113.295 0.600842 113.692 0.534083 115.811 0.534083C118.195 0.467324 118.328 0.6676 118.328 2.00277Z" fill="#DFDFDF"/>
<path fill-rule="evenodd" clip-rule="evenodd" d="M138.855 29.5073V17.5575C138.855 12.3504 135.345 9.27948 129.783 9.27948C127.267 9.27948 124.485 10.0806 122.499 11.4158C121.439 12.0833 121.439 12.4171 122.499 14.0861C123.625 15.7551 123.823 15.8218 124.883 15.221C126.207 14.4199 127.863 13.8858 129.253 13.8858C132.167 13.8858 133.889 15.221 133.889 17.424V18.826C132.498 18.2251 130.776 17.8913 128.922 17.8913C123.956 17.8913 120.711 20.5617 120.711 24.5672C120.711 28.3057 123.625 30.8425 127.929 30.8425C130.18 30.8425 132.432 29.9079 133.955 28.1722L133.889 29.4406C133.822 30.1082 134.286 30.5755 134.948 30.5755H137.795C138.391 30.5755 138.855 30.1749 138.855 29.5073ZM128.525 26.837C126.737 26.837 125.545 25.9024 125.545 24.5004C125.545 22.7647 127.333 21.4295 129.982 21.4295C131.24 21.4295 132.697 21.6298 133.822 22.0971V23.9664C132.697 25.7689 130.71 26.837 128.525 26.837Z" fill="#DFDFDF"/>
<path d="M158.522 10.8817C159.582 11.4825 159.582 11.8163 158.456 13.6188C157.397 15.2877 157.198 15.4212 156.006 14.8204C155.145 14.3531 153.688 13.9526 152.563 13.9526C148.921 13.9526 146.537 16.3559 146.537 20.0276C146.537 23.8328 148.921 26.3697 152.563 26.3697C153.821 26.3697 155.41 25.9023 156.403 25.3015C157.463 24.7007 157.662 24.7007 158.787 26.3697C159.781 27.9051 159.781 28.2389 158.853 28.9065C157.264 30.0414 154.682 30.9092 152.43 30.9092C145.742 30.9092 141.239 26.5699 141.239 20.0943C141.239 13.6188 145.742 9.34621 152.496 9.34621C154.615 9.27945 156.999 9.94704 158.522 10.8817Z" fill="#DFDFDF"/>
<path d="M180.441 27.9719C181.302 29.04 180.97 29.4405 178.851 30.1749C176.732 30.976 176.401 30.9092 175.673 29.9079L169.647 21.8301L166.932 24.4336V29.7076C166.932 30.1081 166.469 30.5754 165.873 30.5754H162.959C162.297 30.5754 161.899 30.1081 161.899 29.7076V2.00275C161.899 0.600816 162.297 0.534058 164.416 0.534058C166.866 0.534058 166.932 0.734333 166.932 2.00275V17.7578L175.143 9.81351C176.07 8.94564 176.534 9.0124 178.189 10.0805C179.977 11.2154 180.11 11.5492 179.249 12.4171L173.157 18.4254L180.441 27.9719Z" fill="#DFDFDF"/>
</svg>
