<svg width="18" height="17" viewBox="0 0 18 17" fill="none" xmlns="http://www.w3.org/2000/svg">
<path d="M16.5856 7.92476L14.3111 10.1168C13.9988 10.4173 13.7866 11.0184 13.8515 11.4485L14.205 14.0177C14.4348 15.6617 13.4154 16.3747 11.9423 15.6087L9.44383 14.3005C9.02546 14.0825 8.34192 14.0943 7.93533 14.3359L5.74919 15.6145C4.02267 16.6222 2.99148 15.862 3.4511 13.9175L4.09339 11.201C4.21124 10.706 3.99321 10.0284 3.62198 9.69253L1.55369 7.82459C0.0746615 6.48698 0.487141 5.27311 2.47882 5.1199L5.00084 4.93134C5.47224 4.89599 6.04382 4.52476 6.26185 4.10638L7.56999 1.59616C8.34192 0.128909 9.58525 0.134801 10.3336 1.61383L11.5003 3.92371C11.7007 4.31262 12.2074 4.68975 12.6376 4.75457L15.7606 5.26132C17.4459 5.54417 17.8172 6.74036 16.5856 7.92476Z" fill="#FEC84B"/>
</svg>
