<svg width="231" height="39" viewBox="0 0 231 39" fill="none" xmlns="http://www.w3.org/2000/svg">
<path d="M75.6739 8.14641V21.7969C75.6739 26.3471 73.709 28.238 69.0857 28.238C64.4624 28.238 62.4975 26.3471 62.4975 21.7969V7.55548H58.0476C57.6431 7.55548 57.4697 7.73276 57.4697 8.14641V21.9742C57.4697 29.5972 62.2086 32.2564 69.0857 32.2564C75.9629 32.2564 80.7017 29.5972 80.7017 21.9742V7.55548H76.2518C75.9051 7.55548 75.6739 7.73276 75.6739 8.14641Z" fill="#DFDFDF"/>
<path d="M140.227 11.5147C140.573 11.5147 140.747 11.3965 140.862 11.1011L142.134 7.85095C142.191 7.67367 142.134 7.55548 141.96 7.55548H124.045C122.369 7.55548 121.733 8.08732 121.733 9.26918V30.4245C121.733 31.4291 122.196 31.8427 123.525 31.8427H140.227C140.573 31.8427 140.747 31.7245 140.862 31.4291L142.134 28.1789C142.191 28.0017 142.134 27.8835 141.96 27.8835H126.646V23.5697C126.646 22.0924 127.455 21.3832 129.593 21.3832H136.239C136.586 21.3832 136.759 21.2651 136.875 20.9696L138.088 17.8377C138.146 17.6604 138.088 17.5422 137.915 17.5422H126.588V11.5147H140.227Z" fill="#DFDFDF"/>
<path fill-rule="evenodd" clip-rule="evenodd" d="M111.447 13.7012C111.447 16.0058 110.638 17.9559 108.673 19.0195C111.331 19.7877 112.545 22.2106 112.487 25.1061C112.487 29.9517 109.135 31.8427 104.454 31.8427H92.0288C90.6996 31.8427 90.2373 31.4291 90.2373 30.4245V9.26918C90.2373 8.08732 90.873 7.55548 92.5489 7.55548H102.72C107.17 7.55548 111.447 8.32369 111.447 13.7012ZM95.207 11.4556H103.067C105.667 11.4556 106.418 12.4602 106.418 14.5876C106.418 16.6558 105.667 17.7195 103.067 17.7195H95.207V11.4556ZM103.991 27.9426H95.207V23.5106C95.207 22.0333 96.0161 21.3242 98.1544 21.3242H103.991C106.765 21.3242 107.574 22.4469 107.574 24.6334C107.574 26.8789 106.765 27.9426 103.991 27.9426Z" fill="#DFDFDF"/>
<path fill-rule="evenodd" clip-rule="evenodd" d="M167.908 22.0924L173.225 31.4291C173.34 31.5473 173.34 31.8427 172.936 31.8427H168.428C168.095 31.8427 167.975 31.6789 167.812 31.4563C167.806 31.4473 167.799 31.4382 167.792 31.4291L162.996 22.5651H158.604C156.465 22.5651 155.656 23.2742 155.656 24.7516V31.8427H151.322C150.918 31.8427 150.744 31.6654 150.744 31.2518V9.26918C150.744 8.08732 151.38 7.55548 153.056 7.55548H163.227C169.122 7.55548 172.705 9.15099 172.705 15.0603C172.705 19.6105 170.566 21.3832 167.908 22.0924ZM155.656 18.8423H163.92C167.041 18.8423 167.677 17.6013 167.677 15.1194C167.677 12.6966 166.983 11.4556 163.92 11.4556H155.656V18.8423Z" fill="#DFDFDF"/>
</svg>
