<svg width="24" height="24" viewBox="0 0 24 24" fill="none" xmlns="http://www.w3.org/2000/svg">
<path d="M9.74991 24C9.51289 24.0012 9.28114 23.93 9.08564 23.796C8.89014 23.662 8.7402 23.4715 8.65585 23.25L6.78835 18.3937C6.75053 18.2959 6.69267 18.207 6.61848 18.1328C6.5443 18.0587 6.45543 18.0008 6.35757 17.963L1.49991 16.0941C1.27864 16.0091 1.08831 15.8591 0.954059 15.6638C0.819808 15.4685 0.747939 15.237 0.747939 15C0.747939 14.763 0.819808 14.5315 0.954059 14.3362C1.08831 14.1409 1.27864 13.9909 1.49991 13.9059L6.35616 12.0384C6.45402 12.0006 6.54289 11.9428 6.61707 11.8686C6.69126 11.7944 6.74912 11.7055 6.78694 11.6077L8.65585 6.75C8.74078 6.52872 8.8908 6.3384 9.08613 6.20415C9.28145 6.0699 9.5129 5.99803 9.74991 5.99803C9.98693 5.99803 10.2184 6.0699 10.4137 6.20415C10.609 6.3384 10.759 6.52872 10.844 6.75L12.7115 11.6063C12.7493 11.7041 12.8072 11.793 12.8813 11.8672C12.9555 11.9413 13.0444 11.9992 13.1423 12.037L17.9704 13.8947C18.2007 13.98 18.3991 14.1343 18.5385 14.3364C18.678 14.5386 18.7518 14.7788 18.7499 15.0244C18.7463 15.2573 18.6729 15.4837 18.5392 15.6744C18.4055 15.8651 18.2176 16.0113 17.9999 16.0941L13.1437 17.9616C13.0458 17.9994 12.9569 18.0572 12.8827 18.1314C12.8086 18.2056 12.7507 18.2945 12.7129 18.3923L10.844 23.25C10.7596 23.4715 10.6097 23.662 10.4142 23.796C10.2187 23.93 9.98693 24.0012 9.74991 24ZM4.12491 8.25C3.98595 8.24999 3.85026 8.20789 3.7357 8.12923C3.62115 8.05057 3.53311 7.93906 3.48319 7.80938L2.69288 5.75437C2.67575 5.70943 2.64931 5.66862 2.6153 5.63461C2.5813 5.6006 2.54048 5.57416 2.49554 5.55703L0.440536 4.76672C0.31087 4.71679 0.199373 4.62874 0.120733 4.51419C0.0420927 4.39964 0 4.26395 0 4.125C0 3.98605 0.0420927 3.85036 0.120733 3.73581C0.199373 3.62126 0.31087 3.53321 0.440536 3.48328L2.49554 2.69297C2.54044 2.67576 2.58121 2.6493 2.61521 2.6153C2.64921 2.5813 2.67567 2.54052 2.69288 2.49563L3.47616 0.458906C3.52034 0.339001 3.59635 0.233401 3.69603 0.153454C3.79572 0.073508 3.91531 0.0222386 4.04194 0.00515631C4.19398 -0.0133264 4.34784 0.0194761 4.47912 0.0983622C4.6104 0.177248 4.71158 0.297703 4.76663 0.440625L5.55694 2.49563C5.57415 2.54052 5.60061 2.5813 5.63461 2.6153C5.66861 2.6493 5.70939 2.67576 5.75429 2.69297L7.80929 3.48328C7.93895 3.53321 8.05045 3.62126 8.12909 3.73581C8.20773 3.85036 8.24982 3.98605 8.24982 4.125C8.24982 4.26395 8.20773 4.39964 8.12909 4.51419C8.05045 4.62874 7.93895 4.71679 7.80929 4.76672L5.75429 5.55703C5.70934 5.57416 5.66853 5.6006 5.63452 5.63461C5.60051 5.66862 5.57407 5.70943 5.55694 5.75437L4.76663 7.80938C4.71671 7.93906 4.62867 8.05057 4.51412 8.12923C4.39957 8.20789 4.26387 8.24999 4.12491 8.25ZM18.7499 12C18.5983 12 18.4503 11.954 18.3254 11.8681C18.2004 11.7823 18.1045 11.6606 18.0501 11.5191L16.9794 8.73609C16.9606 8.68705 16.9317 8.64252 16.8945 8.60537C16.8574 8.56823 16.8129 8.5393 16.7638 8.52047L13.9808 7.44984C13.8395 7.39536 13.7179 7.29934 13.6321 7.17441C13.5464 7.04949 13.5005 6.90152 13.5005 6.75C13.5005 6.59848 13.5464 6.45051 13.6321 6.32559C13.7179 6.20066 13.8395 6.10464 13.9808 6.05016L16.7638 4.97953C16.8129 4.9607 16.8574 4.93177 16.8945 4.89463C16.9317 4.85748 16.9606 4.81295 16.9794 4.76391L18.0421 2.00063C18.0906 1.86995 18.1736 1.75487 18.2823 1.66763C18.391 1.58038 18.5214 1.52423 18.6594 1.50516C18.8254 1.48507 18.9932 1.52098 19.1364 1.60717C19.2796 1.69337 19.3899 1.82492 19.4498 1.98094L20.5204 4.76391C20.5392 4.81295 20.5681 4.85748 20.6053 4.89463C20.6424 4.93177 20.687 4.9607 20.736 4.97953L23.519 6.05016C23.6604 6.10464 23.7819 6.20066 23.8677 6.32559C23.9534 6.45051 23.9993 6.59848 23.9993 6.75C23.9993 6.90152 23.9534 7.04949 23.8677 7.17441C23.7819 7.29934 23.6604 7.39536 23.519 7.44984L20.736 8.52047C20.687 8.5393 20.6424 8.56823 20.6053 8.60537C20.5681 8.64252 20.5392 8.68705 20.5204 8.73609L19.4498 11.5191C19.3954 11.6606 19.2994 11.7823 19.1745 11.8681C19.0495 11.954 18.9015 12 18.7499 12Z" fill="#545455"/>
</svg>
