<svg width="30" height="18" viewBox="0 0 30 18" fill="none" xmlns="http://www.w3.org/2000/svg">
<rect width="30" height="18" rx="4" fill="#1C1C1C"/>
<path d="M9.76474 5.72727H11.0822V10.4787C11.0822 10.9995 10.9591 11.4576 10.7129 11.853C10.469 12.2483 10.1258 12.5573 9.68306 12.7798C9.24035 13 8.72307 13.1101 8.13121 13.1101C7.53699 13.1101 7.01853 13 6.57582 12.7798C6.13311 12.5573 5.78983 12.2483 5.54599 11.853C5.30214 11.4576 5.18022 10.9995 5.18022 10.4787V5.72727H6.49769V10.3686C6.49769 10.6716 6.56398 10.9415 6.69656 11.1783C6.8315 11.415 7.02089 11.6009 7.26474 11.7358C7.50858 11.8684 7.79741 11.9347 8.13121 11.9347C8.46502 11.9347 8.75385 11.8684 8.99769 11.7358C9.2439 11.6009 9.4333 11.415 9.56587 11.1783C9.69845 10.9415 9.76474 10.6716 9.76474 10.3686V5.72727ZM16.4666 7.72656C16.4335 7.41643 16.2938 7.17495 16.0476 7.00213C15.8037 6.82931 15.4865 6.7429 15.0959 6.7429C14.8213 6.7429 14.5857 6.78433 14.3892 6.86719C14.1927 6.95005 14.0424 7.0625 13.9382 7.20455C13.834 7.34659 13.7808 7.50876 13.7784 7.69105C13.7784 7.84257 13.8127 7.97396 13.8814 8.08523C13.9524 8.1965 14.0483 8.29119 14.169 8.36932C14.2898 8.44508 14.4235 8.509 14.5703 8.56108C14.7171 8.61316 14.8651 8.65696 15.0142 8.69247L15.696 8.86293C15.9706 8.92685 16.2346 9.01326 16.4879 9.12216C16.7436 9.23106 16.9721 9.36837 17.1733 9.53409C17.3769 9.69981 17.5379 9.89986 17.6562 10.1342C17.7746 10.3686 17.8338 10.6432 17.8338 10.9581C17.8338 11.3842 17.7249 11.7595 17.5071 12.0838C17.2893 12.4058 16.9744 12.6579 16.5625 12.8402C16.1529 13.0201 15.657 13.1101 15.0746 13.1101C14.5088 13.1101 14.0175 13.0225 13.6009 12.8473C13.1866 12.6721 12.8622 12.4164 12.6278 12.0803C12.3958 11.7441 12.2704 11.3345 12.2514 10.8516H13.5476C13.5665 11.1049 13.6446 11.3156 13.782 11.4837C13.9193 11.6518 14.098 11.7772 14.3182 11.8601C14.5407 11.9429 14.7893 11.9844 15.0639 11.9844C15.3504 11.9844 15.6013 11.9418 15.8168 11.8565C16.0346 11.7689 16.205 11.6482 16.3281 11.4943C16.4512 11.3381 16.514 11.1558 16.5163 10.9474C16.514 10.758 16.4583 10.6018 16.3494 10.4787C16.2405 10.3532 16.0878 10.2491 15.8913 10.1662C15.6972 10.081 15.4699 10.0052 15.2095 9.93892L14.3821 9.72585C13.7831 9.57197 13.3097 9.33878 12.9616 9.02628C12.616 8.71141 12.4432 8.29356 12.4432 7.77273C12.4432 7.34422 12.5592 6.96899 12.7912 6.64702C13.0256 6.32505 13.344 6.07528 13.7464 5.89773C14.1489 5.7178 14.6046 5.62784 15.1136 5.62784C15.6297 5.62784 16.0819 5.7178 16.4702 5.89773C16.8608 6.07528 17.1674 6.32268 17.3899 6.63991C17.6125 6.95478 17.7273 7.317 17.7344 7.72656H16.4666ZM21.4728 13H19.0083V5.72727H21.5225C22.2446 5.72727 22.8649 5.87287 23.3833 6.16406C23.9042 6.45289 24.3043 6.86837 24.5836 7.41051C24.863 7.95265 25.0027 8.60133 25.0027 9.35653C25.0027 10.1141 24.8618 10.7652 24.5801 11.3097C24.3007 11.8542 23.8971 12.272 23.3691 12.5632C22.8436 12.8544 22.2115 13 21.4728 13ZM20.3258 11.8601H21.4089C21.9155 11.8601 22.3381 11.7678 22.6767 11.5831C23.0152 11.3961 23.2697 11.1179 23.4402 10.7486C23.6106 10.3769 23.6958 9.91288 23.6958 9.35653C23.6958 8.80019 23.6106 8.33854 23.4402 7.97159C23.2697 7.60227 23.0176 7.32647 22.6838 7.14418C22.3523 6.95952 21.9404 6.86719 21.448 6.86719H20.3258V11.8601Z" fill="white"/>
</svg>
