<svg width="34" height="25" viewBox="0 0 34 25" fill="none" xmlns="http://www.w3.org/2000/svg">
<rect x="0.5" y="1" width="33" height="23" rx="3.5" fill="white" stroke="#D9D9D9"/>
<path fill-rule="evenodd" clip-rule="evenodd" d="M10.751 16.3582H8.69129L7.14674 10.2924C7.07343 10.0133 6.91776 9.76664 6.68879 9.65038C6.11737 9.35821 5.4877 9.12568 4.80078 9.00841V8.77487H8.11886C8.57681 8.77487 8.92026 9.12568 8.97751 9.5331L9.77891 13.9086L11.8376 8.77487H13.8401L10.751 16.3582ZM14.9848 16.3582H13.0396L14.6413 8.77487H16.5866L14.9848 16.3582ZM19.1033 10.8757C19.1605 10.4673 19.504 10.2337 19.9047 10.2337C20.5344 10.1751 21.2203 10.2924 21.7927 10.5835L22.1362 8.95079C21.5637 8.71725 20.9341 8.59998 20.3626 8.59998C18.4746 8.59998 17.1008 9.65038 17.1008 11.1082C17.1008 12.2173 18.0739 12.7996 18.7608 13.1504C19.504 13.5002 19.7902 13.7337 19.733 14.0835C19.733 14.6082 19.1605 14.8418 18.5891 14.8418C17.9022 14.8418 17.2153 14.6669 16.5866 14.3747L16.2432 16.0084C16.9301 16.2996 17.6732 16.4169 18.3601 16.4169C20.4771 16.4745 21.7927 15.4251 21.7927 13.85C21.7927 11.8664 19.1033 11.7502 19.1033 10.8757ZM28.601 16.3582L27.0564 8.77487H25.3974C25.0539 8.77487 24.7105 9.00841 24.596 9.35821L21.7358 16.3582H23.7383L24.138 15.2502H26.5985L26.8274 16.3582H28.601ZM25.6832 10.8171L26.2546 13.6751H24.6528L25.6832 10.8171Z" fill="#172B85"/>
</svg>
